<svg width="14" height="16" viewBox="0 0 14 16" fill="none" xmlns="http://www.w3.org/2000/svg">
<path d="M7.00001 9.125C6.44375 9.125 5.89998 8.96005 5.43747 8.65101C4.97495 8.34197 4.61447 7.90271 4.4016 7.3888C4.18872 6.87488 4.13303 6.30938 4.24155 5.76381C4.35007 5.21824 4.61793 4.7171 5.01127 4.32376C5.4046 3.93043 5.90574 3.66256 6.45132 3.55404C6.99689 3.44552 7.56239 3.50122 8.07631 3.71409C8.59022 3.92696 9.02948 4.28744 9.33852 4.74996C9.64756 5.21247 9.81251 5.75624 9.81251 6.3125C9.81166 7.05816 9.51507 7.77304 8.98781 8.3003C8.46055 8.82756 7.74567 9.12415 7.00001 9.125ZM7.00001 4.625C6.66625 4.625 6.33999 4.72397 6.06248 4.90939C5.78498 5.09482 5.56868 5.35837 5.44096 5.66672C5.31324 5.97507 5.27982 6.31437 5.34493 6.64171C5.41004 6.96906 5.57076 7.26974 5.80676 7.50574C6.04277 7.74174 6.34345 7.90246 6.67079 7.96757C6.99814 8.03269 7.33744 7.99927 7.64579 7.87155C7.95414 7.74382 8.21769 7.52753 8.40311 7.25002C8.58854 6.97252 8.68751 6.64626 8.68751 6.3125C8.68702 5.8651 8.50907 5.43616 8.19271 5.1198C7.87635 4.80344 7.44741 4.62549 7.00001 4.625Z" fill="#637381"/>
<path d="M7.00001 15.875L2.25504 10.2789C2.22809 10.2467 2.05917 10.0249 2.05917 10.0249C1.24856 8.9572 0.810606 7.65305 0.812506 6.3125C0.812506 4.67147 1.4644 3.09766 2.62478 1.93728C3.78516 0.776896 5.35898 0.125 7.00001 0.125C8.64103 0.125 10.2148 0.776896 11.3752 1.93728C12.5356 3.09766 13.1875 4.67147 13.1875 6.3125C13.1895 7.6525 12.7519 8.95615 11.9417 10.0235L11.9408 10.0249C11.9408 10.0249 11.7721 10.2467 11.7469 10.2765L7.00001 15.875ZM2.95704 9.34719C2.9576 9.34758 3.08832 9.52055 3.11825 9.55779L7.00001 14.1357L10.8869 9.55132C10.9116 9.52027 11.0434 9.34606 11.0437 9.34561C11.7059 8.47322 12.0638 7.40776 12.0625 6.3125C12.0625 4.96984 11.5291 3.68217 10.5797 2.73277C9.63033 1.78337 8.34266 1.25 7.00001 1.25C5.65735 1.25 4.36968 1.78337 3.42028 2.73277C2.47088 3.68217 1.93751 4.96984 1.93751 6.3125C1.93626 7.40835 2.2944 8.47437 2.95704 9.34719Z" fill="#637381"/>
</svg>
