<svg width="18" height="16" viewBox="0 0 18 16" fill="none" xmlns="http://www.w3.org/2000/svg">
<path d="M17.75 11.61H0.25V12.86H17.75V11.61Z" fill="#637381"/>
<path d="M17.75 14.11H0.25V15.36H17.75V14.11Z" fill="#637381"/>
<path d="M14 4.10998C13.7528 4.10998 13.5111 4.1833 13.3055 4.32065C13.1 4.458 12.9398 4.65322 12.8451 4.88163C12.7505 5.11004 12.7258 5.36137 12.774 5.60385C12.8222 5.84632 12.9413 6.06905 13.1161 6.24387C13.2909 6.41868 13.5137 6.53773 13.7561 6.58597C13.9986 6.6342 14.2499 6.60944 14.4784 6.51483C14.7068 6.42022 14.902 6.26001 15.0393 6.05445C15.1767 5.84889 15.25 5.60721 15.25 5.35998C15.25 5.02846 15.1183 4.71052 14.8839 4.4761C14.6495 4.24168 14.3315 4.10998 14 4.10998Z" fill="#637381"/>
<path d="M9 7.85998C8.50555 7.85998 8.0222 7.71336 7.61107 7.43866C7.19995 7.16395 6.87952 6.77351 6.6903 6.31669C6.50108 5.85988 6.45157 5.35721 6.54804 4.87226C6.6445 4.38731 6.8826 3.94185 7.23223 3.59222C7.58186 3.24259 8.02732 3.00448 8.51227 2.90802C8.99723 2.81156 9.49989 2.86107 9.95671 3.05029C10.4135 3.2395 10.804 3.55994 11.0787 3.97106C11.3534 4.38218 11.5 4.86553 11.5 5.35998C11.4993 6.0228 11.2356 6.65825 10.7669 7.12693C10.2983 7.59561 9.66281 7.85924 9 7.85998ZM9 4.10998C8.75277 4.10998 8.5111 4.1833 8.30554 4.32065C8.09998 4.458 7.93976 4.65322 7.84515 4.88163C7.75054 5.11004 7.72579 5.36137 7.77402 5.60385C7.82225 5.84632 7.9413 6.06905 8.11612 6.24387C8.29093 6.41868 8.51366 6.53773 8.75614 6.58597C8.99861 6.6342 9.24995 6.60944 9.47835 6.51483C9.70676 6.42022 9.90199 6.26001 10.0393 6.05445C10.1767 5.84889 10.25 5.60721 10.25 5.35998C10.2497 5.02857 10.1179 4.71082 9.88352 4.47647C9.64917 4.24212 9.33142 4.11032 9 4.10998Z" fill="#637381"/>
<path d="M4 4.10998C3.75277 4.10998 3.5111 4.1833 3.30554 4.32065C3.09998 4.458 2.93976 4.65322 2.84515 4.88163C2.75054 5.11004 2.72579 5.36137 2.77402 5.60385C2.82225 5.84632 2.9413 6.06905 3.11612 6.24387C3.29093 6.41868 3.51366 6.53773 3.75614 6.58597C3.99861 6.6342 4.24995 6.60944 4.47835 6.51483C4.70676 6.42022 4.90199 6.26001 5.03934 6.05445C5.17669 5.84889 5.25 5.60721 5.25 5.35998C5.25 5.02846 5.1183 4.71052 4.88388 4.4761C4.64946 4.24168 4.33152 4.10998 4 4.10998Z" fill="#637381"/>
<path d="M16.5 10.36H1.5C1.16874 10.3591 0.851284 10.2272 0.617046 9.99294C0.382808 9.7587 0.250842 9.44125 0.25 9.10998V1.60999C0.250842 1.27872 0.382808 0.96127 0.617046 0.727031C0.851284 0.492793 1.16874 0.360827 1.5 0.359985H16.5C16.8313 0.360827 17.1487 0.492793 17.383 0.727031C17.6172 0.96127 17.7492 1.27872 17.75 1.60999V9.10998C17.7496 9.44137 17.6177 9.75905 17.3834 9.99338C17.1491 10.2277 16.8314 10.3595 16.5 10.36ZM16.5 1.60999H1.5V9.10998H16.5V1.60999Z" fill="#637381"/>
</svg>
