<svg width="14" height="18" viewBox="0 0 14 18" fill="none" xmlns="http://www.w3.org/2000/svg">
<path d="M7 1.5C7.61807 1.5 8.22225 1.68328 8.73616 2.02666C9.25006 2.37004 9.6506 2.8581 9.88712 3.42911C10.1236 4.00013 10.1855 4.62847 10.065 5.23466C9.94438 5.84085 9.64675 6.39767 9.20971 6.83471C8.77267 7.27175 8.21585 7.56938 7.60966 7.68995C7.00347 7.81053 6.37513 7.74865 5.80411 7.51212C5.2331 7.2756 4.74504 6.87506 4.40166 6.36116C4.05828 5.84725 3.875 5.24307 3.875 4.625C3.875 3.7962 4.20424 3.00134 4.79029 2.41529C5.37634 1.82924 6.1712 1.5 7 1.5ZM7 0.25C6.13471 0.25 5.28884 0.506589 4.56938 0.98732C3.84991 1.46805 3.28916 2.15133 2.95803 2.95076C2.62689 3.75019 2.54025 4.62985 2.70906 5.47852C2.87787 6.32719 3.29455 7.10674 3.90641 7.71859C4.51826 8.33045 5.29781 8.74712 6.14648 8.91593C6.99515 9.08475 7.87481 8.99811 8.67424 8.66697C9.47367 8.33584 10.1569 7.77508 10.6377 7.05562C11.1184 6.33615 11.375 5.49029 11.375 4.625C11.375 3.46468 10.9141 2.35188 10.0936 1.53141C9.27312 0.710936 8.16032 0.25 7 0.25Z" fill="#637381"/>
<path d="M13.25 17.75H12V14.625C12 14.2146 11.9192 13.8083 11.7621 13.4291C11.6051 13.05 11.3749 12.7055 11.0847 12.4153C10.7945 12.1251 10.45 11.8949 10.0709 11.7379C9.69174 11.5808 9.28538 11.5 8.875 11.5H5.125C4.2962 11.5 3.50134 11.8292 2.91529 12.4153C2.32924 13.0013 2 13.7962 2 14.625V17.75H0.75V14.625C0.75 13.4647 1.21094 12.3519 2.03141 11.5314C2.85188 10.7109 3.96468 10.25 5.125 10.25H8.875C10.0353 10.25 11.1481 10.7109 11.9686 11.5314C12.7891 12.3519 13.25 13.4647 13.25 14.625V17.75Z" fill="#637381"/>
</svg>
