<svg width="18" height="18" viewBox="0 0 18 18" fill="none" xmlns="http://www.w3.org/2000/svg">
<path d="M9 17.75C7.26942 17.75 5.57769 17.2368 4.13876 16.2754C2.69983 15.3139 1.57832 13.9473 0.916058 12.3485C0.253791 10.7496 0.080512 8.9903 0.418133 7.29296C0.755753 5.59563 1.58911 4.03653 2.81282 2.81282C4.03653 1.58911 5.59563 0.755753 7.29296 0.418133C8.9903 0.080512 10.7496 0.253791 12.3485 0.916058C13.9473 1.57832 15.3139 2.69983 16.2754 4.13876C17.2368 5.57769 17.75 7.26942 17.75 9C17.75 11.3206 16.8281 13.5462 15.1872 15.1872C13.5462 16.8281 11.3206 17.75 9 17.75ZM9 1.5C7.51664 1.5 6.0666 1.93987 4.83323 2.76398C3.59986 3.58809 2.63856 4.75943 2.07091 6.12988C1.50325 7.50032 1.35473 9.00832 1.64411 10.4632C1.9335 11.918 2.64781 13.2544 3.6967 14.3033C4.7456 15.3522 6.08197 16.0665 7.53683 16.3559C8.99168 16.6453 10.4997 16.4968 11.8701 15.9291C13.2406 15.3614 14.4119 14.4002 15.236 13.1668C16.0601 11.9334 16.5 10.4834 16.5 9C16.5 7.01088 15.7098 5.10323 14.3033 3.6967C12.8968 2.29018 10.9891 1.5 9 1.5Z" fill="#637381"/>
<path d="M11.8688 12.75L8.37501 9.25626V3.37501H9.62501V8.73751L12.75 11.8688L11.8688 12.75Z" fill="#637381"/>
</svg>
