<svg width="18" height="13" viewBox="0 0 18 13" fill="none" xmlns="http://www.w3.org/2000/svg">
<path d="M16.5 0.109863H1.5C1.16848 0.109863 0.850537 0.241559 0.616116 0.47598C0.381696 0.7104 0.25 1.02834 0.25 1.35986V11.3599C0.25 11.6914 0.381696 12.0093 0.616116 12.2437C0.850537 12.4782 1.16848 12.6099 1.5 12.6099H16.5C16.8315 12.6099 17.1495 12.4782 17.3839 12.2437C17.6183 12.0093 17.75 11.6914 17.75 11.3599V1.35986C17.75 1.02834 17.6183 0.7104 17.3839 0.47598C17.1495 0.241559 16.8315 0.109863 16.5 0.109863ZM15.125 1.35986L9 5.59736L2.875 1.35986H15.125ZM1.5 11.3599V1.92861L8.64375 6.87236C8.74837 6.94494 8.87267 6.98384 9 6.98384C9.12733 6.98384 9.25163 6.94494 9.35625 6.87236L16.5 1.92861V11.3599H1.5Z" fill="white"/>
</svg>
