<svg width="74" height="21" viewBox="0 0 74 21" fill="none" xmlns="http://www.w3.org/2000/svg">
<ellipse cx="68.1421" cy="14.6667" rx="4.10497" ry="4.16666" fill="#FA541C"/>
<path d="M48.7116 18.8332H44.6877L37.9577 8.55302V18.8332H33.9338V2.1665H37.9577L44.6877 12.4941V2.1665H48.7116V18.8332Z" fill="white"/>
<path d="M54.8187 5.41912V8.79044H60.2054V11.9243H54.8187V15.5806H60.7527V18.8332H50.9009V2.1665H60.7527V5.41912H54.8187Z" fill="white"/>
<path d="M23.5574 18.8332C22.0523 18.8332 20.6687 18.4777 19.4069 17.7669C18.1602 17.056 17.1643 16.067 16.4194 14.7998C15.6896 13.5171 15.3247 12.08 15.3247 10.4882C15.3247 8.89653 15.6896 7.46708 16.4194 6.19988C17.1643 4.93269 18.1602 3.94366 19.4069 3.2328C20.6687 2.52194 22.0523 2.1665 23.5574 2.1665C25.0626 2.1665 26.4385 2.52194 27.6852 3.2328C28.947 3.94366 29.9353 4.93269 30.6498 6.19988C31.3796 7.46708 31.7445 8.89653 31.7445 10.4882C31.7445 12.08 31.3796 13.5171 30.6498 14.7998C29.9201 16.067 28.9318 17.056 27.6852 17.7669C26.4385 18.4777 25.0626 18.8332 23.5574 18.8332ZM23.5574 15.217C24.8345 15.217 25.8531 14.7843 26.6133 13.9189C27.3887 13.0535 27.7764 11.91 27.7764 10.4882C27.7764 9.05107 27.3887 7.9075 26.6133 7.05756C25.8531 6.19216 24.8345 5.75946 23.5574 5.75946C22.2651 5.75946 21.2313 6.18443 20.4559 7.03438C19.6957 7.88432 19.3156 9.03561 19.3156 10.4882C19.3156 11.9254 19.6957 13.0767 20.4559 13.9421C21.2313 14.7921 22.2651 15.217 23.5574 15.217Z" fill="white"/>
<path d="M6.13717 15.5093H13.1354V18.8332H1.6416V15.7468L8.59351 5.49034H1.6416V2.1665H13.1354V5.25292L6.13717 15.5093Z" fill="white"/>
</svg>
