<svg width="74" height="20" viewBox="0 0 74 20" fill="none" xmlns="http://www.w3.org/2000/svg">
<ellipse cx="68.142" cy="14.1667" rx="4.10497" ry="4.16666" fill="#FA541C"/>
<path d="M48.7119 18.3337H44.688L37.958 8.05351V18.3337H33.9341V1.66699H37.958L44.688 11.9946V1.66699H48.7119V18.3337Z" fill="#212B36"/>
<path d="M54.819 4.9196V8.29092H60.2057V11.4248H54.819V15.081H60.7531V18.3337H50.9012V1.66699H60.7531V4.9196H54.819Z" fill="#212B36"/>
<path d="M23.5578 18.3337C22.0526 18.3337 20.6691 17.9782 19.4072 17.2674C18.1605 16.5565 17.1647 15.5675 16.4197 14.3003C15.69 13.0176 15.3251 11.5805 15.3251 9.98874C15.3251 8.39702 15.69 6.96756 16.4197 5.70037C17.1647 4.43318 18.1605 3.44415 19.4072 2.73329C20.6691 2.02242 22.0526 1.66699 23.5578 1.66699C25.0629 1.66699 26.4388 2.02242 27.6855 2.73329C28.9474 3.44415 29.9356 4.43318 30.6502 5.70037C31.38 6.96756 31.7448 8.39702 31.7448 9.98874C31.7448 11.5805 31.38 13.0176 30.6502 14.3003C29.9204 15.5675 28.9322 16.5565 27.6855 17.2674C26.4388 17.9782 25.0629 18.3337 23.5578 18.3337ZM23.5578 14.7175C24.8349 14.7175 25.8535 14.2848 26.6137 13.4194C27.3891 12.554 27.7767 11.4105 27.7767 9.98874C27.7767 8.55155 27.3891 7.40799 26.6137 6.55804C25.8535 5.69264 24.8349 5.25994 23.5578 5.25994C22.2655 5.25994 21.2316 5.68492 20.4563 6.53486C19.6961 7.38481 19.316 8.5361 19.316 9.98874C19.316 11.4259 19.6961 12.5772 20.4563 13.4426C21.2316 14.2926 22.2655 14.7175 23.5578 14.7175Z" fill="#212B36"/>
<path d="M6.13754 15.0098H13.1358V18.3337H1.64197V15.2472L8.59388 4.99083H1.64197V1.66699H13.1358V4.75341L6.13754 15.0098Z" fill="#212B36"/>
</svg>
