<svg width="20" height="20" viewBox="0 0 20 20" fill="none" xmlns="http://www.w3.org/2000/svg">
<path d="M17.5 3.61035H2.5C2.16848 3.61035 1.85054 3.74205 1.61612 3.97647C1.3817 4.21089 1.25 4.52883 1.25 4.86035V14.8604C1.25 15.1919 1.3817 15.5098 1.61612 15.7442C1.85054 15.9787 2.16848 16.1104 2.5 16.1104H17.5C17.8315 16.1104 18.1495 15.9787 18.3839 15.7442C18.6183 15.5098 18.75 15.1919 18.75 14.8604V4.86035C18.75 4.52883 18.6183 4.21089 18.3839 3.97647C18.1495 3.74205 17.8315 3.61035 17.5 3.61035ZM16.125 4.86035L10 9.09785L3.875 4.86035H16.125ZM2.5 14.8604V5.4291L9.64375 10.3729C9.74837 10.4454 9.87267 10.4843 10 10.4843C10.1273 10.4843 10.2516 10.4454 10.3562 10.3729L17.5 5.4291V14.8604H2.5Z" fill="#212B36"/>
</svg>
