<svg width="14" height="12" viewBox="0 0 14 12" fill="none" xmlns="http://www.w3.org/2000/svg">
<path d="M4.45 11.5871C5.50571 11.5937 6.55224 11.3907 7.52887 10.9897C8.50551 10.5888 9.39282 9.99793 10.1393 9.25142C10.8858 8.5049 11.4767 7.61759 11.8777 6.64096C12.2786 5.66432 12.4816 4.6178 12.475 3.56208C12.475 3.43708 12.475 3.31833 12.475 3.19333C13.0222 2.79239 13.4959 2.29969 13.875 1.73708C13.3597 1.96246 12.8144 2.11193 12.2563 2.18083C12.8481 1.8282 13.2921 1.27313 13.5063 0.618333C12.9547 0.949234 12.3499 1.18186 11.7188 1.30583C11.2937 0.852937 10.7313 0.552743 10.1184 0.4517C9.50558 0.350656 8.87653 0.454396 8.32859 0.746867C7.78065 1.03934 7.34437 1.50424 7.08725 2.06963C6.83014 2.63502 6.76652 3.26939 6.90625 3.87458C5.78502 3.81955 4.68794 3.52897 3.68647 3.02177C2.685 2.51458 1.80159 1.80213 1.09375 0.930833C0.736827 1.55032 0.628642 2.28229 0.7911 2.97854C0.953558 3.67478 1.37452 4.28329 1.96875 4.68083C1.53038 4.66393 1.10216 4.54402 0.71875 4.33083V4.36208C0.714855 5.00948 0.932951 5.63866 1.33669 6.14475C1.74043 6.65085 2.30542 7.00329 2.9375 7.14333C2.52977 7.253 2.10268 7.27008 1.6875 7.19333C1.87049 7.74545 2.2198 8.22744 2.68753 8.5732C3.15526 8.91896 3.71849 9.11156 4.3 9.12458C3.30576 9.92491 2.07006 10.3654 0.79375 10.3746C0.569971 10.3681 0.346717 10.3493 0.125 10.3183C1.41685 11.1414 2.91825 11.5753 4.45 11.5683" fill="white"/>
</svg>
