<svg width="18" height="18" viewBox="0 0 18 18" fill="none" xmlns="http://www.w3.org/2000/svg">
<path d="M17.1249 16.2413L12.4048 11.5213C13.539 10.1596 14.1046 8.41313 13.9839 6.6451C13.8632 4.87707 13.0655 3.22363 11.7568 2.02876C10.4481 0.833875 8.7291 0.189547 6.95741 0.229807C5.18572 0.270067 3.49776 0.991816 2.24467 2.24491C0.991571 3.49801 0.269822 5.18597 0.229562 6.95765C0.189302 8.72934 0.833631 10.4483 2.02851 11.7571C3.22339 13.0658 4.87682 13.8635 6.64485 13.9842C8.41288 14.1049 10.1594 13.5393 11.521 12.4051L16.2411 17.1251L17.1249 16.2413ZM1.4999 7.12515C1.4999 6.01263 1.8298 4.92509 2.44789 4.00007C3.06597 3.07504 3.94448 2.35407 4.97231 1.92833C6.00014 1.50258 7.13114 1.39119 8.22229 1.60823C9.31343 1.82527 10.3157 2.361 11.1024 3.14767C11.8891 3.93434 12.4248 4.93662 12.6418 6.02777C12.8589 7.11891 12.7475 8.24991 12.3217 9.27774C11.896 10.3056 11.175 11.1841 10.25 11.8022C9.32496 12.4202 8.23742 12.7501 7.1249 12.7501C5.63357 12.7485 4.20379 12.1553 3.14926 11.1008C2.09472 10.0463 1.50156 8.61648 1.4999 7.12515Z" fill="#212B36"/>
</svg>
