<svg width="120" height="24" viewBox="0 0 120 24" fill="none" xmlns="http://www.w3.org/2000/svg">
<path d="M17.5598 21C17.3999 21.0006 17.2421 20.9629 17.0998 20.89L11.9998 18.22L6.89979 20.89C6.56192 21.0676 6.15238 21.0374 5.84422 20.8122C5.53605 20.5869 5.38302 20.2058 5.44979 19.83L6.44979 14.2L2.32979 10.2C2.06784 9.93856 1.97167 9.55387 2.07979 9.19996C2.19803 8.83738 2.51221 8.57363 2.88979 8.51996L8.58979 7.68996L11.0998 2.55996C11.2669 2.21497 11.6165 1.99585 11.9998 1.99585C12.3831 1.99585 12.7327 2.21497 12.8998 2.55996L15.4398 7.67996L21.1398 8.50996C21.5174 8.56363 21.8315 8.82738 21.9498 9.18996C22.0579 9.54387 21.9617 9.92856 21.6998 10.19L17.5798 14.19L18.5798 19.82C18.6527 20.2028 18.4966 20.593 18.1798 20.82C17.9987 20.9469 17.7807 21.0102 17.5598 21Z" fill="#FFC81A"/>
<path d="M41.5598 21C41.3999 21.0006 41.2421 20.9629 41.0998 20.89L35.9998 18.22L30.8998 20.89C30.5619 21.0676 30.1524 21.0374 29.8442 20.8122C29.5361 20.5869 29.383 20.2058 29.4498 19.83L30.4498 14.2L26.3298 10.2C26.0678 9.93856 25.9717 9.55387 26.0798 9.19996C26.198 8.83738 26.5122 8.57363 26.8898 8.51996L32.5898 7.68996L35.0998 2.55996C35.2669 2.21497 35.6165 1.99585 35.9998 1.99585C36.3831 1.99585 36.7327 2.21497 36.8998 2.55996L39.4398 7.67996L45.1398 8.50996C45.5174 8.56363 45.8315 8.82738 45.9498 9.18996C46.0579 9.54387 45.9617 9.92856 45.6998 10.19L41.5798 14.19L42.5798 19.82C42.6527 20.2028 42.4966 20.593 42.1798 20.82C41.9987 20.9469 41.7807 21.0102 41.5598 21Z" fill="#FFC81A"/>
<path d="M65.5598 21C65.3999 21.0006 65.2421 20.9629 65.0998 20.89L59.9998 18.22L54.8998 20.89C54.5619 21.0676 54.1524 21.0374 53.8442 20.8122C53.5361 20.5869 53.383 20.2058 53.4498 19.83L54.4498 14.2L50.3298 10.2C50.0678 9.93856 49.9717 9.55387 50.0798 9.19996C50.198 8.83738 50.5122 8.57363 50.8898 8.51996L56.5898 7.68996L59.0998 2.55996C59.2669 2.21497 59.6165 1.99585 59.9998 1.99585C60.3831 1.99585 60.7327 2.21497 60.8998 2.55996L63.4398 7.67996L69.1398 8.50996C69.5174 8.56363 69.8315 8.82738 69.9498 9.18996C70.0579 9.54387 69.9617 9.92856 69.6998 10.19L65.5798 14.19L66.5798 19.82C66.6527 20.2028 66.4966 20.593 66.1798 20.82C65.9987 20.9469 65.7807 21.0102 65.5598 21Z" fill="#FFC81A"/>
<path d="M89.5598 21C89.3999 21.0006 89.2421 20.9629 89.0998 20.89L83.9998 18.22L78.8998 20.89C78.5619 21.0676 78.1524 21.0374 77.8442 20.8122C77.5361 20.5869 77.383 20.2058 77.4498 19.83L78.4498 14.2L74.3298 10.2C74.0678 9.93856 73.9717 9.55387 74.0798 9.19996C74.198 8.83738 74.5122 8.57363 74.8898 8.51996L80.5898 7.68996L83.0998 2.55996C83.2669 2.21497 83.6165 1.99585 83.9998 1.99585C84.3831 1.99585 84.7327 2.21497 84.8998 2.55996L87.4398 7.67996L93.1398 8.50996C93.5174 8.56363 93.8315 8.82738 93.9498 9.18996C94.0579 9.54387 93.9617 9.92856 93.6998 10.19L89.5798 14.19L90.5798 19.82C90.6527 20.2028 90.4966 20.593 90.1798 20.82C89.9987 20.9469 89.7807 21.0102 89.5598 21Z" fill="#FFC81A"/>
<path d="M113.56 21C113.4 21.0006 113.242 20.9629 113.1 20.89L108 18.22L102.9 20.89C102.562 21.0676 102.152 21.0374 101.844 20.8122C101.536 20.5869 101.383 20.2058 101.45 19.83L102.45 14.2L98.3298 10.2C98.0678 9.93856 97.9717 9.55387 98.0798 9.19996C98.198 8.83738 98.5122 8.57363 98.8898 8.51996L104.59 7.68996L107.1 2.55996C107.267 2.21497 107.616 1.99585 108 1.99585C108.383 1.99585 108.733 2.21497 108.9 2.55996L111.44 7.67996L117.14 8.50996C117.517 8.56363 117.832 8.82738 117.95 9.18996C118.058 9.54387 117.962 9.92856 117.7 10.19L113.58 14.19L114.58 19.82C114.653 20.2028 114.497 20.593 114.18 20.82C113.999 20.9469 113.781 21.0102 113.56 21Z" fill="#FFC81A"/>
</svg>
