<svg width="20" height="20" viewBox="0 0 20 20" fill="none" xmlns="http://www.w3.org/2000/svg">
<path d="M3.75 17.5C4.44036 17.5 5 16.9404 5 16.25C5 15.5596 4.44036 15 3.75 15C3.05964 15 2.5 15.5596 2.5 16.25C2.5 16.9404 3.05964 17.5 3.75 17.5Z" fill="white"/>
<path d="M17.5 11.25H15.625V10C15.6246 9.6686 15.4928 9.35087 15.2585 9.11654C15.0241 8.8822 14.7064 8.75038 14.375 8.75H11.875C11.5436 8.75038 11.2259 8.8822 10.9915 9.11654C10.7572 9.35087 10.6254 9.6686 10.625 10V11.25H8.75C8.4186 11.2504 8.10087 11.3822 7.86654 11.6165C7.6322 11.8509 7.50038 12.1686 7.5 12.5V17.5C7.50038 17.8314 7.6322 18.1491 7.86654 18.3835C8.10087 18.6178 8.4186 18.7496 8.75 18.75H17.5C17.8314 18.7496 18.1491 18.6178 18.3835 18.3835C18.6178 18.1491 18.7496 17.8314 18.75 17.5V12.5C18.7496 12.1686 18.6178 11.8509 18.3835 11.6165C18.1491 11.3822 17.8314 11.2504 17.5 11.25ZM11.875 10H14.375V11.25H11.875V10ZM17.5 17.5H8.75V12.5H17.5V17.5Z" fill="white"/>
<path d="M6.25 3.75H8.75V7.5H10V3.75H12.5V7.5H13.75V3.75H16.25V7.5H17.5V3.75306C17.5 3.5885 17.4676 3.42555 17.4046 3.27352C17.3417 3.12148 17.2494 2.98334 17.133 2.86698C17.0167 2.75062 16.8785 2.65832 16.7265 2.59535C16.5744 2.53238 16.4115 2.49998 16.2469 2.5H2.50306C2.3385 2.49998 2.17555 2.53238 2.02352 2.59535C1.87148 2.65832 1.73334 2.75062 1.61698 2.86698C1.50062 2.98334 1.40832 3.12148 1.34535 3.27352C1.28238 3.42555 1.24998 3.5885 1.25 3.75306V12.4968C1.24997 12.6614 1.28236 12.8243 1.34531 12.9764C1.40827 13.1284 1.50057 13.2666 1.61693 13.383C1.7333 13.4994 1.87144 13.5917 2.02349 13.6546C2.17553 13.7176 2.33849 13.75 2.50306 13.75H6.25V3.75ZM5 12.5H2.5V3.75H5V12.5Z" fill="white"/>
</svg>
