<svg width="20" height="18" viewBox="0 0 20 18" fill="none" xmlns="http://www.w3.org/2000/svg">
<path d="M14.3539 2.2499C14.8454 2.24949 15.332 2.34719 15.7852 2.53728C16.2384 2.72737 16.6491 3.00602 16.9932 3.3569C17.7022 4.07671 18.0996 5.04653 18.0996 6.0569C18.0996 7.06727 17.7022 8.0371 16.9932 8.7569L10.0002 15.8377L3.00717 8.7569C2.29813 8.0371 1.9007 7.06727 1.9007 6.0569C1.9007 5.04653 2.29813 4.07671 3.00717 3.3569C3.35148 3.00628 3.7622 2.72777 4.21536 2.53765C4.66851 2.34753 5.155 2.24961 5.64642 2.24961C6.13783 2.24961 6.62432 2.34753 7.07748 2.53765C7.53063 2.72777 7.94135 3.00628 8.28567 3.3569L10.0002 5.1119L11.7079 3.3704C12.051 3.01534 12.4621 2.73311 12.9168 2.54059C13.3714 2.34806 13.8602 2.2492 14.3539 2.2499ZM14.3539 0.899904C13.6827 0.899335 13.0181 1.03278 12.3992 1.29242C11.7802 1.55205 11.2193 1.93266 10.7494 2.4119L10.0002 3.1679L9.25092 2.4119C8.78041 1.93352 8.21938 1.55358 7.60053 1.29423C6.98169 1.03489 6.31741 0.901318 5.64642 0.901318C4.97542 0.901318 4.31114 1.03489 3.6923 1.29423C3.07345 1.55358 2.51242 1.93352 2.04192 2.4119C1.08468 3.38635 0.54834 4.6977 0.54834 6.06365C0.54834 7.42961 1.08468 8.74096 2.04192 9.7154L10.0002 17.7749L17.9584 9.7154C18.9156 8.74096 19.452 7.42961 19.452 6.06365C19.452 4.6977 18.9156 3.38635 17.9584 2.4119C17.488 1.93326 16.927 1.55306 16.3082 1.29347C15.6893 1.03388 15.025 0.900089 14.3539 0.899904Z" fill="#637381"/>
</svg>
