<svg width="48" height="48" viewBox="0 0 48 48" fill="none" xmlns="http://www.w3.org/2000/svg">
<path d="M47.1637 41.979H44.1533V39.1358C44.1533 38.6739 43.7788 38.2995 43.317 38.2995H42.373V22.4112H43.317C43.7788 22.4112 44.1533 22.0368 44.1533 21.5749V18.7318H45.4911C45.9529 18.7318 46.3273 18.3574 46.3273 17.8956V14.5507H47.1636C47.6255 14.5507 47.9999 14.1763 47.9999 13.7144V9.53319C47.9999 9.18273 47.7815 8.86952 47.4526 8.74843L24.289 0.218903C24.1025 0.150217 23.8975 0.150217 23.711 0.218903L0.547256 8.74843C0.218434 8.86952 0 9.18285 0 9.53319V13.7144C0 14.1763 0.374427 14.5507 0.836272 14.5507H1.67254V17.8956C1.67254 18.3574 2.04697 18.7318 2.50882 18.7318H3.84663V21.5749C3.84663 22.0368 4.22106 22.4112 4.6829 22.4112H5.62688V38.2995H4.6829C4.22106 38.2995 3.84663 38.6739 3.84663 39.1358V41.979H0.836272C0.374427 41.979 0 42.3534 0 42.8152V46.9964C0 47.4582 0.374427 47.8327 0.836272 47.8327H47.1637C47.6256 47.8327 48 47.4582 48 46.9964V42.8152C48 42.3534 47.6256 41.979 47.1637 41.979ZM42.4807 39.972V41.979H34.1186V39.972H42.4807ZM29.0173 38.2995H28.0733V22.4112H29.0173C29.4791 22.4112 29.8536 22.0368 29.8536 21.5749V18.7318H32.446V21.5749C32.446 22.0368 32.8204 22.4112 33.2823 22.4112H34.2263V38.2995H33.2823C32.8204 38.2995 32.446 38.6739 32.446 39.1358V41.979H29.8536V39.1358C29.8536 38.6739 29.4791 38.2995 29.0173 38.2995ZM14.7177 38.2995H13.7737V22.4112H14.7177C15.1796 22.4112 15.554 22.0368 15.554 21.5749V18.7318H18.1464V21.5749C18.1464 22.0368 18.5209 22.4112 18.9827 22.4112H19.9267V38.2995H18.9827C18.5209 38.2995 18.1464 38.6739 18.1464 39.1358V41.979H15.554V39.1358C15.554 38.6739 15.1796 38.2995 14.7177 38.2995ZM19.8189 20.7387V18.7318H28.1811V20.7387H19.8189ZM26.4009 22.4112V38.2995H21.5991V22.4112H26.4009ZM19.8189 39.972H28.1811V41.979H19.8189V39.972ZM35.8989 38.2995V22.4112H40.7006V38.2995H35.8989ZM42.4807 20.7387H34.1186V18.7318H42.4807V20.7387ZM3.34509 17.0593V14.5507H6.2135C6.67535 14.5507 7.04977 14.1763 7.04977 13.7144C7.04977 13.2526 6.67535 12.8782 6.2135 12.8782H1.67254V10.1165L24 1.8949L46.3275 10.1165V12.8782H11.1592C10.6974 12.8782 10.3229 13.2526 10.3229 13.7144C10.3229 14.1763 10.6974 14.5507 11.1592 14.5507H44.6549V17.0593H3.34509ZM5.51928 20.7387V18.7318H13.8814V20.7387H5.51928ZM12.1011 22.4112V38.2995H7.29943V22.4112H12.1011ZM5.51928 39.972H13.8814V41.979H5.51928V39.972ZM46.3275 46.1601H1.67254V43.6515H46.3275V46.1601Z" fill="#212B36"/>
<path d="M7.87815 14.0337C7.85696 13.9836 7.89933 14.085 7.87815 14.0337V14.0337Z" fill="#212B36"/>
<path d="M8.05876 13.1227C7.82606 13.3625 7.74691 13.7227 7.87815 14.0337C7.92018 14.1355 7.98216 14.2269 8.05876 14.3058C8.38837 14.6257 8.91232 14.6261 9.24181 14.3058C9.56171 13.9768 9.56171 13.4518 9.24181 13.1227C8.91265 12.8027 8.38803 12.8032 8.05876 13.1227Z" fill="#212B36"/>
</svg>
