<svg width="49" height="48" viewBox="0 0 49 48" fill="none" xmlns="http://www.w3.org/2000/svg">
<path d="M41.9145 35.2001C42.1685 33.8513 42.162 32.4664 41.8953 31.12L45.5593 22.2776C45.5596 22.2718 45.5596 22.2659 45.5593 22.26C46.153 20.6345 47.0231 19.1237 48.1313 17.7944C48.407 17.5032 48.5179 17.0929 48.4265 16.7024L46.9241 10.2144C46.9062 10.1466 46.8793 10.0815 46.8441 10.0208C46.8377 10.0088 46.8353 9.99445 46.8289 9.98325C46.8225 9.97205 46.7945 9.94485 46.7785 9.92405C46.7457 9.87611 46.7079 9.83186 46.6657 9.79205C46.6378 9.77247 46.6087 9.75483 46.5785 9.73925C46.5394 9.71053 46.498 9.68537 46.4545 9.66405C46.3941 9.64127 46.3313 9.62596 46.2673 9.61845C46.2489 9.61845 46.2329 9.60645 46.2145 9.60485C46.0611 9.59463 45.9081 9.62879 45.7737 9.70325C45.7617 9.70965 45.7473 9.71205 45.7353 9.71925H45.7273L40.0785 13.2448C39.7364 13.4567 39.524 13.8266 39.5137 14.2288C39.3567 15.9562 38.9017 17.6433 38.1689 19.2152V19.224L36.3377 23.6504C35.4389 23.1727 34.4767 22.8252 33.4801 22.6184C33.8573 20.0144 33.996 17.3813 33.8945 14.752C35.3837 12.9653 36.0984 10.6582 35.8801 8.34245C35.3801 3.68005 31.1665 0.312846 30.9865 0.171246C30.7159 -0.0418001 30.3394 -0.0578225 30.0517 0.13147C29.7641 0.320762 29.6298 0.672892 29.7185 1.00565C30.1305 2.55285 29.7737 4.18565 26.7305 7.54325C25.3632 8.86348 24.9298 10.8793 25.6337 12.6448C25.9028 13.3201 26.2884 13.9429 26.7729 14.4848C26.5793 15.7208 26.4273 16.8912 26.3225 18.0312C26.142 19.9168 26.0955 21.8127 26.1833 23.7048C25.4696 24.0918 24.8014 24.5573 24.1913 25.0928L20.3113 8.50085C20.3113 8.48405 20.2953 8.47205 20.2905 8.45685C20.2774 8.4035 20.2587 8.35173 20.2345 8.30245L16.2713 0.983246C15.8746 0.250665 15.0367 -0.125787 14.2256 0.0641823C13.4145 0.254152 12.8309 0.963529 12.8009 1.79605L12.5001 10.112C12.5002 10.1721 12.507 10.2319 12.5201 10.2904C12.5201 10.3032 12.5201 10.3144 12.5201 10.3264L16.4785 27.22C15.854 27.2476 15.2341 27.3401 14.6289 27.496L10.2745 16.98C9.92529 16.1762 8.99921 15.7969 8.18646 16.1248L1.53126 18.88C0.71675 19.22 0.329673 20.154 0.664856 20.9704L6.57046 35.2169C3.10926 35.3986 0.422594 38.3041 0.51193 41.7689C0.601266 45.2337 3.4341 47.9969 6.90006 48H42.1001C44.3866 47.9669 46.4817 46.7164 47.5962 44.7197C48.7108 42.7229 48.6754 40.2833 47.5034 38.3197C46.3315 36.3561 44.201 35.1669 41.9145 35.2001ZM41.0993 14.4928L44.4529 12.4L43.2657 15.2672C43.0964 15.6755 43.2902 16.1436 43.6985 16.3128C44.1067 16.4821 44.5748 16.2883 44.7441 15.88L45.9313 13.0128L46.8201 16.8632C45.8691 18.0234 45.088 19.3128 44.5001 20.6928C43.666 21.0795 42.7082 21.0995 41.8587 20.7482C41.0092 20.3968 40.3454 19.7061 40.0281 18.8432C40.5899 17.4513 40.9506 15.9865 41.0993 14.4928ZM39.2593 20.7736C39.7885 21.4207 40.4753 21.9207 41.2537 22.2256C41.8723 22.4918 42.5378 22.6321 43.2113 22.6384C43.3733 22.6379 43.5352 22.628 43.6961 22.6088L41.1433 28.7688C40.3789 27.0835 39.1964 25.6215 37.7081 24.5216L39.2593 20.7736ZM28.2993 15.06L32.3185 15.3056C32.3433 16.0528 32.3345 16.8256 32.3097 17.6104C30.9707 17.7061 29.6251 17.6411 28.3017 17.4168C28.2009 17.4024 28.1025 17.3912 28.0025 17.3776C28.0825 16.624 28.1801 15.8608 28.2977 15.06H28.2993ZM27.9177 8.61765C30.0417 6.27445 31.1425 4.47205 31.3985 2.77765C32.9252 4.34848 33.933 6.35009 34.2857 8.51205C34.4537 10.3941 33.8717 12.2664 32.6665 13.7216C31.0862 13.6256 29.5233 13.5296 27.9777 13.4336C27.3135 12.8128 26.9315 11.9478 26.9199 11.0388C26.9082 10.1297 27.268 9.25528 27.9161 8.61765H27.9177ZM27.8569 18.972L28.0889 19.0024C29.1197 19.1619 30.1603 19.2503 31.2033 19.2672C31.5345 19.2672 31.8833 19.2408 32.2329 19.2136C32.1601 20.2432 32.0409 21.3184 31.8897 22.4296C31.6921 22.4192 31.4985 22.4 31.3001 22.4C30.0922 22.4022 28.8935 22.6086 27.7545 23.0104C27.7176 21.6635 27.7512 20.3155 27.8553 18.972H27.8569ZM21.6689 28.3272L19.3801 18.5776C19.2731 18.1547 18.8469 17.8954 18.4221 17.9949C17.9973 18.0944 17.7305 18.5159 17.8225 18.9424L19.8793 27.7176C19.3138 27.5154 18.7296 27.3699 18.1353 27.2832L14.6241 12.2992C15.1159 12.5232 15.65 12.6394 16.1905 12.64C16.2409 12.64 16.2945 12.6328 16.3457 12.6304L16.9113 15.0456C16.9722 15.3283 17.181 15.5561 17.4573 15.6414C17.7336 15.7268 18.0345 15.6563 18.2442 15.4572C18.4539 15.258 18.5398 14.9612 18.4689 14.6808L17.9025 12.264C18.4452 12.0238 18.924 11.6593 19.3001 11.2L22.8697 26.4632C22.4061 27.0415 22.0037 27.6661 21.6689 28.3272ZM16.7809 10.9672C15.7577 11.1657 14.7131 10.7474 14.1097 9.89765L14.2113 7.08005C14.4896 7.13204 14.7721 7.15881 15.0553 7.16005C15.3288 7.16119 15.6015 7.13086 15.8681 7.06965C16.4077 6.92791 16.9126 6.67686 17.3513 6.33205L18.6985 8.81845C18.5379 9.85006 17.7874 10.6917 16.7809 10.9688V10.9672ZM14.5897 1.62165C14.6986 1.59641 14.8111 1.64675 14.8649 1.74485L16.5801 4.91685C16.2706 5.19676 15.9012 5.40202 15.5001 5.51685C15.0901 5.5921 14.6683 5.57212 14.2673 5.45845L14.3977 1.85365C14.402 1.74186 14.4807 1.64682 14.5897 1.62165ZM8.80006 17.6L9.41126 19.0768L6.45126 20.3024C6.10034 20.4498 5.90183 20.824 5.97659 21.1972C6.05134 21.5704 6.37866 21.8392 6.75926 21.84C6.86436 21.8398 6.96843 21.8192 7.06566 21.7792L10.0257 20.5528L10.6377 22.0312L9.15686 22.6448C8.80393 22.7909 8.60348 23.1661 8.67824 23.5406C8.753 23.9152 9.08211 24.1847 9.46406 24.184C9.56889 24.1837 9.67266 24.163 9.76966 24.1232L11.2505 23.5096L11.8625 24.988L8.90006 26.216C8.54713 26.3621 8.34668 26.7373 8.42144 27.1118C8.4962 27.4864 8.82531 27.7559 9.20726 27.7552C9.3121 27.755 9.41589 27.7343 9.51286 27.6944L12.4729 26.4688L13.1201 28.0312C10.5132 29.2211 8.60157 31.5478 7.94006 34.336L2.14166 20.3552L8.80006 17.6ZM42.1001 46.4H6.90006C4.24909 46.4 2.10006 44.251 2.10006 41.6C2.10006 38.9491 4.24909 36.8 6.90006 36.8C7.3636 36.7985 7.82483 36.8654 8.26886 36.9984C8.50873 37.0709 8.7687 37.0268 8.97123 36.8792C9.17377 36.7317 9.29548 36.4978 9.30006 36.2472C9.35696 33.3961 11.0052 30.8168 13.5686 29.5673C16.132 28.3178 19.1791 28.6085 21.4601 30.32C21.6616 30.4701 21.922 30.5167 22.163 30.4459C22.4041 30.3751 22.598 30.1952 22.6865 29.96C24.2494 25.7946 28.5692 23.3444 32.9464 24.1405C37.3236 24.9367 40.5039 28.751 40.5001 33.2C40.5016 34.115 40.3654 35.0249 40.0961 35.8992C40.012 36.1713 40.0788 36.4675 40.2716 36.6771C40.4643 36.8866 40.754 36.978 41.0321 36.9168C41.3828 36.8396 41.7409 36.8005 42.1001 36.8C44.751 36.8 46.9001 38.9491 46.9001 41.6C46.9001 44.251 44.751 46.4 42.1001 46.4Z" fill="#212B36"/>
<path d="M31.448 12.5601C31.6991 12.5611 31.9361 12.444 32.088 12.2441C33.0868 10.8923 33.4727 9.18357 33.152 7.53371C33.0838 7.25161 32.8681 7.02859 32.5884 6.95094C32.3088 6.8733 32.009 6.95321 31.8051 7.15975C31.6012 7.3663 31.5252 7.66708 31.6064 7.94571C31.7979 9.11806 31.5121 10.3183 30.8128 11.2785C30.631 11.5209 30.6017 11.8453 30.7373 12.1163C30.8728 12.3873 31.1498 12.5585 31.4528 12.5585L31.448 12.5601Z" fill="#212B36"/>
<path d="M30.3961 36.8002C29.8012 36.802 29.2145 36.9388 28.6801 37.2002C27.241 35.2309 24.5538 34.654 22.4332 35.8591C20.3126 37.0641 19.4329 39.6679 20.3881 41.9122C20.5138 42.2072 20.8034 42.3986 21.1241 42.3986C21.2319 42.3988 21.3386 42.3771 21.4377 42.3346C21.6329 42.2514 21.7871 42.0941 21.8663 41.8973C21.9455 41.7004 21.9433 41.4802 21.8601 41.285C21.6859 40.879 21.5961 40.4419 21.5961 40.0002C21.5961 38.2329 23.0288 36.8002 24.7961 36.8002C26.0373 36.794 27.1678 37.5132 27.6881 38.6402C27.7054 38.6662 27.7241 38.6913 27.7441 38.7154C27.7567 38.7428 27.7709 38.7695 27.7865 38.7954C27.8009 38.813 27.8217 38.821 27.8377 38.8378C27.8752 38.8767 27.9168 38.9116 27.9617 38.9418C28.0016 38.9725 28.0445 38.9993 28.0897 39.0218C28.1362 39.0413 28.1844 39.0563 28.2337 39.0666C28.2829 39.0795 28.3333 39.0873 28.3841 39.0898C28.488 39.0889 28.5912 39.0717 28.6897 39.0386C28.711 39.0346 28.7321 39.0296 28.7529 39.0234C28.7788 39.0066 28.8037 38.9882 28.8273 38.9682C28.8561 38.9554 28.8841 38.941 28.9113 38.925C29.3315 38.5851 29.8557 38.3999 30.3961 38.4002C31.3315 38.4017 32.1808 38.9466 32.5721 39.7962C32.7554 40.1982 33.23 40.3755 33.6321 40.1922C34.0342 40.0088 34.2114 39.5342 34.0281 39.1322C33.3767 37.7123 31.9583 36.8016 30.3961 36.8002Z" fill="#212B36"/>
<path d="M14.6473 31.2408C14.5265 31.28 11.7001 32.2576 11.7001 35.2C11.7001 35.6419 12.0583 36 12.5001 36C12.9419 36 13.3001 35.6419 13.3001 35.2C13.3654 34.084 14.0997 33.1186 15.1577 32.7576C15.5774 32.6167 15.8034 32.1622 15.6625 31.7424C15.5216 31.3227 15.067 31.0967 14.6473 31.2376V31.2408Z" fill="#212B36"/>
<path d="M25.9057 30.3761C25.9692 30.3923 26.0345 30.4003 26.1001 30.4001C26.4667 30.3998 26.7862 30.1502 26.8753 29.7945C27.2435 28.3007 28.566 27.238 30.1041 27.2001C30.5459 27.199 30.9032 26.84 30.9021 26.3981C30.901 25.9563 30.5419 25.599 30.1001 25.6001C27.8263 25.6303 25.8613 27.1961 25.3241 29.4057C25.2167 29.8343 25.4771 30.2688 25.9057 30.3761Z" fill="#212B36"/>
</svg>
