<svg width="48" height="44" viewBox="0 0 48 44" fill="none" xmlns="http://www.w3.org/2000/svg">
<path d="M18.9384 31.6377C18.7571 31.6377 18.5744 31.5753 18.4254 31.4484L13.2975 27.082C13.1206 26.9312 13.0189 26.7109 13.0189 26.4783C13.0189 26.2462 13.121 26.0259 13.2975 25.8751L18.4254 21.5087C18.7584 21.2248 19.2586 21.265 19.5425 21.598C19.8259 21.9314 19.7861 22.4316 19.4527 22.7151L15.0336 26.4783L19.4527 30.2416C19.7861 30.5255 19.8259 31.0256 19.5425 31.3586C19.3855 31.543 19.1626 31.6377 18.9384 31.6377Z" fill="#212B36"/>
<path d="M29.0616 31.6377C28.8374 31.6377 28.6145 31.543 28.458 31.3586C28.1741 31.0256 28.2143 30.5255 28.5473 30.2416L32.9664 26.4783L28.5473 22.7151C28.2143 22.4316 28.1741 21.9314 28.458 21.598C28.7414 21.265 29.242 21.2248 29.5746 21.5087L34.7025 25.8751C34.8794 26.0259 34.9811 26.2462 34.9811 26.4783C34.9811 26.7109 34.8794 26.9312 34.7025 27.082L29.5746 31.4484C29.4255 31.5753 29.2429 31.6377 29.0616 31.6377Z" fill="#212B36"/>
<path d="M22.1847 34.9128C22.1303 34.9128 22.0755 34.9071 22.0202 34.8956C21.5921 34.8054 21.3179 34.3848 21.4082 33.9568L24.6041 18.783C24.6943 18.3549 25.1144 18.0807 25.5429 18.171C25.971 18.2612 26.2451 18.6813 26.1549 19.1098L22.959 34.2836C22.8803 34.6568 22.5513 34.9128 22.1847 34.9128Z" fill="#212B36"/>
<path d="M42.6792 43.1796H5.32076C2.38709 43.1796 0 40.7929 0 37.8588V6.15096C0 3.21729 2.38709 0.8302 5.32076 0.8302H42.6792C45.6129 0.8302 48 3.21729 48 6.15096V37.8588C48 40.7929 45.6129 43.1796 42.6792 43.1796ZM5.32076 2.41511C3.26091 2.41511 1.58491 4.09111 1.58491 6.15096V37.8588C1.58491 39.9186 3.26091 41.5946 5.32076 41.5946H42.6792C44.7391 41.5946 46.4151 39.9186 46.4151 37.8588V6.15096C46.4151 4.09111 44.7391 2.41511 42.6792 2.41511H5.32076Z" fill="#212B36"/>
<path d="M47.2076 13.5196H0.792453C0.354658 13.5196 0 13.165 0 12.7272C0 12.2898 0.354658 11.9347 0.792453 11.9347H47.2076C47.6453 11.9347 48 12.2898 48 12.7272C48 13.165 47.6453 13.5196 47.2076 13.5196Z" fill="#212B36"/>
<path d="M13.5398 9.72761C12.1574 9.72761 11.032 8.60216 11.032 7.21979C11.032 5.83698 12.1574 4.71198 13.5398 4.71198C14.9226 4.71198 16.0476 5.83698 16.0476 7.21979C16.0476 8.60216 14.9226 9.72761 13.5398 9.72761ZM13.5398 6.29689C13.0312 6.29689 12.6169 6.7108 12.6169 7.21979C12.6169 7.72879 13.0312 8.1427 13.5398 8.1427C14.0488 8.1427 14.4627 7.72879 14.4627 7.21979C14.4627 6.7108 14.0488 6.29689 13.5398 6.29689Z" fill="#212B36"/>
<path d="M5.83461 9.70328C4.4518 9.70328 3.3268 8.57828 3.3268 7.19547C3.3268 5.81266 4.4518 4.68766 5.83461 4.68766C7.21742 4.68766 8.34242 5.81266 8.34242 7.19547C8.34242 8.57828 7.21742 9.70328 5.83461 9.70328ZM5.83461 6.27256C5.32606 6.27256 4.91171 6.68692 4.91171 7.19547C4.91171 7.70446 5.32606 8.11838 5.83461 8.11838C6.3436 8.11838 6.75752 7.70446 6.75752 7.19547C6.75752 6.68692 6.3436 6.27256 5.83461 6.27256Z" fill="#212B36"/>
<path d="M21.245 9.75149C19.8626 9.75149 18.7376 8.62649 18.7376 7.24367C18.7376 5.8613 19.8626 4.7363 21.245 4.7363C22.6278 4.7363 23.7528 5.8613 23.7528 7.24367C23.7528 8.62649 22.6278 9.75149 21.245 9.75149ZM21.245 6.32077C20.7364 6.32077 20.3225 6.73468 20.3225 7.24367C20.3225 7.75267 20.7364 8.16658 21.245 8.16658C21.754 8.16658 22.1679 7.75267 22.1679 7.24367C22.1679 6.73468 21.754 6.32077 21.245 6.32077Z" fill="#212B36"/>
</svg>
