<svg width="48" height="46" viewBox="0 0 48 46" fill="none" xmlns="http://www.w3.org/2000/svg">
<path d="M47.9419 25.7577C47.5872 23.3003 45.6567 21.3699 43.1993 21.0152V19.5608C43.1993 15.548 40.149 12.2809 36.3995 12.2809C32.7579 12.2809 29.7092 15.4488 29.5996 19.3432H29.646L29.5996 19.3512V35.1166C29.5996 40.1565 25.8316 44.2492 21.1997 44.2492C16.5678 44.2492 12.7998 40.1509 12.7998 35.1166V33.751C13.9598 33.751 15.1998 32.9102 15.1998 30.551V28.539C20.3341 27.2263 23.9996 22.8175 23.9996 17.8192V16.1512H22.3997L22.3661 5.73938C22.3545 3.81211 20.9715 2.16654 19.0749 1.82344C18.6658 0.570161 17.3181 -0.114229 16.0648 0.294965C14.8115 0.704059 14.1271 2.05174 14.5363 3.30512C14.9454 4.5584 16.2931 5.24279 17.5464 4.8336C18.2175 4.6145 18.7572 4.10961 19.0205 3.45462C20.0454 3.74621 20.7554 4.6786 20.7637 5.74419L20.7997 16.1512H19.1997V17.8424C19.1359 20.6251 17.2703 23.0432 14.595 23.8111C13.1635 24.2653 11.6265 24.2653 10.195 23.8111C7.52279 23.0406 5.66142 20.6229 5.59992 17.8424V16.1512H3.19995V5.75139C3.20455 4.6701 3.93174 3.72531 4.97592 3.44422C5.46282 4.6837 6.8623 5.29369 8.10178 4.8068C9.34126 4.31991 9.95125 2.92033 9.46436 1.68094C8.97746 0.441563 7.57789 -0.168528 6.3385 0.318365C5.66691 0.582261 5.14872 1.13295 4.92633 1.81944C3.00905 2.14704 1.60528 3.80631 1.59998 5.75139V16.1512H0V17.8152C0 22.8191 3.66795 27.2295 8.79987 28.539V30.551C8.79987 32.9102 10.0398 33.751 11.1998 33.751V35.1166C11.1998 41.0365 15.6854 45.8492 21.1997 45.8492C26.714 45.8492 31.1995 41.0309 31.1995 35.1166V19.3896C31.2795 16.3536 33.6139 13.8833 36.3995 13.8833C39.2666 13.8833 41.5994 16.4304 41.5994 19.5632V21.0152C38.5383 21.457 36.4151 24.2966 36.8568 27.3577C37.2986 30.4187 40.1383 32.542 43.1993 32.1002C46.2604 31.6584 48.3837 28.8186 47.9419 25.7577ZM16.7997 3.35142C16.358 3.35142 15.9998 2.99323 15.9998 2.55143C15.9998 2.10964 16.358 1.75144 16.7997 1.75144C17.2415 1.75144 17.5997 2.10964 17.5997 2.55143C17.5997 2.99323 17.2415 3.35142 16.7997 3.35142ZM7.19989 1.75144C7.64169 1.75144 7.99988 2.10964 7.99988 2.55143C7.99988 2.99323 7.64169 3.35142 7.19989 3.35142C6.7581 3.35142 6.3999 2.99323 6.3999 2.55143C6.3999 2.10964 6.7581 1.75144 7.19989 1.75144ZM1.59998 17.8152V17.7512H3.99994V17.8424C4.05994 21.3195 6.3732 24.3539 9.71025 25.3327C11.4589 25.8864 13.3359 25.8864 15.0846 25.3327C18.4232 24.3552 20.7386 21.3207 20.7997 17.8424V17.7512H22.3997V17.8152C22.3997 22.2655 18.9693 26.1815 14.2398 27.1287C13.1292 27.3511 11.9916 27.4069 10.8646 27.2943C10.4936 27.2583 10.1248 27.2025 9.75985 27.1271C5.03032 26.1815 1.59998 22.2655 1.59998 17.8152ZM11.1998 32.151C10.4798 32.151 10.3998 31.031 10.3998 30.551V28.8534C10.4638 28.8614 10.5294 28.8646 10.5942 28.871C10.6742 28.8798 10.7542 28.8862 10.8342 28.8934C11.2126 28.927 11.5942 28.9494 11.979 28.9502H12.019C12.403 28.9502 12.7838 28.927 13.1598 28.8934C13.2398 28.8862 13.3246 28.8798 13.407 28.871C13.4702 28.8638 13.5358 28.8614 13.599 28.8534V30.551C13.599 31.031 13.519 32.151 12.799 32.151H11.1998ZM42.3994 30.551C40.1903 30.551 38.3994 28.7601 38.3994 26.5511C38.3994 24.342 40.1903 22.5511 42.3994 22.5511C44.6084 22.5511 46.3993 24.342 46.3993 26.5511C46.3967 28.7591 44.6073 30.5484 42.3994 30.551Z" fill="#212B36"/>
<path d="M42.3994 24.151C41.0739 24.151 39.9994 25.2255 39.9994 26.551C39.9994 27.8765 41.0739 28.951 42.3994 28.951C43.7249 28.951 44.7993 27.8765 44.7993 26.551C44.7993 25.2255 43.7249 24.151 42.3994 24.151ZM42.3994 27.351C41.9576 27.351 41.5994 26.9928 41.5994 26.551C41.5994 26.1092 41.9576 25.751 42.3994 25.751C42.8412 25.751 43.1994 26.1092 43.1994 26.551C43.1994 26.9928 42.8412 27.351 42.3994 27.351Z" fill="#212B36"/>
</svg>
