<svg width="46" height="47" viewBox="0 0 46 47" fill="none" xmlns="http://www.w3.org/2000/svg">
<path d="M26.75 40.5H25.25V33.15C25.25 32.9511 25.171 32.7603 25.0303 32.6197C24.8897 32.479 24.6989 32.4 24.5 32.4C24.3011 32.4 24.1103 32.479 23.9697 32.6197C23.829 32.7603 23.75 32.9511 23.75 33.15V40.5H4.25V25.5H10.49C10.6889 25.5 10.8797 25.421 11.0203 25.2803C11.161 25.1397 11.24 24.9489 11.24 24.75C11.24 24.5511 11.161 24.3603 11.0203 24.2197C10.8797 24.079 10.6889 24 10.49 24H3.5C3.30109 24 3.11032 24.079 2.96967 24.2197C2.82902 24.3603 2.75 24.5511 2.75 24.75V40.5H1.25C1.05109 40.5 0.860322 40.579 0.71967 40.7197C0.579018 40.8603 0.5 41.0511 0.5 41.25V42.75C0.5 43.7446 0.895088 44.6984 1.59835 45.4016C2.30161 46.1049 3.25544 46.5 4.25 46.5H23.75C24.7446 46.5 25.6984 46.1049 26.4016 45.4016C27.1049 44.6984 27.5 43.7446 27.5 42.75V41.25C27.5 41.0511 27.421 40.8603 27.2803 40.7197C27.1397 40.579 26.9489 40.5 26.75 40.5ZM26 42.75C26 43.3467 25.7629 43.919 25.341 44.341C24.919 44.7629 24.3467 45 23.75 45H22.25V44.25C22.25 44.0511 22.171 43.8603 22.0303 43.7197C21.8897 43.579 21.6989 43.5 21.5 43.5C21.3011 43.5 21.1103 43.579 20.9697 43.7197C20.829 43.8603 20.75 44.0511 20.75 44.25V45H7.25V44.25C7.25 44.0511 7.17098 43.8603 7.03033 43.7197C6.88968 43.579 6.69891 43.5 6.5 43.5C6.30109 43.5 6.11032 43.579 5.96967 43.7197C5.82902 43.8603 5.75 44.0511 5.75 44.25V45H4.25C3.65326 45 3.08097 44.7629 2.65901 44.341C2.23705 43.919 2 43.3467 2 42.75V42H26V42.75Z" fill="#212B36"/>
<path d="M39.5 5.99999H41C41.1989 5.99999 41.3897 5.92098 41.5303 5.78032C41.671 5.63967 41.75 5.44891 41.75 5.24999C41.75 5.05108 41.671 4.86032 41.5303 4.71966C41.3897 4.57901 41.1989 4.49999 41 4.49999H39.5C38.9033 4.49999 38.331 4.73705 37.909 5.159C37.4871 5.58096 37.25 6.15326 37.25 6.74999V7.49999H36.5C36.3011 7.49999 36.1103 7.57901 35.9697 7.71966C35.829 7.86032 35.75 8.05108 35.75 8.24999C35.75 8.44891 35.829 8.63967 35.9697 8.78032C36.1103 8.92098 36.3011 8.99999 36.5 8.99999H37.25V11.25C37.25 11.4489 37.329 11.6397 37.4697 11.7803C37.6103 11.921 37.8011 12 38 12C38.1989 12 38.3897 11.921 38.5303 11.7803C38.671 11.6397 38.75 11.4489 38.75 11.25V8.99999H39.5C39.6989 8.99999 39.8897 8.92098 40.0303 8.78032C40.171 8.63967 40.25 8.44891 40.25 8.24999C40.25 8.05108 40.171 7.86032 40.0303 7.71966C39.8897 7.57901 39.6989 7.49999 39.5 7.49999H38.75V6.74999C38.75 6.55108 38.829 6.36032 38.9697 6.21966C39.1103 6.07901 39.3011 5.99999 39.5 5.99999Z" fill="#212B36"/>
<path d="M43.25 1.49999H34.25C33.6533 1.49999 33.081 1.73705 32.659 2.159C32.2371 2.58096 32 3.15326 32 3.74999V5.24999C32 5.44891 32.079 5.63967 32.2197 5.78032C32.3603 5.92098 32.5511 5.99999 32.75 5.99999C32.9489 5.99999 33.1397 5.92098 33.2803 5.78032C33.421 5.63967 33.5 5.44891 33.5 5.24999V3.74999C33.5 3.55108 33.579 3.36032 33.7197 3.21966C33.8603 3.07901 34.0511 2.99999 34.25 2.99999H43.25C43.4489 2.99999 43.6397 3.07901 43.7803 3.21966C43.921 3.36032 44 3.55108 44 3.74999V12.75C44 12.9489 43.921 13.1397 43.7803 13.2803C43.6397 13.421 43.4489 13.5 43.25 13.5H34.25C34.0511 13.5 33.8603 13.421 33.7197 13.2803C33.579 13.1397 33.5 12.9489 33.5 12.75V8.24999C33.5 8.05108 33.421 7.86032 33.2803 7.71966C33.1397 7.57901 32.9489 7.49999 32.75 7.49999C32.5511 7.49999 32.3603 7.57901 32.2197 7.71966C32.079 7.86032 32 8.05108 32 8.24999V12.75C32 13.3467 32.2371 13.919 32.659 14.341C33.081 14.7629 33.6533 15 34.25 15H43.25C43.8467 15 44.419 14.7629 44.841 14.341C45.2629 13.919 45.5 13.3467 45.5 12.75V3.74999C45.5 3.15326 45.2629 2.58096 44.841 2.159C44.419 1.73705 43.8467 1.49999 43.25 1.49999Z" fill="#212B36"/>
<path d="M35.75 31.5C35.75 32.0933 35.9259 32.6734 36.2556 33.1667C36.5852 33.6601 37.0538 34.0446 37.602 34.2716C38.1501 34.4987 38.7533 34.5581 39.3353 34.4424C39.9172 34.3266 40.4518 34.0409 40.8713 33.6213C41.2909 33.2018 41.5766 32.6672 41.6924 32.0853C41.8081 31.5033 41.7487 30.9001 41.5216 30.3519C41.2946 29.8038 40.9101 29.3352 40.4167 29.0056C39.9234 28.6759 39.3433 28.5 38.75 28.5C37.9544 28.5 37.1913 28.8161 36.6287 29.3787C36.0661 29.9413 35.75 30.7043 35.75 31.5ZM40.25 31.5C40.25 31.7967 40.162 32.0867 39.9972 32.3334C39.8324 32.58 39.5981 32.7723 39.324 32.8858C39.0499 32.9994 38.7483 33.0291 38.4574 32.9712C38.1664 32.9133 37.8991 32.7704 37.6893 32.5607C37.4796 32.3509 37.3367 32.0836 37.2788 31.7926C37.2209 31.5017 37.2507 31.2001 37.3642 30.926C37.4777 30.6519 37.67 30.4176 37.9166 30.2528C38.1633 30.088 38.4533 30 38.75 30C39.1478 30 39.5294 30.158 39.8107 30.4393C40.092 30.7206 40.25 31.1022 40.25 31.5Z" fill="#212B36"/>
<path d="M43.25 24.75H34.25C33.6533 24.75 33.081 24.987 32.659 25.409C32.2371 25.831 32 26.4033 32 27V36C32 36.5967 32.2371 37.169 32.659 37.591C33.081 38.0129 33.6533 38.25 34.25 38.25H43.25C43.8467 38.25 44.419 38.0129 44.841 37.591C45.2629 37.169 45.5 36.5967 45.5 36V34.5C45.5 34.3011 45.421 34.1103 45.2803 33.9697C45.1397 33.829 44.9489 33.75 44.75 33.75C44.5511 33.75 44.3603 33.829 44.2197 33.9697C44.079 34.1103 44 34.3011 44 34.5V36C44 36.1989 43.921 36.3897 43.7803 36.5303C43.6397 36.671 43.4489 36.75 43.25 36.75H34.25C34.0511 36.75 33.8603 36.671 33.7197 36.5303C33.579 36.3897 33.5 36.1989 33.5 36V27C33.5 26.8011 33.579 26.6103 33.7197 26.4697C33.8603 26.329 34.0511 26.25 34.25 26.25H43.25C43.4489 26.25 43.6397 26.329 43.7803 26.4697C43.921 26.6103 44 26.8011 44 27V31.5C44 31.6989 44.079 31.8897 44.2197 32.0303C44.3603 32.171 44.5511 32.25 44.75 32.25C44.9489 32.25 45.1397 32.171 45.2803 32.0303C45.421 31.8897 45.5 31.6989 45.5 31.5V27C45.5 26.4033 45.2629 25.831 44.841 25.409C44.419 24.987 43.8467 24.75 43.25 24.75Z" fill="#212B36"/>
<path d="M17.3525 10.388C17.4718 10.462 17.6096 10.501 17.75 10.5005C17.8674 10.4998 17.983 10.4715 18.0875 10.418L22.5875 8.168C22.7103 8.10506 22.8134 8.00944 22.8854 7.89167C22.9574 7.77389 22.9955 7.63854 22.9955 7.5005C22.9955 7.36247 22.9574 7.22711 22.8854 7.10933C22.8134 6.99156 22.7103 6.89594 22.5875 6.833L18.0875 4.583C17.9733 4.52547 17.8463 4.49808 17.7186 4.50343C17.5909 4.50878 17.4666 4.54669 17.3577 4.61357C17.2487 4.68045 17.1586 4.77407 17.096 4.88555C17.0334 4.99702 17.0004 5.12265 17 5.2505V9.7505C16.9997 9.87796 17.032 10.0034 17.0936 10.1149C17.1553 10.2265 17.2444 10.3204 17.3525 10.388ZM18.5 6.4655L20.57 7.5005L18.5 8.5355V6.4655Z" fill="#212B36"/>
<path d="M19.25 14.25C20.585 14.25 21.8901 13.8541 23.0001 13.1124C24.1101 12.3707 24.9753 11.3165 25.4862 10.0831C25.9971 8.84968 26.1308 7.49248 25.8703 6.18311C25.6099 4.87374 24.967 3.67101 24.023 2.727C23.079 1.783 21.8762 1.14012 20.5669 0.879672C19.2575 0.619222 17.9003 0.752894 16.6669 1.26379C15.4335 1.77468 14.3793 2.63984 13.6376 3.74987C12.8959 4.85991 12.5 6.16495 12.5 7.49997C12.5 9.29018 13.2112 11.0071 14.477 12.2729C15.7429 13.5388 17.4598 14.25 19.25 14.25ZM19.25 2.24997C20.2884 2.24997 21.3034 2.55788 22.1667 3.13476C23.0301 3.71163 23.703 4.53157 24.1004 5.49088C24.4977 6.4502 24.6017 7.5058 24.3991 8.5242C24.1966 9.5426 23.6965 10.4781 22.9623 11.2123C22.2281 11.9465 21.2926 12.4465 20.2742 12.6491C19.2558 12.8517 18.2002 12.7477 17.2409 12.3503C16.2816 11.953 15.4617 11.2801 14.8848 10.4167C14.3079 9.55336 14 8.53832 14 7.49997C14 6.10759 14.5531 4.77223 15.5377 3.78766C16.5223 2.8031 17.8576 2.24997 19.25 2.24997Z" fill="#212B36"/>
<path d="M26.75 17.25C26.8664 17.25 26.9812 17.2229 27.0854 17.1708C27.1895 17.1187 27.2801 17.0431 27.35 16.95L29.6 13.95C29.7193 13.7908 29.7706 13.5908 29.7424 13.3939C29.7143 13.197 29.6091 13.0193 29.45 12.9C29.2908 12.7806 29.0908 12.7294 28.8939 12.7575C28.697 12.7856 28.5193 12.8908 28.4 13.05L26.15 16.05C26.0306 16.2091 25.9794 16.4091 26.0075 16.606C26.0356 16.803 26.1408 16.9806 26.3 17.1C26.4298 17.1973 26.5877 17.25 26.75 17.25Z" fill="#212B36"/>
<path d="M28.4 19.95C28.4698 20.0431 28.5604 20.1187 28.6646 20.1708C28.7687 20.2229 28.8835 20.25 29 20.25C29.1623 20.25 29.3202 20.1973 29.45 20.1L32.45 17.85C32.6091 17.7306 32.7143 17.553 32.7424 17.356C32.7706 17.1591 32.7193 16.9591 32.6 16.8C32.4806 16.6408 32.303 16.5356 32.106 16.5075C31.9091 16.4794 31.7091 16.5306 31.55 16.65L28.55 18.9C28.3909 19.0193 28.2856 19.197 28.2575 19.3939C28.2294 19.5908 28.2806 19.7908 28.4 19.95Z" fill="#212B36"/>
<path d="M35.75 21.5995C35.7321 21.5 35.6944 21.4052 35.639 21.3207C35.5837 21.2362 35.5118 21.1638 35.4278 21.1078C35.3437 21.0517 35.2492 21.0133 35.1499 20.9946C35.0506 20.976 34.9486 20.9777 34.85 20.9995L31.1 21.7495C31.0015 21.7593 30.9059 21.7885 30.8187 21.8353C30.7314 21.882 30.6543 21.9456 30.5916 22.0222C30.465 22.1769 30.4051 22.3755 30.425 22.5745C30.4449 22.7734 30.5429 22.9562 30.6977 23.0828C30.8524 23.2094 31.051 23.2694 31.25 23.2495H31.4L35.15 22.4995C35.2494 22.4816 35.3442 22.4439 35.4287 22.3885C35.5132 22.3332 35.5856 22.2613 35.6417 22.1773C35.6977 22.0932 35.7362 21.9987 35.7548 21.8994C35.7734 21.8001 35.7717 21.6981 35.75 21.5995Z" fill="#212B36"/>
<path d="M1.25 21.75H10.25C10.4489 21.75 10.6397 21.671 10.7803 21.5303C10.921 21.3897 11 21.1989 11 21V8.99999C11 8.80108 10.921 8.61032 10.7803 8.46966C10.6397 8.32901 10.4489 8.24999 10.25 8.24999H1.25C1.05109 8.24999 0.860322 8.32901 0.71967 8.46966C0.579018 8.61032 0.5 8.80108 0.5 8.99999V21C0.5 21.1989 0.579018 21.3897 0.71967 21.5303C0.860322 21.671 1.05109 21.75 1.25 21.75ZM2 9.74999H9.5V20.25H2V9.74999Z" fill="#212B36"/>
<path d="M7.25 11.25H5.75C5.55109 11.25 5.36032 11.329 5.21967 11.4697C5.07902 11.6103 5 11.8011 5 12C5 12.1989 5.07902 12.3897 5.21967 12.5303C5.36032 12.671 5.55109 12.75 5.75 12.75H7.25C7.44891 12.75 7.63968 12.671 7.78033 12.5303C7.92098 12.3897 8 12.1989 8 12C8 11.8011 7.92098 11.6103 7.78033 11.4697C7.63968 11.329 7.44891 11.25 7.25 11.25Z" fill="#212B36"/>
<path d="M7.25 14.25H4.25C4.05109 14.25 3.86032 14.329 3.71967 14.4697C3.57902 14.6103 3.5 14.8011 3.5 15C3.5 15.1989 3.57902 15.3897 3.71967 15.5303C3.86032 15.671 4.05109 15.75 4.25 15.75H7.25C7.44891 15.75 7.63968 15.671 7.78033 15.5303C7.92098 15.3897 8 15.1989 8 15C8 14.8011 7.92098 14.6103 7.78033 14.4697C7.63968 14.329 7.44891 14.25 7.25 14.25Z" fill="#212B36"/>
<path d="M7.25 17.25H4.25C4.05109 17.25 3.86032 17.329 3.71967 17.4697C3.57902 17.6103 3.5 17.8011 3.5 18C3.5 18.1989 3.57902 18.3897 3.71967 18.5303C3.86032 18.671 4.05109 18.75 4.25 18.75H7.25C7.44891 18.75 7.63968 18.671 7.78033 18.5303C7.92098 18.3897 8 18.1989 8 18C8 17.8011 7.92098 17.6103 7.78033 17.4697C7.63968 17.329 7.44891 17.25 7.25 17.25Z" fill="#212B36"/>
<path d="M26.0901 21.5251C26.0409 21.4394 25.9752 21.3642 25.8969 21.3039C25.8187 21.2436 25.7293 21.1993 25.6338 21.1735C25.5384 21.1477 25.4389 21.141 25.3409 21.1537C25.2428 21.1664 25.1483 21.1983 25.0626 21.2476C24.9769 21.2968 24.9018 21.3624 24.8415 21.4407C24.7811 21.519 24.7368 21.6084 24.7111 21.7038C24.6853 21.7992 24.6786 21.8988 24.6913 21.9968C24.704 22.0948 24.7359 22.1894 24.7851 22.2751L28.0926 27.9976L16.0926 32.4976C16.0926 32.4976 16.0926 32.4976 16.0401 32.4976H15.9801L12.7326 34.3726C12.5618 34.4713 12.3732 34.5354 12.1776 34.5611C11.9819 34.5869 11.7832 34.5738 11.5926 34.5226C11.2098 34.4191 10.8835 34.1684 10.6851 33.8251L9.18512 31.2301C9.00865 30.8905 8.9686 30.4964 9.07316 30.1283C9.17773 29.7603 9.419 29.4461 9.74762 29.2501L12.3426 27.7501L14.2176 30.9976C14.2837 31.112 14.3788 31.207 14.4934 31.2728C14.608 31.3387 14.738 31.3731 14.8701 31.3726C15.002 31.3731 15.1317 31.3388 15.2462 31.2732C15.3606 31.2076 15.4557 31.1129 15.5219 30.9988C15.5881 30.8847 15.623 30.7552 15.6231 30.6233C15.6232 30.4914 15.5886 30.3618 15.5226 30.2476L13.5876 26.9026L23.0001 19.1401L23.3076 19.6726C23.3569 19.7582 23.4225 19.8334 23.5008 19.8937C23.5791 19.954 23.6685 19.9983 23.7639 20.0241C23.8593 20.0499 23.9589 20.0566 24.0569 20.0439C24.1549 20.0312 24.2494 19.9993 24.3351 19.9501C24.4208 19.9008 24.496 19.8352 24.5563 19.7569C24.6166 19.6786 24.6609 19.5892 24.6867 19.4938C24.7124 19.3984 24.7192 19.2988 24.7065 19.2008C24.6937 19.1028 24.6619 19.0082 24.6126 18.9226L23.8626 17.6251C23.8077 17.5311 23.7329 17.4502 23.6435 17.388C23.5542 17.3259 23.4523 17.2839 23.3451 17.2651C23.2373 17.2447 23.1264 17.2483 23.0201 17.2755C22.9139 17.3027 22.8149 17.3529 22.7301 17.4226L12.2301 26.0776L9.03512 27.9226C8.46175 28.2565 8.01528 28.7711 7.76558 29.3859C7.51587 30.0007 7.47703 30.6809 7.65512 31.3201L6.90512 31.7476C6.51868 31.9695 6.20685 32.3011 6.00914 32.7005C5.81144 33.0998 5.73678 33.5489 5.79462 33.9908C5.85246 34.4326 6.0402 34.8473 6.33404 35.1824C6.62788 35.5174 7.01458 35.7576 7.44512 35.8726C7.63598 35.9231 7.83267 35.9483 8.03012 35.9476C8.42467 35.9459 8.81214 35.8426 9.15512 35.6476L9.90512 35.2201C10.2654 35.5922 10.7185 35.8615 11.2176 36.0001C11.4739 36.0717 11.739 36.1071 12.0051 36.1051C12.5323 36.1063 13.0502 35.9664 13.5051 35.7001L14.1576 35.3251L15.6576 37.9276C15.9557 38.4429 16.446 38.8192 17.0209 38.9738C17.5959 39.1284 18.2087 39.0489 18.7251 38.7526C18.9813 38.6049 19.2059 38.4083 19.386 38.1738C19.5662 37.9393 19.6983 37.6716 19.775 37.386C19.8516 37.1005 19.8712 36.8026 19.8326 36.5094C19.794 36.2163 19.698 35.9336 19.5501 35.6776L18.1851 33.3001L29.4351 29.0776C29.5371 29.0392 29.6296 28.9791 29.706 28.9014C29.7824 28.8236 29.841 28.7302 29.8776 28.6276C29.9141 28.5261 29.9283 28.418 29.9193 28.3106C29.9102 28.2032 29.8781 28.0989 29.8251 28.0051L26.0901 21.5251ZM8.37512 34.3426C8.28971 34.3919 8.1954 34.424 8.09759 34.4368C7.99978 34.4497 7.90039 34.4432 7.80511 34.4176C7.61296 34.3676 7.44844 34.2436 7.34762 34.0726C7.29824 33.9871 7.2662 33.8928 7.25333 33.795C7.24046 33.6972 7.24701 33.5978 7.27261 33.5026C7.29822 33.4068 7.34256 33.317 7.40306 33.2385C7.46357 33.16 7.53904 33.0942 7.62512 33.0451L8.27762 32.6701L9.02761 33.9676L8.37512 34.3426ZM18.2451 36.4426C18.2945 36.528 18.3265 36.6223 18.3394 36.7201C18.3523 36.8179 18.3457 36.9173 18.3201 37.0126C18.2666 37.2032 18.1399 37.365 17.9676 37.4626C17.7963 37.561 17.5931 37.5878 17.4021 37.5372C17.2111 37.4867 17.0478 37.3628 16.9476 37.1926L15.4476 34.59L16.6926 33.8776H16.7526L18.2451 36.4426Z" fill="#212B36"/>
</svg>
