<svg width="75" height="20" viewBox="0 0 75 20" fill="none" xmlns="http://www.w3.org/2000/svg">
<ellipse cx="69.1667" cy="14.1667" rx="4.16669" ry="4.16666" fill="#FA541C"/>
<path d="M49.4445 18.3332H45.3601L38.5289 8.05302V18.3332H34.4445V1.6665H38.5289L45.3601 11.9941V1.6665H49.4445V18.3332Z" fill="#212B36"/>
<path d="M55.6435 4.91912V8.29044H61.1112V11.4243H55.6435V15.0806H61.6668V18.3332H51.6668V1.6665H61.6668V4.91912H55.6435Z" fill="#212B36"/>
<path d="M23.9121 18.3332C22.3843 18.3332 20.98 17.9777 19.6992 17.2669C18.4337 16.556 17.4229 15.567 16.6667 14.2998C15.926 13.0171 15.5556 11.58 15.5556 9.98825C15.5556 8.39653 15.926 6.96708 16.6667 5.69988C17.4229 4.43269 18.4337 3.44366 19.6992 2.7328C20.98 2.02194 22.3843 1.6665 23.9121 1.6665C25.4399 1.6665 26.8365 2.02194 28.1019 2.7328C29.3828 3.44366 30.3859 4.43269 31.1112 5.69988C31.8519 6.96708 32.2223 8.39653 32.2223 9.98825C32.2223 11.58 31.8519 13.0171 31.1112 14.2998C30.3705 15.567 29.3674 16.556 28.1019 17.2669C26.8365 17.9777 25.4399 18.3332 23.9121 18.3332ZM23.9121 14.717C25.2084 14.717 26.2424 14.2843 27.014 13.4189C27.801 12.5535 28.1945 11.41 28.1945 9.98825C28.1945 8.55107 27.801 7.4075 27.014 6.55756C26.2424 5.69216 25.2084 5.25946 23.9121 5.25946C22.6004 5.25946 21.551 5.68443 20.764 6.53438C19.9924 7.38432 19.6066 8.53561 19.6066 9.98825C19.6066 11.4254 19.9924 12.5767 20.764 13.4421C21.551 14.2921 22.6004 14.717 23.9121 14.717Z" fill="#212B36"/>
<path d="M6.22992 15.0093H13.3334V18.3332H1.66675V15.2468L8.7232 4.99034H1.66675V1.6665H13.3334V4.75292L6.22992 15.0093Z" fill="#212B36"/>
</svg>
