<svg width="75" height="20" viewBox="0 0 75 20" fill="none" xmlns="http://www.w3.org/2000/svg">
<ellipse cx="69.1667" cy="14.1667" rx="4.16669" ry="4.16666" fill="#FA541C"/>
<path d="M49.4443 18.3332H45.3599L38.5287 8.05302V18.3332H34.4443V1.6665H38.5287L45.3599 11.9941V1.6665H49.4443V18.3332Z" fill="white"/>
<path d="M55.6432 4.91912V8.29044H61.111V11.4243H55.6432V15.0806H61.6665V18.3332H51.6665V1.6665H61.6665V4.91912H55.6432Z" fill="white"/>
<path d="M23.9119 18.3332C22.3841 18.3332 20.9798 17.9777 19.6989 17.2669C18.4335 16.556 17.4227 15.567 16.6665 14.2998C15.9258 13.0171 15.5554 11.58 15.5554 9.98825C15.5554 8.39653 15.9258 6.96708 16.6665 5.69988C17.4227 4.43269 18.4335 3.44366 19.6989 2.7328C20.9798 2.02194 22.3841 1.6665 23.9119 1.6665C25.4397 1.6665 26.8363 2.02194 28.1017 2.7328C29.3826 3.44366 30.3856 4.43269 31.111 5.69988C31.8517 6.96708 32.2221 8.39653 32.2221 9.98825C32.2221 11.58 31.8517 13.0171 31.111 14.2998C30.3702 15.567 29.3671 16.556 28.1017 17.2669C26.8363 17.9777 25.4397 18.3332 23.9119 18.3332ZM23.9119 14.717C25.2082 14.717 26.2421 14.2843 27.0137 13.4189C27.8008 12.5535 28.1943 11.41 28.1943 9.98825C28.1943 8.55107 27.8008 7.4075 27.0137 6.55756C26.2421 5.69216 25.2082 5.25946 23.9119 5.25946C22.6001 5.25946 21.5508 5.68443 20.7637 6.53438C19.9921 7.38432 19.6063 8.53561 19.6063 9.98825C19.6063 11.4254 19.9921 12.5767 20.7637 13.4421C21.5508 14.2921 22.6001 14.717 23.9119 14.717Z" fill="white"/>
<path d="M6.22968 15.0093H13.3332V18.3332H1.6665V15.2468L8.72296 4.99034H1.6665V1.6665H13.3332V4.75292L6.22968 15.0093Z" fill="white"/>
</svg>
