<svg width="18" height="18" viewBox="0 0 18 18" fill="none" xmlns="http://www.w3.org/2000/svg">
<path d="M17.1251 16.2413L12.4051 11.5213C13.5393 10.1596 14.1049 8.41313 13.9842 6.6451C13.8635 4.87707 13.0658 3.22363 11.7571 2.02876C10.4483 0.833875 8.72934 0.189547 6.95765 0.229807C5.18597 0.270067 3.49801 0.991816 2.24491 2.24491C0.991816 3.49801 0.270067 5.18597 0.229807 6.95765C0.189547 8.72934 0.833875 10.4483 2.02876 11.7571C3.22363 13.0658 4.87707 13.8635 6.6451 13.9842C8.41313 14.1049 10.1596 13.5393 11.5213 12.4051L16.2413 17.1251L17.1251 16.2413ZM1.50015 7.12515C1.50015 6.01263 1.83005 4.92509 2.44813 4.00007C3.06621 3.07504 3.94472 2.35407 4.97255 1.92833C6.00039 1.50258 7.13139 1.39119 8.22253 1.60823C9.31367 1.82527 10.316 2.361 11.1026 3.14767C11.8893 3.93434 12.425 4.93662 12.6421 6.02777C12.8591 7.11891 12.7477 8.24991 12.322 9.27774C11.8962 10.3056 11.1753 11.1841 10.2502 11.8022C9.3252 12.4202 8.23767 12.7501 7.12515 12.7501C5.63381 12.7485 4.20403 12.1553 3.1495 11.1008C2.09497 10.0463 1.5018 8.61648 1.50015 7.12515Z" fill="white"/>
</svg>
