<svg width="19" height="19" viewBox="0 0 19 19" fill="none" xmlns="http://www.w3.org/2000/svg">
<path d="M12.125 13.3748C12.8154 13.3748 13.375 12.8152 13.375 12.1248C13.375 11.4345 12.8154 10.8748 12.125 10.8748C11.4346 10.8748 10.875 11.4345 10.875 12.1248C10.875 12.8152 11.4346 13.3748 12.125 13.3748Z" fill="#212B36"/>
<path d="M3.375 4.62483C4.06536 4.62483 4.625 4.06518 4.625 3.37483C4.625 2.68447 4.06536 2.12483 3.375 2.12483C2.68464 2.12483 2.125 2.68447 2.125 3.37483C2.125 4.06518 2.68464 4.62483 3.375 4.62483Z" fill="#212B36"/>
<path d="M15.875 18.3748C15.3805 18.3748 14.8972 18.2282 14.4861 17.9535C14.075 17.6788 13.7545 17.2883 13.5653 16.8315C13.3761 16.3747 13.3266 15.8721 13.423 15.3871C13.5195 14.9021 13.7576 14.4567 14.1072 14.1071C14.4569 13.7574 14.9023 13.5193 15.3873 13.4229C15.8722 13.3264 16.3749 13.3759 16.8317 13.5651C17.2885 13.7543 17.679 14.0748 17.9537 14.4859C18.2284 14.897 18.375 15.3804 18.375 15.8748C18.3731 16.5373 18.109 17.172 17.6406 17.6404C17.1722 18.1089 16.5374 18.3729 15.875 18.3748ZM15.875 14.6248C15.6278 14.6248 15.3861 14.6981 15.1805 14.8355C14.975 14.9728 14.8148 15.1681 14.7201 15.3965C14.6255 15.6249 14.6008 15.8762 14.649 16.1187C14.6972 16.3612 14.8163 16.5839 14.9911 16.7587C15.1659 16.9335 15.3887 17.0526 15.6311 17.1008C15.8736 17.149 16.1249 17.1243 16.3534 17.0297C16.5818 16.9351 16.777 16.7748 16.9143 16.5693C17.0517 16.3637 17.125 16.1221 17.125 15.8748C17.124 15.5436 16.992 15.2262 16.7578 14.992C16.5236 14.7578 16.2062 14.6258 15.875 14.6248Z" fill="#212B36"/>
<path d="M17.75 8.99985C17.7432 6.6813 16.8192 4.45965 15.1797 2.82017C13.5402 1.1807 11.3186 0.256647 9 0.249854C7.50704 0.228545 6.0369 0.617699 4.75 1.37485L5.4375 2.43735C5.92605 2.20254 6.42676 1.99391 6.9375 1.81235C5.90431 3.85105 5.32841 6.09064 5.25 8.37485H1.5C1.57003 7.34288 1.86893 6.33944 2.375 5.43735L1.4375 4.62485C0.659819 5.95171 0.249911 7.46189 0.25 8.99985C0.249861 10.149 0.476091 11.2868 0.91577 12.3485C1.35545 13.4102 1.99996 14.3748 2.8125 15.1873C3.62504 15.9999 4.58969 16.6444 5.65135 17.0841C6.71302 17.5238 7.85089 17.75 9 17.7499C10.1142 17.7604 11.2192 17.5478 12.25 17.1249L11.875 15.9374C10.8503 16.3755 9.73736 16.5682 8.625 16.4999C7.29217 14.4499 6.55637 12.0694 6.5 9.62485H17.6875C17.7392 9.42076 17.7602 9.21013 17.75 8.99985ZM7 16.2499C5.75716 15.8773 4.62142 15.213 3.6875 14.3124C2.44742 13.0434 1.67598 11.3904 1.5 9.62485H5.25C5.336 11.9355 5.93371 14.1982 7 16.2499ZM6.5 8.37485C6.54972 5.9383 7.26278 3.56141 8.5625 1.49985H9.4375C10.7372 3.56141 11.4503 5.9383 11.5 8.37485H6.5ZM12.75 8.37485C12.7025 6.05869 12.1025 3.78736 11 1.74985C12.4705 2.17371 13.7778 3.03403 14.7487 4.21702C15.7196 5.4 16.3085 6.84988 16.4375 8.37485H12.75Z" fill="#212B36"/>
</svg>
