<svg width="20" height="24" viewBox="0 0 20 24" fill="none" xmlns="http://www.w3.org/2000/svg">
<path d="M16.3547 12.648C16.3437 10.7832 17.1887 9.37773 18.8949 8.34141C17.9406 6.97422 16.4969 6.22227 14.5937 6.07734C12.7918 5.93516 10.8203 7.12734 10.0984 7.12734C9.33555 7.12734 7.59102 6.12656 6.21836 6.12656C3.38555 6.17031 0.375 8.38516 0.375 12.8914C0.375 14.223 0.618359 15.5984 1.10508 17.0148C1.75586 18.8797 4.10195 23.4488 6.54922 23.375C7.82891 23.3449 8.73398 22.4672 10.3992 22.4672C12.0152 22.4672 12.852 23.375 14.2793 23.375C16.7484 23.3395 18.8703 19.1859 19.4883 17.3156C16.177 15.7543 16.3547 12.7437 16.3547 12.648ZM13.4809 4.3082C14.8672 2.66211 14.7414 1.16367 14.7004 0.625C13.4754 0.696094 12.059 1.45898 11.2523 2.39687C10.3637 3.40312 9.84141 4.64727 9.95352 6.05C11.277 6.15117 12.4855 5.47031 13.4809 4.3082Z" fill="white"/>
</svg>
