<svg width="22" height="21" viewBox="0 0 22 21" fill="none" xmlns="http://www.w3.org/2000/svg">
<path d="M7.24986 12.4999L8.30736 13.5574L10.2499 11.6224V20.7499H11.7499V11.6224L13.6924 13.5574L14.7499 12.4999L10.9999 8.74994L7.24986 12.4999Z" fill="white"/>
<path d="M16.6244 15.4999H16.2494V13.9999H16.6244C17.5195 14.0357 18.3922 13.7145 19.0504 13.1069C19.7087 12.4992 20.0986 11.655 20.1344 10.7599C20.1702 9.86482 19.849 8.99215 19.2414 8.3339C18.6337 7.67564 17.7895 7.28573 16.8944 7.24992H16.2494L16.1744 6.63492C16.008 5.37226 15.3883 4.21313 14.4307 3.37346C13.4731 2.53379 12.243 2.07083 10.9694 2.07083C9.69582 2.07083 8.46567 2.53379 7.50809 3.37346C6.5505 4.21313 5.9308 5.37226 5.76441 6.63492L5.74941 7.24992H5.10441C4.2093 7.28573 3.36508 7.67564 2.75746 8.3339C2.14984 8.99215 1.8286 9.86482 1.86441 10.7599C1.90021 11.655 2.29013 12.4992 2.94838 13.1069C3.60663 13.7145 4.4793 14.0357 5.37441 13.9999H5.74941V15.4999H5.37441C4.17171 15.4923 3.01428 15.0404 2.12464 14.231C1.23501 13.4216 0.675968 12.3119 0.555004 11.1153C0.434039 9.91871 0.759689 8.71961 1.46934 7.74856C2.179 6.77752 3.22257 6.10308 4.39941 5.85492C4.72319 4.34481 5.55503 2.9914 6.75614 2.02052C7.95725 1.04965 9.45497 0.52002 10.9994 0.52002C12.5438 0.52002 14.0416 1.04965 15.2427 2.02052C16.4438 2.9914 17.2756 4.34481 17.5994 5.85492C18.7762 6.10308 19.8198 6.77752 20.5295 7.74856C21.2391 8.71961 21.5648 9.91871 21.4438 11.1153C21.3228 12.3119 20.7638 13.4216 19.8742 14.231C18.9845 15.0404 17.8271 15.4923 16.6244 15.4999Z" fill="white"/>
</svg>
