<svg width="24" height="24" viewBox="0 0 24 24" fill="none" xmlns="http://www.w3.org/2000/svg">
<path d="M22.5 16.332H1.5V17.832H22.5V16.332Z" fill="#212B36"/>
<path d="M22.5 19.332H1.5V20.832H22.5V19.332Z" fill="#212B36"/>
<path d="M18 7.33203C17.7033 7.33203 17.4133 7.42 17.1666 7.58483C16.92 7.74965 16.7277 7.98392 16.6142 8.25801C16.5006 8.5321 16.4709 8.83369 16.5288 9.12467C16.5867 9.41564 16.7296 9.68291 16.9393 9.89269C17.1491 10.1025 17.4164 10.2453 17.7074 10.3032C17.9983 10.3611 18.2999 10.3314 18.574 10.2179C18.8481 10.1043 19.0824 9.91206 19.2472 9.66539C19.412 9.41871 19.5 9.1287 19.5 8.83203C19.5 8.43421 19.342 8.05268 19.0607 7.77137C18.7794 7.49007 18.3978 7.33203 18 7.33203Z" fill="#212B36"/>
<path d="M12 11.832C11.4067 11.832 10.8266 11.6561 10.3333 11.3264C9.83994 10.9968 9.45542 10.5283 9.22836 9.98008C9.0013 9.4319 8.94189 8.8287 9.05764 8.24676C9.1734 7.66482 9.45912 7.13027 9.87868 6.71071C10.2982 6.29115 10.8328 6.00543 11.4147 5.88967C11.9967 5.77392 12.5999 5.83333 13.1481 6.06039C13.6962 6.28745 14.1648 6.67197 14.4944 7.16532C14.8241 7.65867 15 8.23869 15 8.83203C14.9991 9.62741 14.6828 10.3899 14.1203 10.9524C13.5579 11.5148 12.7954 11.8311 12 11.832ZM12 7.33203C11.7033 7.33203 11.4133 7.42 11.1666 7.58483C10.92 7.74965 10.7277 7.98392 10.6142 8.25801C10.5006 8.5321 10.4709 8.83369 10.5288 9.12467C10.5867 9.41564 10.7296 9.68291 10.9393 9.89269C11.1491 10.1025 11.4164 10.2453 11.7074 10.3032C11.9983 10.3611 12.2999 10.3314 12.574 10.2179C12.8481 10.1043 13.0824 9.91206 13.2472 9.66539C13.412 9.41871 13.5 9.1287 13.5 8.83203C13.4996 8.43433 13.3414 8.05303 13.0602 7.77181C12.779 7.49059 12.3977 7.33243 12 7.33203Z" fill="#212B36"/>
<path d="M6 7.33203C5.70333 7.33203 5.41332 7.42 5.16664 7.58483C4.91997 7.74965 4.72771 7.98392 4.61418 8.25801C4.50065 8.5321 4.47094 8.83369 4.52882 9.12467C4.5867 9.41564 4.72956 9.68291 4.93934 9.89269C5.14912 10.1025 5.41639 10.2453 5.70736 10.3032C5.99834 10.3611 6.29994 10.3314 6.57403 10.2179C6.84811 10.1043 7.08238 9.91206 7.2472 9.66539C7.41203 9.41871 7.5 9.1287 7.5 8.83203C7.5 8.43421 7.34196 8.05268 7.06066 7.77137C6.77936 7.49007 6.39782 7.33203 6 7.33203Z" fill="#212B36"/>
<path d="M21 14.832H3C2.60249 14.831 2.22154 14.6727 1.94046 14.3916C1.65937 14.1105 1.50101 13.7295 1.5 13.332V4.33203C1.50101 3.93452 1.65937 3.55357 1.94046 3.27249C2.22154 2.9914 2.60249 2.83304 3 2.83203H21C21.3975 2.83304 21.7785 2.9914 22.0595 3.27249C22.3406 3.55357 22.499 3.93452 22.5 4.33203V13.332C22.4995 13.7297 22.3413 14.1109 22.0601 14.3921C21.7789 14.6733 21.3977 14.8315 21 14.832ZM21 4.33203H3V13.332H21V4.33203Z" fill="#212B36"/>
</svg>
