<svg width="24" height="24" viewBox="0 0 24 24" fill="none" xmlns="http://www.w3.org/2000/svg">
<path d="M20.8879 22.082H22.5004L18.0004 10.832H16.2379L11.7379 22.082H13.3504L14.5504 19.082H19.6879L20.8879 22.082ZM15.1504 17.582L17.1154 12.662L19.0879 17.582H15.1504Z" fill="#212B36"/>
<path d="M13.5 5.58203V4.08203H8.25V1.83203H6.75V4.08203H1.5V5.58203H9.555C9.13945 7.29606 8.31902 8.88548 7.1625 10.217C6.4086 9.28216 5.82704 8.22062 5.445 7.08203H3.87C4.34211 8.60949 5.10624 10.0308 6.12 11.267C4.99958 12.3538 3.68742 13.2235 2.25 13.832L2.8125 15.227C4.42768 14.5451 5.89872 13.5627 7.1475 12.332C8.37362 13.5795 9.8444 14.56 11.4675 15.212L12 13.832C10.5543 13.2732 9.24497 12.4114 8.16 11.3045C9.59593 9.668 10.6058 7.70238 11.1 5.58203H13.5Z" fill="#212B36"/>
</svg>
