<svg width="80" height="80" viewBox="0 0 80 80" fill="none" xmlns="http://www.w3.org/2000/svg">
<g clip-path="url(#clip0_22430_8426)">
<path d="M75.9383 21.7154C73.5469 20.3346 70.4889 21.1539 69.1082 23.5455L66.7868 27.5663L75.4471 32.5663L77.7685 28.5455C79.1491 26.1541 78.3297 23.0961 75.9383 21.7154Z" fill="#FA541C" fill-opacity="0.16"/>
<path d="M33.127 35.625C40.2031 35.625 45.9395 29.8886 45.9395 22.8125C45.9395 15.7364 40.2031 10 33.127 10C26.0508 10 20.3145 15.7364 20.3145 22.8125C20.3145 29.8886 26.0508 35.625 33.127 35.625Z" fill="#FA541C" fill-opacity="0.16"/>
<path d="M69.1082 23.5455C70.4889 21.1539 73.5469 20.3346 75.9383 21.7154C78.3297 23.0961 79.1491 26.1541 77.7685 28.5455L58.1051 62.6028L49.4448 57.6028L69.1082 23.5455Z" fill="#FA541C" fill-opacity="0.16"/>
<path d="M58.1051 62.6028L48.0611 69.9998L49.4448 57.6028L58.1051 62.6028Z" fill="#FA541C" fill-opacity="0.16"/>
<path d="M47.5015 22.8125C47.5015 14.8861 41.0529 8.4375 33.1265 8.4375C25.2001 8.4375 18.7515 14.8861 18.7515 22.8125C18.7515 26.9245 20.4874 30.6383 23.2643 33.2608C23.3163 33.3164 23.3716 33.3691 23.4321 33.417C25.9901 35.7575 29.3943 37.1873 33.1263 37.1873C36.8583 37.1873 40.2626 35.7573 42.8205 33.417C42.881 33.3691 42.9363 33.3162 42.9883 33.2608C45.7655 30.6383 47.5015 26.9245 47.5015 22.8125ZM33.1265 11.5625C39.3297 11.5625 44.3765 16.6092 44.3765 22.8125C44.3765 25.3073 43.5591 27.6141 42.1796 29.4817C41.0272 27.7727 39.4302 26.4434 37.576 25.6228C38.3119 24.6717 38.7515 23.4803 38.7515 22.1875V21.1719C38.7515 18.0702 36.2282 15.5469 33.1265 15.5469C30.0247 15.5469 27.5015 18.0702 27.5015 21.1719V22.1875C27.5015 23.4803 27.941 24.6717 28.6769 25.6228C26.8227 26.4434 25.2257 27.7727 24.0733 29.4817C22.6938 27.6141 21.8765 25.3073 21.8765 22.8125C21.8765 16.6092 26.9232 11.5625 33.1265 11.5625ZM30.6265 22.1875V21.1719C30.6265 19.7934 31.748 18.6719 33.1265 18.6719C34.5049 18.6719 35.6265 19.7934 35.6265 21.1719V22.1875C35.6265 23.5659 34.5049 24.6875 33.1265 24.6875C31.748 24.6875 30.6265 23.5659 30.6265 22.1875ZM26.331 31.7706C27.7043 29.3355 30.2669 27.8125 33.1265 27.8125C35.986 27.8125 38.5486 29.3355 39.9219 31.7706C38.0324 33.2075 35.6779 34.0625 33.1265 34.0625C30.5751 34.0625 28.2204 33.2075 26.331 31.7706Z" fill="#FA541C"/>
<path d="M64.689 62.2388C63.8262 62.2388 63.1265 62.9383 63.1265 63.8013V75.3125C63.1265 76.1741 62.4255 76.875 61.564 76.875H4.68896C3.8274 76.875 3.12646 76.1741 3.12646 75.3125V4.6875C3.12646 3.82594 3.8274 3.125 4.68896 3.125H61.564C62.4255 3.125 63.1265 3.82594 63.1265 4.6875V21.6797C63.1265 22.5427 63.8262 23.2422 64.689 23.2422C65.5518 23.2422 66.2515 22.5427 66.2515 21.6797V4.6875C66.2515 2.10281 64.1487 0 61.564 0H4.68896C2.10428 0 0.00146484 2.10281 0.00146484 4.6875V75.3125C0.00146484 77.8972 2.10428 80 4.68896 80H61.564C64.1487 80 66.2515 77.8972 66.2515 75.3125V63.8013C66.2515 62.9383 65.5518 62.2388 64.689 62.2388Z" fill="#FA541C"/>
<path d="M41.564 68.4375H33.1265C32.2637 68.4375 31.564 69.137 31.564 70C31.564 70.863 32.2637 71.5625 33.1265 71.5625H41.564C42.4268 71.5625 43.1265 70.863 43.1265 70C43.1265 69.137 42.4268 68.4375 41.564 68.4375Z" fill="#FA541C"/>
<path d="M41.564 59.6875H19.3765C18.5137 59.6875 17.814 60.387 17.814 61.25C17.814 62.113 18.5137 62.8125 19.3765 62.8125H41.564C42.4268 62.8125 43.1265 62.113 43.1265 61.25C43.1265 60.387 42.4268 59.6875 41.564 59.6875Z" fill="#FA541C"/>
<path d="M41.564 50.9375H19.3765C18.5137 50.9375 17.814 51.637 17.814 52.5C17.814 53.363 18.5137 54.0625 19.3765 54.0625H41.564C42.4268 54.0625 43.1265 53.363 43.1265 52.5C43.1265 51.637 42.4268 50.9375 41.564 50.9375Z" fill="#FA541C"/>
<path d="M13.8073 42.6453C13.5169 42.3547 13.1137 42.1875 12.7012 42.1875C12.2901 42.1875 11.887 42.3547 11.5965 42.6453C11.3059 42.9359 11.1387 43.3391 11.1387 43.75C11.1387 44.1609 11.3058 44.5641 11.5965 44.8547C11.8887 45.1453 12.2901 45.3125 12.7012 45.3125C13.1137 45.3125 13.5153 45.1453 13.8073 44.8547C14.098 44.5641 14.2653 44.1609 14.2653 43.75C14.2653 43.3391 14.0981 42.9359 13.8073 42.6453Z" fill="#FA541C"/>
<path d="M13.8073 51.3953C13.5153 51.1047 13.1137 50.9375 12.7012 50.9375C12.2901 50.9375 11.8887 51.1047 11.5965 51.3953C11.3059 51.6859 11.1387 52.0891 11.1387 52.5C11.1387 52.9109 11.3058 53.3141 11.5965 53.6047C11.8887 53.8953 12.2901 54.0625 12.7012 54.0625C13.1137 54.0625 13.5153 53.8953 13.8073 53.6047C14.098 53.3141 14.2653 52.9109 14.2653 52.5C14.2653 52.0891 14.0981 51.6859 13.8073 51.3953Z" fill="#FA541C"/>
<path d="M12.7012 59.6875C12.2901 59.6875 11.8887 59.8547 11.5965 60.1453C11.3059 60.4359 11.1387 60.8391 11.1387 61.25C11.1387 61.6609 11.3058 62.0641 11.5965 62.3547C11.887 62.6453 12.2901 62.8125 12.7012 62.8125C13.1137 62.8125 13.5169 62.6453 13.8073 62.3547C14.098 62.0641 14.2653 61.6609 14.2653 61.25C14.2653 60.8391 14.0981 60.4359 13.8073 60.1453C13.5153 59.8547 13.1137 59.6875 12.7012 59.6875Z" fill="#FA541C"/>
<path d="M41.564 42.1875H19.3765C18.5137 42.1875 17.814 42.887 17.814 43.75C17.814 44.613 18.5137 45.3125 19.3765 45.3125H41.564C42.4268 45.3125 43.1265 44.613 43.1265 43.75C43.1265 42.887 42.4268 42.1875 41.564 42.1875Z" fill="#FA541C"/>
<path d="M76.7196 20.362C75.2016 19.4856 73.4332 19.2528 71.7398 19.7064C70.0466 20.1601 68.6313 21.2461 67.7551 22.764L48.0923 56.8207C47.9846 57.0075 47.9165 57.2145 47.8926 57.4287L46.5085 69.8262C46.4398 70.4431 46.7426 71.0423 47.2801 71.3528C47.5227 71.4928 47.7923 71.5622 48.0612 71.5622C48.388 71.5622 48.7137 71.4598 48.9879 71.2578L59.0323 63.8603C59.2059 63.7325 59.3512 63.5701 59.4588 63.3834L79.1215 29.3267C80.9308 26.1929 79.8534 22.1714 76.7196 20.362ZM50.7332 60.1498L55.2554 62.7607L50.0104 66.6236L50.7332 60.1498ZM57.5338 60.4676L51.5799 57.0301L67.3588 29.7004L73.3127 33.1379L57.5338 60.4676ZM76.4152 27.764L74.8751 30.4317L68.9212 26.9942L70.4613 24.3265C70.9204 23.5314 71.6616 22.9626 72.5485 22.725C73.4357 22.4872 74.362 22.6093 75.157 23.0684C75.9521 23.5275 76.5209 24.2687 76.7585 25.1556C76.9962 26.0425 76.8743 26.9689 76.4152 27.764Z" fill="#FA541C"/>
</g>
<defs>
<clipPath id="clip0_22430_8426">
<rect width="80" height="80" fill="white"/>
</clipPath>
</defs>
</svg>
