<svg width="81" height="80" viewBox="0 0 81 80" fill="none" xmlns="http://www.w3.org/2000/svg">
<g clip-path="url(#clip0_22430_8435)">
<path fill-rule="evenodd" clip-rule="evenodd" d="M60.651 30.9383C60.651 47.1621 47.499 60.3141 31.2752 60.3141C15.0514 60.3141 1.89941 47.1621 1.89941 30.9383C1.89941 14.7145 15.0514 1.5625 31.2752 1.5625C47.499 1.5625 60.651 14.7145 60.651 30.9383ZM52.9241 30.9381C52.9241 42.8946 43.2315 52.5872 31.275 52.5872C19.3186 52.5872 9.62598 42.8946 9.62598 30.9381C9.62598 18.9817 19.3186 9.28906 31.275 9.28906C43.2315 9.28906 52.9241 18.9817 52.9241 30.9381Z" fill="#FA541C" fill-opacity="0.16"/>
<path d="M73.908 77.5868L77.9138 73.581C79.0502 72.4447 79.0502 70.6025 77.9138 69.4663L62.3616 53.9141L54.2411 62.0346L69.7933 77.5868C70.9294 78.723 72.7717 78.723 73.908 77.5868Z" fill="#FA541C" fill-opacity="0.16"/>
<path d="M79.0202 68.3619L63.468 52.8097C62.8577 52.1995 61.8687 52.1995 61.2582 52.8097L60.5733 53.4945L56.2582 49.1794C58.776 45.7317 60.5776 41.7816 61.4957 37.5942C61.6807 36.7513 61.1472 35.9181 60.3043 35.7333C59.4608 35.5491 58.628 36.0819 58.4433 36.9248C55.6697 49.572 44.2443 58.7514 31.2758 58.7514C15.9396 58.7514 3.46256 46.2744 3.46256 30.9381C3.46256 15.6019 15.9394 3.12516 31.2757 3.12516C44.6188 3.12516 56.1097 12.623 58.5982 25.7087C58.7594 26.5564 59.5771 27.1131 60.4251 26.9519C61.2729 26.7906 61.8293 25.9727 61.6682 25.125C58.8996 10.5666 46.1176 0 31.2757 0C14.2162 0 0.337402 13.8787 0.337402 30.9383C0.337402 47.9978 14.2162 61.8766 31.2757 61.8766C37.828 61.8766 44.2404 59.775 49.5091 55.932L53.8226 60.2455L53.1377 60.9303C52.5276 61.5405 52.5276 62.5298 53.1377 63.1402L68.6899 78.6923C69.5618 79.5641 70.7069 80 71.8522 80C72.9972 80 74.1424 79.5641 75.0144 78.6923L79.0204 74.6864C80.7636 72.9428 80.7637 70.1056 79.0202 68.3619ZM51.9494 53.9528C52.7687 53.2156 53.5462 52.4367 54.2791 51.6203L58.3635 55.7047L56.0324 58.0358L51.9494 53.9528ZM76.8102 72.4767L72.8043 76.4827C72.279 77.008 71.4246 77.0077 70.8996 76.4827L56.4524 62.0355L62.363 56.1247L76.8102 70.5717C77.3354 71.097 77.3354 71.9516 76.8102 72.4767Z" fill="#FA541C"/>
<path d="M59.0897 30.9384L59.0894 31.0495C59.0861 31.9124 59.7828 32.6148 60.6458 32.618C60.648 32.618 60.6499 32.618 60.6521 32.618C61.5121 32.618 62.2111 31.9224 62.2144 31.0616L62.2147 30.9382C62.2147 30.0752 61.515 29.3757 60.6522 29.3757C59.7894 29.3757 59.0897 30.0754 59.0897 30.9384Z" fill="#FA541C"/>
<path d="M20.7486 33.9369V25.6251H22.5083C23.3711 25.6251 24.0708 24.9255 24.0708 24.0626C24.0708 23.1996 23.3711 22.5001 22.5083 22.5001H15.8638C15.001 22.5001 14.3013 23.1996 14.3013 24.0626C14.3013 24.9255 15.001 25.6251 15.8638 25.6251H17.6235V33.9369C17.6235 34.9072 16.8341 35.6966 15.8638 35.6966C14.8935 35.6966 14.1041 34.9072 14.1041 33.9369C14.1041 33.074 13.4044 32.3744 12.5416 32.3744C11.6788 32.3744 10.9791 33.074 10.9791 33.9369C10.9791 36.6304 13.1704 38.8218 15.864 38.8218C18.5576 38.8218 20.7486 36.6304 20.7486 33.9369Z" fill="#FA541C"/>
<path d="M23.511 30.6615C23.511 35.1615 27.1721 38.8224 31.672 38.8224C36.1718 38.8224 39.8329 35.1613 39.8329 30.6615C39.8329 26.1616 36.1716 22.5007 31.6718 22.5007C27.172 22.5007 23.511 26.1615 23.511 30.6615ZM36.7077 30.6615C36.7077 33.4382 34.4487 35.6974 31.6718 35.6974C28.8949 35.6974 26.6359 33.4384 26.6359 30.6615C26.6359 27.8846 28.8949 25.6257 31.6718 25.6257C34.4487 25.6257 36.7077 27.8849 36.7077 30.6615Z" fill="#FA541C"/>
<path d="M46.5718 22.5007H43.3648C42.5019 22.5007 41.8023 23.2002 41.8023 24.0632V37.8135C41.8023 38.6765 42.5019 39.376 43.3648 39.376H46.5716C49.3287 39.376 51.5718 37.133 51.5718 34.3759C51.5718 33.0451 51.0482 31.8352 50.1976 30.9382C51.0482 30.0413 51.5718 28.8315 51.5718 27.5005C51.5719 24.7437 49.3288 22.5007 46.5718 22.5007ZM44.9274 25.6257H46.5716C47.6055 25.6257 48.4466 26.4668 48.4466 27.5007C48.4466 28.5346 47.6055 29.3757 46.5716 29.3757H44.9274V25.6257ZM46.5718 36.251H44.9274V32.5009H46.5716C47.6055 32.5009 48.4466 33.342 48.4466 34.3759C48.4466 35.4098 47.6057 36.251 46.5718 36.251Z" fill="#FA541C"/>
<path d="M46.5102 17.2666C46.9102 17.2666 47.3099 17.114 47.615 16.809C48.2252 16.1988 48.2252 15.2095 47.615 14.5993C38.6055 5.59023 23.9461 5.59023 14.9366 14.5993C14.3264 15.2095 14.3264 16.1988 14.9366 16.809C15.5468 17.4193 16.5358 17.4193 17.1464 16.809C24.9374 9.0182 37.6141 9.0182 45.4053 16.809C45.7105 17.1141 46.1103 17.2666 46.5102 17.2666Z" fill="#FA541C"/>
<path d="M14.9359 45.068C14.3258 45.6781 14.3258 46.6675 14.9359 47.2778L14.9503 47.292L14.9575 47.2991C15.2631 47.6064 15.6649 47.7603 16.0669 47.7603C16.4647 47.7603 16.8628 47.6094 17.1672 47.3072C17.7794 46.6995 17.7841 45.7116 17.1769 45.0991L17.1459 45.068C16.5353 44.4578 15.5463 44.4578 14.9359 45.068Z" fill="#FA541C"/>
<path d="M19.8131 51.0083C23.3798 53.0481 27.3242 54.0409 31.245 54.0409C37.2359 54.0409 43.1709 51.7225 47.6156 47.2781C48.2258 46.668 48.2258 45.6786 47.6156 45.0683C47.0055 44.4583 46.0164 44.4581 45.4058 45.0683C39.0467 51.4273 29.1605 52.7542 21.3648 48.2956C20.6156 47.8672 19.6612 48.127 19.2326 48.8762C18.804 49.6253 19.064 50.5798 19.8131 51.0083Z" fill="#FA541C"/>
</g>
<defs>
<clipPath id="clip0_22430_8435">
<rect width="80" height="80" fill="white" transform="translate(0.333008)"/>
</clipPath>
</defs>
</svg>
