<svg width="81" height="80" viewBox="0 0 81 80" fill="none" xmlns="http://www.w3.org/2000/svg">
<g clip-path="url(#clip0_22430_8416)">
<path d="M64.6105 6.20801H16.7202C12.7202 6.20801 9.09752 7.82988 6.47518 10.4522C3.85283 13.0746 2.23096 16.6972 2.23096 20.6972C2.23096 28.7004 8.71861 35.1864 16.7202 35.1864H64.6105C68.6105 35.1864 72.2331 33.5646 74.8555 30.9438C77.4778 28.3214 79.0997 24.6988 79.0997 20.6972C79.0997 12.6957 72.6121 6.20801 64.6105 6.20801Z" fill="#FA541C" fill-opacity="0.16"/>
<path d="M51.8567 43.8831H51.7261C50.4365 43.8831 49.3278 44.6448 48.8167 45.7412V44.8347C48.8167 43.1542 47.319 41.7919 45.4717 41.7919C43.9719 41.7919 42.7026 42.6898 42.2783 43.927C41.8564 42.6898 40.595 41.7919 39.1042 41.7919C37.9537 41.7919 36.94 42.3269 36.3431 43.1397V35.7755C36.3431 34.0151 34.9161 32.5883 33.1559 32.5883C31.3956 32.5883 29.9687 34.0153 29.9687 35.7755V54.718L27.0712 51.8953C25.7581 50.6161 23.6641 50.6197 22.3553 51.9033L22.2953 51.962C20.9637 53.268 21.0141 55.2658 22.1111 56.7536C25.3556 61.1542 30.1598 67.8284 30.1598 67.8284V72.4134C30.1598 73.1764 30.7784 73.795 31.5414 73.795H48.5147C49.2776 73.795 49.8962 73.1764 49.8962 72.4134V69.0205C53.2233 65.38 55.0681 60.6267 55.0681 55.695V47.0944C55.0681 45.3209 53.6303 43.8831 51.8567 43.8831Z" fill="#FA541C" fill-opacity="0.16"/>
<path d="M38.6393 27.4574C39.5039 27.4574 40.2049 26.7565 40.2049 25.8918V20.0137L44.7219 26.5546C45.1741 27.2077 45.9314 27.4843 46.6511 27.2595C47.3839 27.0306 47.8575 26.3493 47.8575 25.5238V14.9712C47.8575 14.1065 47.1566 13.4056 46.2919 13.4056C45.4272 13.4056 44.7263 14.1065 44.7263 14.9712V21.0509L39.9274 14.102C39.538 13.5384 38.8274 13.2932 38.1732 13.497C37.5191 13.7009 37.0735 14.3065 37.0735 14.9916V25.892C37.0736 26.7566 37.7746 27.4574 38.6393 27.4574Z" fill="#FA541C"/>
<path d="M18.7215 14.9712V25.8918C18.7215 26.7565 19.4224 27.4574 20.2871 27.4574C21.1518 27.4574 21.8527 26.7565 21.8527 25.8918V14.9712C21.8527 14.1065 21.1518 13.4056 20.2871 13.4056C19.4224 13.4057 18.7215 14.1066 18.7215 14.9712Z" fill="#FA541C"/>
<path d="M31.2385 18.8677C30.3738 18.8677 29.6728 19.5686 29.6728 20.4333C29.6728 21.298 30.3738 21.999 31.2385 21.999H32.7425C32.2647 23.6879 30.9955 24.3282 29.7916 24.3282C27.6439 24.3282 25.8967 22.581 25.8967 20.4333C25.8967 18.2857 27.6439 16.5385 29.7916 16.5385C30.5724 16.5385 31.3249 16.7682 31.9681 17.2027C32.6845 17.6868 33.6578 17.4983 34.1417 16.7819C34.6258 16.0655 34.4374 15.0922 33.721 14.6083C32.5581 13.8227 31.1994 13.4076 29.7916 13.4076C25.9174 13.4076 22.7656 16.5594 22.7656 20.4335C22.7656 24.3075 25.9175 27.4594 29.7916 27.4594C33.4886 27.4594 36.0708 24.5702 36.0708 20.4335C36.0708 19.5688 35.3699 18.8679 34.5052 18.8679L31.2385 18.8677Z" fill="#FA541C"/>
<path d="M12.7258 24.326C11.6959 24.326 10.707 23.9131 10.0801 23.2215C9.49935 22.5807 8.50935 22.5323 7.86873 23.1128C7.2281 23.6934 7.17935 24.6834 7.75998 25.3242C8.98857 26.6798 10.7984 27.4573 12.7256 27.4573C15.1244 27.4573 17.14 25.9192 17.5183 23.7999C17.8045 22.1974 17.087 20.1076 14.2158 19.0485C12.9087 18.5663 11.6894 18.0421 11.2798 17.8632C11.0892 17.6962 11.0862 17.4767 11.104 17.3529C11.1262 17.1982 11.2417 16.8193 11.832 16.6415C13.2606 16.2109 14.6059 17.2624 14.6528 17.2996C15.3147 17.8476 16.2958 17.7596 16.8494 17.1009C17.4058 16.439 17.3201 15.4515 16.6583 14.8951C16.5517 14.8056 14.0142 12.7134 10.9289 13.6434C9.34576 14.1202 8.22529 15.3712 8.00467 16.9079C7.79701 18.3546 8.42435 19.7465 9.64185 20.5404C9.71107 20.5856 9.78373 20.6251 9.8592 20.6587C9.92263 20.6871 11.4323 21.359 13.1323 21.986C13.4689 22.1103 14.5578 22.5682 14.4361 23.2495C14.3437 23.7671 13.6634 24.326 12.7258 24.326Z" fill="#FA541C"/>
<path d="M53.4387 13.4057C52.574 13.4057 51.8731 14.1066 51.8731 14.9713V22.486C51.8731 24.2068 52.6926 25.603 54.309 26.6355C55.1606 27.1796 56.1208 27.4562 57.1628 27.4576H57.1714C58.0672 27.4576 58.909 27.2624 59.6731 26.8776C61.5558 25.9295 62.5926 24.3671 62.5926 22.4781V14.9712C62.5926 14.1065 61.8917 13.4056 61.027 13.4056C60.1623 13.4056 59.4614 14.1065 59.4614 14.9712V22.4779C59.4614 22.9724 59.3192 23.5498 58.2645 24.0809C57.9367 24.246 57.579 24.3263 57.1711 24.3263H57.1669C56.7242 24.3257 56.3408 24.2181 55.9947 23.9968C55.1698 23.4699 55.004 23.0279 55.004 22.4859V14.9712C55.0042 14.1066 54.3033 13.4057 53.4387 13.4057Z" fill="#FA541C"/>
<path d="M67.1861 26.0564V22.8648H68.6614C71.2573 22.8648 73.3692 20.78 73.3692 18.2175C73.3692 15.6548 71.2573 13.57 68.6614 13.57H65.6206C64.7559 13.57 64.055 14.2709 64.055 15.1356V26.0564C64.055 26.9211 64.7559 27.622 65.6206 27.622C66.4853 27.622 67.1861 26.9211 67.1861 26.0564ZM67.1861 16.7012H68.6614C69.5161 16.7012 70.2381 17.3956 70.2381 18.2175C70.2381 19.0393 69.5161 19.7337 68.6616 19.7337H67.1862L67.1861 16.7012Z" fill="#FA541C"/>
<path d="M64.434 4.64307H47.734C46.9492 4.64307 46.2478 5.19978 46.1362 5.9765C45.9973 6.94416 46.7442 7.77416 47.6851 7.77416H64.4449C71.3934 7.77416 77.3753 13.4529 77.5307 20.3996C77.6104 23.9632 76.2598 27.326 73.7487 29.8371C71.3068 32.2774 68.0613 33.6215 64.6104 33.6215H37.3903C36.6034 32.0806 35.001 31.0224 33.1554 31.0224C31.3098 31.0224 29.7076 32.0806 28.9207 33.6215H16.8854C9.93869 33.6215 3.95666 27.9442 3.79963 20.9992C3.719 17.4356 5.06963 14.072 7.58197 11.5599C10.0232 9.11869 13.2684 7.77432 16.7199 7.77432H33.5979C34.3828 7.77432 35.0842 7.2176 35.1957 6.44088C35.3346 5.47322 34.5878 4.64322 33.6468 4.64322H16.7198C12.432 4.64322 8.40041 6.31338 5.36775 9.34588C2.21166 12.5021 0.531191 16.7401 0.673379 21.2231C0.948848 29.9112 8.20385 36.7526 16.8963 36.7526H28.4024L28.4026 51.0067L28.1631 50.7735C26.261 48.9207 23.154 48.926 21.2584 50.7854L21.1985 50.844C19.386 52.6217 19.2396 55.4976 20.8504 57.6824C23.5928 61.4018 27.4987 66.8142 28.5937 68.3334V72.4131C28.5937 74.0409 29.9132 75.3604 31.541 75.3604H48.514C50.1417 75.3604 51.4612 74.0409 51.4612 72.4132V69.6149C54.801 65.7431 56.6331 60.8245 56.6331 55.6951V47.0948C56.6331 44.4565 54.4943 42.3176 51.8559 42.3176H51.7254C50.9667 42.3176 50.249 42.4962 49.6112 42.8124C48.8607 41.2824 47.2871 40.2262 45.471 40.2262C44.3056 40.2262 43.2406 40.6618 42.4282 41.3779C41.6159 40.662 40.5507 40.2262 39.3853 40.2262C38.8687 40.2262 38.3721 40.3129 37.9081 40.4704L37.9079 36.7528L64.6104 36.7526C68.8974 36.7526 72.9288 35.0832 75.9624 32.0513C79.1179 28.8959 80.7982 24.6582 80.657 20.1751C80.3828 11.486 73.1274 4.64307 64.434 4.64307ZM37.9084 44.8345C37.9084 43.9468 38.6956 43.2393 39.6084 43.3735C40.3399 43.481 40.8629 44.1426 40.8629 44.8821V49.3548C40.8629 50.0254 41.2826 50.6399 41.9224 50.841C43.002 51.1804 43.9942 50.3835 43.9942 49.3548V44.8823C43.9942 44.1428 44.5171 43.4812 45.2487 43.3737C46.1617 43.2395 46.9488 43.947 46.9488 44.8346V49.3059C46.9488 50.0906 47.5054 50.792 48.2821 50.9037C49.2498 51.0429 50.0799 50.2957 50.0799 49.3549V47.0945C50.0799 46.1854 50.8168 45.4485 51.7259 45.4485H51.8563C52.7654 45.4485 53.5023 46.1854 53.5023 47.0945V56.3407C53.5023 60.6903 51.6734 64.7529 48.7399 67.9645C48.4765 68.2529 48.3304 68.6296 48.3304 69.0203V72.229L31.7251 72.2292L31.7249 67.8281C31.7249 67.4998 31.6218 67.1798 31.4301 66.9135C31.382 66.8467 26.5834 60.1815 23.3707 55.8242C22.7904 55.037 22.5717 53.8831 23.3912 53.0793L23.451 53.0206C24.1445 52.3396 25.2813 52.3373 25.9776 53.0154L28.8463 55.8099C29.2068 56.1612 29.7103 56.3456 30.2073 56.2656C30.9917 56.1393 31.5342 55.4724 31.5342 54.7174V35.8187C31.5342 35.0198 32.0937 34.3057 32.882 34.1759C33.8965 34.0088 34.7776 34.791 34.7776 35.7749V49.3056C34.7776 50.0904 35.3343 50.7918 36.111 50.9034C37.0787 51.0423 37.9087 50.2954 37.9087 49.3545L37.9084 44.8345Z" fill="#FA541C"/>
<path d="M40.6654 7.77129C41.5284 7.77129 42.2279 7.07174 42.2279 6.20879C42.2279 5.34585 41.5284 4.64629 40.6654 4.64629C39.8025 4.64629 39.1029 5.34585 39.1029 6.20879C39.1029 7.07174 39.8025 7.77129 40.6654 7.77129Z" fill="#FA541C"/>
</g>
<defs>
<clipPath id="clip0_22430_8416">
<rect width="80" height="80" fill="white" transform="translate(0.666504)"/>
</clipPath>
</defs>
</svg>
