<svg width="94" height="28" viewBox="0 0 94 28" fill="none" xmlns="http://www.w3.org/2000/svg">
<mask id="mask0_22616_9400" style="mask-type:alpha" maskUnits="userSpaceOnUse" x="0" y="0" width="94" height="28">
<rect x="0.333496" width="93.3333" height="28" fill="#919EAB"/>
</mask>
<g mask="url(#mask0_22616_9400)">
<path d="M35.8712 11.4116C35.8712 9.18761 37.5029 7.63465 40.4683 7.63465C42.2777 7.63465 43.7582 8.20874 44.5604 8.77112C44.6751 8.85141 44.8799 9.04623 44.7572 9.40854C44.5998 9.79877 44.3112 10.3856 44.1041 10.7668C43.9836 10.989 43.6758 10.9597 43.5181 10.8803C42.9467 10.5926 42.0096 10.1058 41.1487 10.0161C40.9307 9.99251 40.7114 9.98308 40.4922 9.98788C39.734 10.0047 39.1005 10.2663 38.8775 10.8411C38.8338 10.9499 38.8094 11.0654 38.8054 11.1824C38.7846 11.9399 39.8454 12.2138 41.1306 12.4332C43.5197 12.84 45.3273 13.5361 45.3273 15.9798C45.3273 18.0551 43.6676 19.9306 40.4157 19.8731C38.272 19.83 36.7511 19.1102 35.9361 18.4117C35.9083 18.388 35.5981 18.074 35.7644 17.6964C35.9547 17.2102 36.2759 16.6531 36.528 16.3573C36.6682 16.1673 37.0381 16.1371 37.2303 16.2555C37.9021 16.6704 39.0077 17.3356 40.2821 17.3797C40.3827 17.3831 40.4823 17.3837 40.5802 17.3812C41.7265 17.3536 42.4201 16.9216 42.4056 16.194C42.3932 15.553 41.4843 15.1785 40.0369 14.9074C37.7286 14.4753 35.8712 13.7192 35.8712 11.4116ZM56.8424 14.5783C55.2146 14.5995 53.7221 15.0416 53.6791 16.3058C53.6786 17.309 54.4975 17.8017 55.6469 17.7372C56.7494 17.6317 57.5902 17.1565 57.9607 16.526C58.0977 16.2923 58.1185 15.4179 58.1102 15.0442C58.1081 14.9646 57.9498 14.8141 57.8805 14.7851C57.5346 14.6403 57.2788 14.5959 56.8424 14.5783ZM51.426 9.48433C52.1872 8.80744 53.6964 7.75382 56.1018 7.80936C59.276 7.87495 60.9529 9.35376 61.1091 12.8913C61.1734 14.3502 61.0668 18.4193 61.0414 19.4332C61.0377 19.5786 60.9881 19.6792 60.7909 19.6829C60.2681 19.7038 59.0605 19.6955 58.5056 19.6883C58.2256 19.6748 58.1931 19.5367 58.1895 19.3922C58.1871 19.2976 58.1789 19.0173 58.173 18.7887C58.1699 18.6674 58.0552 18.6709 58.0259 18.702C57.2813 19.492 56.0619 19.8735 54.7651 19.8735C52.7942 19.8735 50.8292 18.7213 50.8353 16.4395C50.8413 14.1027 52.5087 12.95 54.3404 12.6782C55.5134 12.5047 56.8355 12.659 57.8367 13.0543C57.9007 13.0798 58.0315 13.0429 58.0326 12.9527C58.0366 12.6549 58.0221 12.0874 57.9646 11.8185C57.8176 11.1332 57.2424 10.5818 56.0338 10.4332C55.7849 10.4027 55.5343 10.3927 55.2835 10.4125C54.3228 10.4875 53.1666 11.232 52.6878 11.5107C52.5752 11.5761 52.3988 11.5282 52.3417 11.4551C52.0623 11.0964 51.36 10.0473 51.3047 9.87966C51.2494 9.71246 51.3276 9.57228 51.426 9.48433ZM62.1557 13.8345C62.1369 10.5753 64.422 7.82587 68.1325 7.8017C70.4479 7.78669 72.1299 8.8298 72.4265 9.32179C72.4868 9.43736 72.4558 9.53386 72.4141 9.65018C72.2181 10.0614 71.723 10.856 71.3702 11.3062C71.2199 11.4981 71.0568 11.3337 70.8673 11.2084C70.3412 10.8602 69.3417 10.4344 68.358 10.4344C66.5734 10.4347 65.2445 11.6507 65.2593 13.8879C65.2732 16.0347 66.5461 17.2146 68.3642 17.2574C69.3147 17.2811 70.2355 16.7382 70.7309 16.2935C70.8865 16.1586 71.0475 16.2261 71.2252 16.3642C71.5741 16.7185 72.0745 17.2656 72.3519 17.6422C72.5336 17.8514 72.3977 18.0561 72.3323 18.1384C71.5795 19.085 70.1257 19.8816 68.2017 19.8924C64.1731 19.9205 62.1743 17.1052 62.1557 13.8345ZM81.3862 19.7455C81.5753 19.7314 83.5932 19.4546 84.2126 19.3137C84.3664 19.2789 84.421 19.1504 84.3351 19.0231C83.9892 18.5077 83.0799 17.0441 82.1275 15.7338C81.2515 14.5291 80.3282 13.4695 80.0296 13.0618C79.9568 12.9628 79.9608 12.8652 80.0401 12.7884C80.6081 12.236 82.9841 9.92094 83.8775 8.96488C84.2233 8.59296 84.0157 8.43297 83.7219 8.34607C83.1545 8.17797 82.2367 7.96845 81.7147 7.85904C81.4946 7.81281 81.2296 7.82902 81.0372 8.02563C80.144 8.85336 77.418 11.5722 76.6042 12.3849C76.4577 12.5316 76.3724 12.499 76.3716 12.2895C76.365 10.7226 76.3339 4.01395 76.2775 2.9105C76.2736 2.76462 76.0971 2.65385 75.9975 2.6486C75.4858 2.62204 74.1931 2.61438 73.6837 2.6441C73.541 2.66016 73.4046 2.80469 73.3922 2.92686C73.2747 4.69129 73.4421 17.6435 73.5118 19.4554C73.5168 19.5864 73.615 19.688 73.7402 19.6954C74.2484 19.7246 75.5055 19.7227 76.0924 19.7117C76.3812 19.7117 76.4165 19.51 76.4165 19.51L76.46 16.0344C76.46 16.0344 76.4897 15.8799 76.5379 15.8288C76.7448 15.6074 77.3172 14.9978 77.5613 14.7622C77.6199 14.7056 77.7123 14.7096 77.7722 14.7896C78.0621 15.1783 78.889 16.4421 79.6555 17.5707C80.3598 18.6075 81.0172 19.5277 81.0631 19.5927C81.1692 19.7428 81.2929 19.7484 81.3862 19.7455ZM47.0667 19.7335C47.2442 19.7394 48.5906 19.7379 49.1872 19.7371C49.3881 19.741 49.4925 19.5899 49.4991 19.4564C49.6258 16.9161 49.5716 4.82112 49.4916 2.91125C49.4849 2.74616 49.4138 2.68417 49.3003 2.66916C48.7883 2.60102 47.3333 2.61693 46.8669 2.7382C46.7757 2.76177 46.7219 2.83066 46.7191 2.91921C46.6049 7.84208 46.6819 19.1917 46.7061 19.4066C46.7301 19.6218 46.8431 19.726 47.0667 19.7335Z" fill="#919EAB"/>
<path d="M11.0315 14.6825C10.2018 14.6888 9.49888 14.1974 9.23971 13.4304C9.23009 13.4015 9.22113 13.3723 9.21282 13.3429C8.93039 12.3608 9.47803 11.3333 10.4596 11.0043L26.2031 5.76275C26.39 5.70901 26.5835 5.68094 26.7781 5.6793C27.6299 5.6727 28.3521 6.17489 28.6176 6.95805L28.6412 7.0337C28.9357 8.0567 28.204 8.96983 27.3272 9.2625C27.3266 9.26295 27.1671 9.31653 11.671 14.5743C11.465 14.644 11.2491 14.6806 11.0315 14.6825Z" fill="#919EAB"/>
<path d="M13.6556 22.3767C12.8193 22.3827 12.114 21.8982 11.8578 21.1422C11.8481 21.1135 11.8391 21.0845 11.8307 21.0553C11.5443 20.0615 12.0913 19.0232 13.0762 18.6937L28.8203 13.4042C29.0238 13.3366 29.2339 13.3021 29.4452 13.3002C30.2837 13.2939 31.0204 13.803 31.2803 14.5675L31.3045 14.6471C31.4566 15.1755 31.3667 15.7694 31.0644 16.2381C30.839 16.5866 30.1283 16.8934 30.1283 16.8934L14.3243 22.2634C14.1088 22.3359 13.8831 22.3739 13.6556 22.3767Z" fill="#919EAB"/>
<path d="M26.7617 22.4102C26.3536 22.4141 25.9548 22.2895 25.6223 22.0543C25.2898 21.8192 25.0407 21.4854 24.9108 21.101L19.6564 5.59094L19.6302 5.50389C19.3455 4.51481 19.8929 3.48311 20.8742 3.15442C21.0705 3.08883 21.2735 3.05461 21.4779 3.05281C21.7814 3.05056 22.0752 3.11855 22.3519 3.25438C22.5798 3.36639 22.7832 3.52207 22.9503 3.71247C23.1175 3.90287 23.2451 4.12423 23.3259 4.36383L28.5798 19.8725L28.5951 19.9223C28.8902 20.9492 28.3439 21.9815 27.3627 22.3102C27.1688 22.3746 26.966 22.4083 26.7617 22.4102Z" fill="#919EAB"/>
<path d="M18.9513 25.0226C18.543 25.0264 18.1439 24.9017 17.8113 24.6664C17.4787 24.431 17.2296 24.097 17.0997 23.7123L11.8467 8.20287C11.7653 7.96359 11.7322 7.71072 11.7492 7.45871C11.7663 7.20671 11.8332 6.96053 11.9462 6.73427C12.0591 6.508 12.2159 6.3061 12.4075 6.14011C12.599 5.97412 12.8217 5.84732 13.0626 5.76695C13.2567 5.70246 13.4598 5.66863 13.6645 5.66669C14.0726 5.66268 14.4716 5.7872 14.8041 6.02239C15.1367 6.25758 15.3858 6.59137 15.5157 6.9759L20.7688 22.4859C20.8503 22.7253 20.8834 22.9783 20.8662 23.2304C20.8491 23.4826 20.7821 23.7288 20.669 23.9552C20.5559 24.1815 20.399 24.3834 20.2072 24.5494C20.0155 24.7154 19.7926 24.8421 19.5515 24.9223C19.3578 24.9868 19.1556 25.0208 18.9513 25.0226Z" fill="#919EAB"/>
<path d="M24.1714 18.9173L27.8351 17.6725L26.6374 14.138L22.9694 15.3697L24.1714 18.9173Z" fill="#919EAB"/>
<path d="M16.3731 21.567L20.0366 20.3223L18.8298 16.7607L15.1628 17.993L16.3731 21.567Z" fill="#919EAB"/>
<path d="M21.5628 11.2184L25.2268 9.97522L24.0432 6.48195L20.3724 7.70411L21.5628 11.2184Z" fill="#919EAB"/>
<path d="M13.7638 13.8645L17.4278 12.6213L16.2297 9.08348L12.5589 10.3055L13.7638 13.8645Z" fill="#919EAB"/>
</g>
</svg>
