<svg width="94" height="28" viewBox="0 0 94 28" fill="none" xmlns="http://www.w3.org/2000/svg">
<mask id="mask0_22616_9406" style="mask-type:alpha" maskUnits="userSpaceOnUse" x="0" y="0" width="94" height="28">
<rect width="93.3333" height="28" fill="#919EAB"/>
</mask>
<g mask="url(#mask0_22616_9406)">
<path fill-rule="evenodd" clip-rule="evenodd" d="M13.1844 18.6541H20.4238V21.6715H9.95557V6.125H13.1844V18.6541ZM30.5981 17.9921C29.2575 19.0157 28.4916 19.2599 27.269 19.2599C26.1688 19.2599 25.3074 18.9075 24.7002 18.2895L32.8435 14.8042C32.6657 13.5055 32.1879 12.3451 31.4527 11.4629C30.3827 10.181 28.7991 9.50269 26.8708 9.50269C23.3684 9.50269 20.7275 12.1683 20.7275 15.6892C20.7275 19.3014 23.3747 21.875 27.2219 21.875C29.3775 21.875 31.5814 20.821 32.6124 19.5897L30.5981 17.9921ZM40.955 9.5033C39.6195 9.5033 38.1007 10.142 37.1726 11.4207L37.1732 11.4182L37.1726 11.4188L37.1732 9.70401H33.9879V21.6715H37.1726V14.8619C37.1726 13.6363 38.0937 12.3334 39.7991 12.3334C41.117 12.3334 42.4809 13.2793 42.4809 14.8619V21.6715H45.6662V14.253C45.6662 11.5004 43.7574 9.5033 40.955 9.5033ZM68.3039 9.70471L65.4243 17.8566L62.5447 9.70471H58.906L63.6788 21.6684H67.1692L71.9419 9.70471H68.3039ZM26.9295 12.1171C25.886 12.1171 25.0219 12.5583 24.4795 13.3098C23.9846 13.9952 23.6814 14.9513 23.8334 16.1737L29.3983 13.7917C28.9481 12.7934 28.0773 12.1171 26.9295 12.1171ZM77.6635 12.3187C75.8847 12.3187 74.5929 13.7095 74.5929 15.6879C74.5929 17.5769 75.9612 19.0571 77.7062 19.0571C79.4857 19.0571 80.7766 17.6281 80.7766 15.6879C80.7766 13.7989 79.409 12.3187 77.6635 12.3187ZM71.4496 15.688C71.4496 19.1958 74.1792 21.8733 77.6627 21.8733C81.17 21.8733 83.9178 19.1557 83.9178 15.688C83.9178 12.18 81.189 9.50269 77.7055 9.50269C74.198 9.50269 71.4496 12.2195 71.4496 15.688ZM53.1374 12.3187C51.3586 12.3187 50.0676 13.7095 50.0676 15.6879C50.0676 17.5769 51.4352 19.0571 53.1807 19.0571C54.9596 19.0571 56.2505 17.6281 56.2505 15.6879C56.2505 13.7989 54.8829 12.3187 53.1374 12.3187ZM46.9279 15.6881C46.9279 19.1958 49.6567 21.8734 53.1402 21.8734C56.6477 21.8734 59.396 19.1558 59.396 15.6881C59.396 12.1801 56.6665 9.50275 53.1836 9.50275C49.6755 9.50275 46.9279 12.2196 46.9279 15.6881Z" fill="#919EAB"/>
</g>
</svg>
