<svg width="94" height="28" viewBox="0 0 94 28" fill="none" xmlns="http://www.w3.org/2000/svg">
<mask id="mask0_22616_9397" style="mask-type:alpha" maskUnits="userSpaceOnUse" x="0" y="0" width="94" height="28">
<rect width="93.3333" height="28" fill="#919EAB"/>
</mask>
<g mask="url(#mask0_22616_9397)">
<path d="M20.3458 2.625C14.1214 2.625 9.0752 7.6395 9.0752 13.8251C9.0752 20.0109 14.1214 25.025 20.3458 25.025C26.571 25.025 31.6166 20.0109 31.6166 13.8251C31.6166 7.6399 26.571 2.62553 20.3457 2.62553L20.3458 2.625ZM25.5145 18.7787C25.4664 18.857 25.4032 18.9251 25.3286 18.9792C25.254 19.0332 25.1694 19.0721 25.0796 19.0936C24.9899 19.1151 24.8967 19.1187 24.8055 19.1044C24.7143 19.0901 24.6269 19.058 24.5482 19.0101C21.9019 17.4038 18.5706 17.04 14.6475 17.9308C14.4658 17.9718 14.2752 17.9395 14.1175 17.841C13.9598 17.7424 13.8479 17.5856 13.8064 17.4051C13.7858 17.3158 13.7831 17.2232 13.7985 17.1328C13.8139 17.0424 13.8471 16.9559 13.8961 16.8783C13.9452 16.8006 14.0092 16.7334 14.0845 16.6803C14.1598 16.6273 14.2448 16.5896 14.3348 16.5692C18.6281 15.5945 22.3108 16.0142 25.2816 17.8184C25.6127 18.0204 25.7177 18.4497 25.5145 18.7787ZM26.894 15.7291C26.6396 16.1399 26.0986 16.2697 25.6854 16.0169C22.6559 14.1664 18.0378 13.6305 14.4545 14.7114C13.9897 14.8509 13.4989 14.5906 13.3579 14.1296C13.2906 13.908 13.3145 13.6688 13.4243 13.4647C13.5342 13.2605 13.721 13.108 13.9438 13.0405C18.037 11.8063 23.1256 12.4042 26.6046 14.5287C27.0178 14.7815 27.1484 15.3191 26.894 15.7292V15.7291ZM27.0124 12.5534C23.3799 10.4094 17.3868 10.2122 13.9187 11.2582C13.3618 11.4261 12.7728 11.1137 12.604 10.5602C12.5229 10.2943 12.5513 10.0073 12.6831 9.76222C12.8149 9.51716 13.0392 9.33414 13.3067 9.2534C17.2879 8.05237 23.9062 8.28442 28.0883 10.7516C28.2075 10.8217 28.3116 10.9144 28.3947 11.0245C28.4777 11.1347 28.5381 11.26 28.5724 11.3933C28.6066 11.5267 28.6141 11.6654 28.5943 11.8016C28.5745 11.9378 28.5279 12.0688 28.4571 12.1871C28.161 12.6849 27.5123 12.849 27.013 12.5534H27.0124ZM39.7389 12.9643C37.7928 12.5031 37.4469 12.1795 37.4469 11.4994C37.4469 10.8569 38.0552 10.4245 38.961 10.4245C39.8385 10.4245 40.7079 10.7528 41.6204 11.4288C41.6473 11.4492 41.6823 11.4574 41.716 11.452C41.7329 11.4496 41.7491 11.4438 41.7637 11.4349C41.7783 11.426 41.7909 11.4143 41.8007 11.4004L42.7509 10.0694C42.7697 10.043 42.7776 10.0105 42.7731 9.97848C42.7686 9.94648 42.752 9.91738 42.7267 9.89711C41.6406 9.03138 40.4185 8.61049 38.9892 8.61049C36.8884 8.61049 35.42 9.86354 35.42 11.6564C35.42 13.579 36.6865 14.2597 38.8748 14.7852C40.7362 15.2115 41.0511 15.5686 41.0511 16.2068C41.0511 16.9143 40.4159 17.3543 39.393 17.3543C38.2571 17.3543 37.3298 16.9732 36.2935 16.0824C36.2676 16.0607 36.2344 16.0497 36.2006 16.0517C36.1656 16.0543 36.1347 16.0704 36.1131 16.0958L35.0472 17.3557C35.0028 17.4092 35.0082 17.4867 35.0593 17.5322C36.2652 18.6022 37.7484 19.1666 39.3499 19.1666C41.6137 19.1666 43.0766 17.9375 43.0766 16.0343C43.0807 14.4284 42.113 13.539 39.7429 12.966L39.7389 12.9643ZM48.199 11.0571C47.2178 11.0571 46.413 11.4412 45.7482 12.2283V11.3424C45.7483 11.3089 45.7351 11.2767 45.7113 11.2529C45.6876 11.2291 45.6554 11.2156 45.6216 11.2154H43.8788C43.8088 11.2154 43.7522 11.2724 43.7522 11.3424V21.1861C43.7522 21.2557 43.8088 21.3132 43.8788 21.3132H45.6216C45.6916 21.3132 45.7482 21.2557 45.7482 21.1861V18.0792C46.413 18.8188 47.2178 19.1813 48.199 19.1813C50.0226 19.1813 51.8691 17.7863 51.8691 15.1196C51.8718 12.4523 50.0253 11.0569 48.2003 11.0569L48.199 11.0571ZM49.8423 15.1196C49.8423 16.477 49.0011 17.4252 47.7952 17.4252C46.6041 17.4252 45.7051 16.4342 45.7051 15.1196C45.7051 13.8049 46.6041 12.8141 47.7952 12.8141C48.9809 12.814 49.8423 13.7833 49.8423 15.1194V15.1196ZM56.5998 11.0571C54.2513 11.0571 52.4115 12.8541 52.4115 15.1486C52.4115 17.4185 54.2392 19.196 56.5716 19.196C58.9282 19.196 60.7733 17.4051 60.7733 15.1196C60.7733 12.8418 58.9403 11.0573 56.5998 11.0573V11.0571ZM56.5998 17.4386C55.3509 17.4386 54.4088 16.4408 54.4088 15.1189C54.4088 13.791 55.3186 12.8273 56.5716 12.8273C57.8286 12.8273 58.7761 13.8247 58.7761 15.1479C58.7761 16.4756 57.8609 17.4386 56.5998 17.4386ZM65.788 11.2154H63.8702V9.26731C63.8702 9.25073 63.867 9.23429 63.8607 9.21895C63.8544 9.2036 63.8451 9.18965 63.8333 9.17787C63.8216 9.1661 63.8076 9.15674 63.7922 9.15033C63.7769 9.14392 63.7603 9.14059 63.7437 9.14052H62.0008C61.9308 9.14052 61.8729 9.19749 61.8729 9.26731V11.2154H61.0358C60.9658 11.2154 60.9093 11.2724 60.9093 11.3424V12.8305C60.9093 12.9004 60.9658 12.9575 61.0358 12.9575H61.8729V16.8086C61.8729 18.3641 62.6522 19.1532 64.1905 19.1532C64.815 19.1532 65.3331 19.0248 65.8217 18.7493C65.8621 18.7279 65.8863 18.6851 65.8863 18.6396V17.2219C65.8863 17.1791 65.8634 17.1377 65.8257 17.1149C65.8074 17.1033 65.7863 17.0966 65.7645 17.0957C65.7428 17.0948 65.7212 17.0995 65.7019 17.1096C65.3668 17.2768 65.0424 17.3543 64.679 17.3543C64.1205 17.3543 63.8702 17.1015 63.8702 16.5371V12.9581H65.788C65.858 12.9581 65.9145 12.9012 65.9145 12.8312V11.3432C65.9151 11.3266 65.9123 11.31 65.9062 11.2945C65.9002 11.279 65.891 11.2649 65.8793 11.2531C65.8676 11.2412 65.8536 11.2318 65.8381 11.2255C65.8227 11.2192 65.8061 11.216 65.7894 11.2162L65.788 11.2154ZM72.4689 11.2231V10.9838C72.4689 10.2799 72.7407 9.96599 73.3491 9.96599C73.7125 9.96599 74.0045 10.0377 74.3316 10.146C74.3719 10.1586 74.4137 10.1523 74.446 10.1284C74.4623 10.1166 74.4757 10.1011 74.4848 10.0832C74.4939 10.0653 74.4986 10.0455 74.4984 10.0254V8.56622C74.4988 8.53896 74.4901 8.51235 74.4739 8.49041C74.4576 8.46847 74.4346 8.45241 74.4083 8.44464C74.0637 8.34259 73.6223 8.23787 72.9601 8.23787C71.3518 8.23787 70.4999 9.13851 70.4999 10.8415V11.2079H69.6628C69.5928 11.2079 69.5349 11.2649 69.5349 11.3347V12.8305C69.5349 12.9004 69.5928 12.9575 69.6628 12.9575H70.4999V18.8964C70.4999 18.9673 70.5578 19.0235 70.6277 19.0235H72.3693C72.4406 19.0235 72.4971 18.9673 72.4971 18.8964V12.9579H74.1243L76.6168 18.8964C76.3342 19.5197 76.0556 19.644 75.6761 19.644C75.3692 19.644 75.0449 19.5531 74.7151 19.3725C74.6839 19.3569 74.6478 19.3535 74.6142 19.3632C74.5805 19.3752 74.5523 19.3993 74.5388 19.4314L73.948 20.7193C73.9197 20.7809 73.9439 20.8518 74.0032 20.8839C74.6196 21.2155 75.1754 21.3573 75.8631 21.3573C77.1498 21.3573 77.8617 20.7608 78.4876 19.1585L81.5104 11.3964C81.5182 11.3772 81.5211 11.3564 81.5188 11.3358C81.5164 11.3152 81.5089 11.2955 81.4969 11.2786C81.4855 11.2616 81.4701 11.2477 81.4521 11.2381C81.434 11.2285 81.4138 11.2234 81.3933 11.2235H79.5791C79.5239 11.2235 79.4754 11.2578 79.4579 11.3085L77.5993 16.5826L75.5644 11.305C75.5553 11.2811 75.5391 11.2605 75.5179 11.2459C75.4968 11.2314 75.4717 11.2235 75.4459 11.2235H72.4689V11.2231ZM68.5955 11.2154H66.8526C66.7826 11.2154 66.7247 11.2724 66.7247 11.3424V18.8964C66.7247 18.9673 66.7826 19.0235 66.8526 19.0235H68.5955C68.6655 19.0235 68.7234 18.9673 68.7234 18.8964V11.3429C68.7234 11.3262 68.7201 11.3097 68.7137 11.2942C68.7073 11.2788 68.6979 11.2648 68.686 11.253C68.6741 11.2412 68.66 11.2319 68.6445 11.2255C68.6289 11.2192 68.6123 11.2159 68.5955 11.216V11.2154ZM67.7341 7.77565C67.0437 7.77565 66.4838 8.33096 66.4838 9.01694C66.4838 9.70331 67.0437 10.2593 67.7341 10.2593C68.4246 10.2593 68.9831 9.70331 68.9831 9.01694C68.9831 8.33109 68.4232 7.77565 67.7341 7.77565ZM82.9989 13.6444C82.3098 13.6444 81.7728 13.094 81.7728 12.4257C81.7728 11.7574 82.3165 11.2007 83.0056 11.2007C83.6947 11.2007 84.2317 11.7509 84.2317 12.4187C84.2317 13.0871 83.688 13.6444 82.9989 13.6444ZM83.0056 11.3219C82.3771 11.3219 81.902 11.8181 81.902 12.4257C81.902 13.033 82.3744 13.5225 82.9989 13.5225C83.6274 13.5225 84.1025 13.0267 84.1025 12.4187C84.1025 11.8114 83.6301 11.3219 83.0056 11.3219ZM83.2775 12.5441L83.6247 13.0266H83.3313L83.0191 12.5839H82.7513V13.0266H82.5063V11.7475H83.0797C83.3798 11.7475 83.5763 11.8995 83.5763 12.1555C83.5776 12.3652 83.4551 12.4934 83.2788 12.5441H83.2775ZM83.0702 11.9669H82.7513V12.3715H83.0702C83.229 12.3715 83.3246 12.2941 83.3246 12.169C83.3246 12.0374 83.229 11.9669 83.0702 11.9669Z" fill="#919EAB"/>
</g>
</svg>
