<svg width="94" height="28" viewBox="0 0 94 28" fill="none" xmlns="http://www.w3.org/2000/svg">
<mask id="mask0_22616_9403" style="mask-type:alpha" maskUnits="userSpaceOnUse" x="0" y="0" width="94" height="28">
<rect x="0.666504" width="93.3333" height="28" fill="#919EAB"/>
</mask>
<g mask="url(#mask0_22616_9403)">
<path fill-rule="evenodd" clip-rule="evenodd" d="M23.8454 21.622C23.2688 21.7242 22.6861 21.7836 22.0938 21.8441C21.6948 21.8848 21.2914 21.9259 20.8825 21.9809L17.7841 12.8208V22.3741C16.9135 22.4665 16.1117 22.5869 15.2918 22.7099L15.0244 22.75V5.25H17.598L21.1195 15.1793V5.25H23.8454V21.622ZM29.1795 11.6587C29.7154 11.6587 30.3969 11.6453 31.0641 11.6322C31.7038 11.6197 32.3303 11.6074 32.8027 11.6074V14.3417C31.6005 14.3417 30.1954 14.3417 29.1795 14.393V18.4605C29.6308 18.4314 30.0822 18.3996 30.534 18.3677C31.6751 18.2872 32.8186 18.2066 33.9709 18.1698V20.8015L26.4705 21.3998V5.25H33.9709V7.98438H29.1795V11.6587ZM41.2346 7.98444H44.045L44.0452 5.25H35.7153V7.98444H38.5257V20.5966C39.406 20.5625 40.3203 20.5625 41.2346 20.5625V7.98444ZM48.4458 11.4708H52.1537V14.2051H48.4458V20.4088H45.7875V5.25H53.3558V7.98438H48.4458V11.4708ZM61.1323 18.181C60.0163 18.1115 58.8831 18.041 57.7588 18.0161V5.25H55.05V20.5966C57.5218 20.648 59.943 20.8016 62.364 20.9556V18.2553C61.9569 18.2323 61.5455 18.2067 61.1323 18.181ZM64.6486 21.1436L64.7908 21.152C65.612 21.2007 66.4745 21.2518 67.3067 21.3486V5.25H64.6486V21.1436ZM75.7373 13.5728L79.1743 5.25H76.2114L74.3151 9.84718L72.5373 5.25H69.6254L72.7746 13.4701L69.2869 21.4853C69.6928 21.5418 70.093 21.5837 70.4921 21.6255C71.0585 21.6849 71.6229 21.744 72.199 21.8443L74.1797 17.1959L76.1267 22.2544C76.3805 22.2971 76.6342 22.3408 76.888 22.3846C77.6501 22.516 78.4122 22.6474 79.1743 22.75L75.7373 13.5728Z" fill="#919EAB"/>
</g>
</svg>
