<svg width="25" height="24" viewBox="0 0 25 24" fill="none" xmlns="http://www.w3.org/2000/svg">
<path d="M12.5 13.5C11.7583 13.5 11.0333 13.2801 10.4166 12.868C9.79994 12.456 9.31929 11.8703 9.03546 11.1851C8.75163 10.4998 8.67737 9.74584 8.82206 9.01841C8.96676 8.29098 9.32391 7.6228 9.84836 7.09835C10.3728 6.5739 11.041 6.21675 11.7684 6.07205C12.4959 5.92736 13.2499 6.00162 13.9351 6.28545C14.6203 6.56928 15.206 7.04993 15.618 7.66661C16.0301 8.2833 16.25 9.00832 16.25 9.75C16.2489 10.7442 15.8534 11.6974 15.1504 12.4004C14.4474 13.1034 13.4942 13.4989 12.5 13.5ZM12.5 7.5C12.055 7.5 11.62 7.63196 11.25 7.87919C10.88 8.12643 10.5916 8.47783 10.4213 8.88896C10.251 9.3001 10.2064 9.75249 10.2932 10.189C10.3801 10.6254 10.5944 11.0263 10.909 11.341C11.2237 11.6557 11.6246 11.8699 12.0611 11.9568C12.4975 12.0436 12.9499 11.999 13.361 11.8287C13.7722 11.6584 14.1236 11.37 14.3708 11C14.6181 10.63 14.75 10.195 14.75 9.75C14.7494 9.15346 14.5121 8.58155 14.0903 8.15973C13.6685 7.73792 13.0965 7.50065 12.5 7.5Z" fill="#919EAB"/>
<path d="M12.5 22.5L6.17338 15.0385C6.13746 14.9957 5.91223 14.6999 5.91223 14.6999C4.83141 13.2763 4.24748 11.5374 4.25001 9.75C4.25001 7.56196 5.1192 5.46354 6.66638 3.91637C8.21355 2.36919 10.312 1.5 12.5 1.5C14.688 1.5 16.7865 2.36919 18.3336 3.91637C19.8808 5.46354 20.75 7.56196 20.75 9.75C20.7527 11.5367 20.1692 13.2749 19.0889 14.698L19.0878 14.6999C19.0878 14.6999 18.8628 14.9956 18.8293 15.0354L12.5 22.5ZM7.10938 13.7963C7.11013 13.7968 7.28443 14.0274 7.32433 14.077L12.5 20.1809L17.6825 14.0684C17.7154 14.027 17.8912 13.7948 17.8916 13.7942C18.7746 12.631 19.2517 11.2103 19.25 9.75C19.25 7.95979 18.5388 6.2429 17.273 4.97703C16.0071 3.71116 14.2902 3 12.5 3C10.7098 3 8.99291 3.71116 7.72704 4.97703C6.46117 6.2429 5.75001 7.95979 5.75001 9.75C5.74835 11.2111 6.22587 12.6325 7.10938 13.7963Z" fill="#919EAB"/>
</svg>
