<svg width="116" height="30" viewBox="0 0 116 30" fill="none" xmlns="http://www.w3.org/2000/svg">
<path fill-rule="evenodd" clip-rule="evenodd" d="M16 9.75C14.7574 9.75 13.75 10.7574 13.75 12V18C13.75 19.2426 14.7574 20.25 16 20.25H22C23.2426 20.25 24.25 19.2426 24.25 18V12C24.25 10.7574 23.2426 9.75 22 9.75H16ZM12.25 12C12.25 9.92893 13.9289 8.25 16 8.25H22C24.0711 8.25 25.75 9.92893 25.75 12V18C25.75 20.0711 24.0711 21.75 22 21.75H16C13.9289 21.75 12.25 20.0711 12.25 18V12ZM19 13.5C18.1716 13.5 17.5 14.1716 17.5 15C17.5 15.8284 18.1716 16.5 19 16.5C19.8284 16.5 20.5 15.8284 20.5 15C20.5 14.1716 19.8284 13.5 19 13.5ZM16 15C16 13.3431 17.3431 12 19 12C20.6569 12 22 13.3431 22 15C22 16.6569 20.6569 18 19 18C17.3431 18 16 16.6569 16 15Z" fill="#E02D69"/>
<path d="M38.717 10.926V20H36.897V10.926H38.717ZM44.5062 12.694C45.3642 12.694 46.0575 12.967 46.5862 13.513C47.1148 14.0503 47.3792 14.8043 47.3792 15.775V20H45.5592V16.022C45.5592 15.45 45.4162 15.0123 45.1302 14.709C44.8442 14.397 44.4542 14.241 43.9602 14.241C43.4575 14.241 43.0588 14.397 42.7642 14.709C42.4782 15.0123 42.3352 15.45 42.3352 16.022V20H40.5152V12.798H42.3352V13.695C42.5778 13.383 42.8855 13.1403 43.2582 12.967C43.6395 12.785 44.0555 12.694 44.5062 12.694ZM51.8659 20.117C51.2766 20.117 50.7479 20.013 50.2799 19.805C49.8119 19.5883 49.4392 19.298 49.1619 18.934C48.8932 18.57 48.7459 18.167 48.7199 17.725H50.5529C50.5876 18.0023 50.7219 18.232 50.9559 18.414C51.1986 18.596 51.4976 18.687 51.8529 18.687C52.1996 18.687 52.4682 18.6177 52.6589 18.479C52.8582 18.3403 52.9579 18.1627 52.9579 17.946C52.9579 17.712 52.8366 17.5387 52.5939 17.426C52.3599 17.3047 51.9829 17.1747 51.4629 17.036C50.9256 16.906 50.4836 16.7717 50.1369 16.633C49.7989 16.4943 49.5042 16.282 49.2529 15.996C49.0102 15.71 48.8889 15.3243 48.8889 14.839C48.8889 14.4403 49.0016 14.0763 49.2269 13.747C49.4609 13.4177 49.7902 13.1577 50.2149 12.967C50.6482 12.7763 51.1552 12.681 51.7359 12.681C52.5939 12.681 53.2786 12.8977 53.7899 13.331C54.3012 13.7557 54.5829 14.332 54.6349 15.06H52.8929C52.8669 14.774 52.7456 14.5487 52.5289 14.384C52.3209 14.2107 52.0392 14.124 51.6839 14.124C51.3546 14.124 51.0989 14.1847 50.9169 14.306C50.7436 14.4273 50.6569 14.5963 50.6569 14.813C50.6569 15.0557 50.7782 15.242 51.0209 15.372C51.2636 15.4933 51.6406 15.619 52.1519 15.749C52.6719 15.879 53.1009 16.0133 53.4389 16.152C53.7769 16.2907 54.0672 16.5073 54.3099 16.802C54.5612 17.088 54.6912 17.4693 54.6999 17.946C54.6999 18.362 54.5829 18.7347 54.3489 19.064C54.1236 19.3933 53.7942 19.6533 53.3609 19.844C52.9362 20.026 52.4379 20.117 51.8659 20.117ZM58.3129 14.293V17.777C58.3129 18.0197 58.3692 18.1973 58.4819 18.31C58.6032 18.414 58.8025 18.466 59.0799 18.466H59.9249V20H58.7809C57.2469 20 56.4799 19.2547 56.4799 17.764V14.293H55.6219V12.798H56.4799V11.017H58.3129V12.798H59.9249V14.293H58.3129ZM60.7659 16.373C60.7659 15.645 60.9089 14.9993 61.1949 14.436C61.4896 13.8727 61.8839 13.4393 62.3779 13.136C62.8806 12.8327 63.4396 12.681 64.0549 12.681C64.5922 12.681 65.0602 12.7893 65.4589 13.006C65.8662 13.2227 66.1912 13.4957 66.4339 13.825V12.798H68.2669V20H66.4339V18.947C66.1999 19.285 65.8749 19.5667 65.4589 19.792C65.0516 20.0087 64.5792 20.117 64.0419 20.117C63.4352 20.117 62.8806 19.961 62.3779 19.649C61.8839 19.337 61.4896 18.8993 61.1949 18.336C60.9089 17.764 60.7659 17.1097 60.7659 16.373ZM66.4339 16.399C66.4339 15.957 66.3472 15.58 66.1739 15.268C66.0006 14.9473 65.7666 14.7047 65.4719 14.54C65.1772 14.3667 64.8609 14.28 64.5229 14.28C64.1849 14.28 63.8729 14.3623 63.5869 14.527C63.3009 14.6917 63.0669 14.9343 62.8849 15.255C62.7116 15.567 62.6249 15.9397 62.6249 16.373C62.6249 16.8063 62.7116 17.1877 62.8849 17.517C63.0669 17.8377 63.3009 18.0847 63.5869 18.258C63.8816 18.4313 64.1936 18.518 64.5229 18.518C64.8609 18.518 65.1772 18.4357 65.4719 18.271C65.7666 18.0977 66.0006 17.855 66.1739 17.543C66.3472 17.2223 66.4339 16.841 66.4339 16.399ZM72.8655 12.681C73.4028 12.681 73.8751 12.7893 74.2825 13.006C74.6898 13.214 75.0105 13.487 75.2445 13.825V12.798H77.0775V20.052C77.0775 20.7193 76.9431 21.313 76.6745 21.833C76.4058 22.3617 76.0028 22.7777 75.4655 23.081C74.9281 23.393 74.2781 23.549 73.5155 23.549C72.4928 23.549 71.6521 23.3107 70.9935 22.834C70.3435 22.3573 69.9751 21.7073 69.8885 20.884H71.6955C71.7908 21.2133 71.9945 21.4733 72.3065 21.664C72.6271 21.8633 73.0128 21.963 73.4635 21.963C73.9921 21.963 74.4211 21.8027 74.7505 21.482C75.0798 21.17 75.2445 20.6933 75.2445 20.052V18.934C75.0105 19.272 74.6855 19.5537 74.2695 19.779C73.8621 20.0043 73.3941 20.117 72.8655 20.117C72.2588 20.117 71.7041 19.961 71.2015 19.649C70.6988 19.337 70.3001 18.8993 70.0055 18.336C69.7195 17.764 69.5765 17.1097 69.5765 16.373C69.5765 15.645 69.7195 14.9993 70.0055 14.436C70.3001 13.8727 70.6945 13.4393 71.1885 13.136C71.6911 12.8327 72.2501 12.681 72.8655 12.681ZM75.2445 16.399C75.2445 15.957 75.1578 15.58 74.9845 15.268C74.8111 14.9473 74.5771 14.7047 74.2825 14.54C73.9878 14.3667 73.6715 14.28 73.3335 14.28C72.9955 14.28 72.6835 14.3623 72.3975 14.527C72.1115 14.6917 71.8775 14.9343 71.6955 15.255C71.5221 15.567 71.4355 15.9397 71.4355 16.373C71.4355 16.8063 71.5221 17.1877 71.6955 17.517C71.8775 17.8377 72.1115 18.0847 72.3975 18.258C72.6921 18.4313 73.0041 18.518 73.3335 18.518C73.6715 18.518 73.9878 18.4357 74.2825 18.271C74.5771 18.0977 74.8111 17.855 74.9845 17.543C75.1578 17.2223 75.2445 16.841 75.2445 16.399ZM80.675 13.916C80.909 13.5347 81.2123 13.2357 81.585 13.019C81.9663 12.8023 82.3997 12.694 82.885 12.694V14.605H82.404C81.832 14.605 81.3987 14.7393 81.104 15.008C80.818 15.2767 80.675 15.7447 80.675 16.412V20H78.855V12.798H80.675V13.916ZM83.6429 16.373C83.6429 15.645 83.7859 14.9993 84.0719 14.436C84.3665 13.8727 84.7609 13.4393 85.2549 13.136C85.7575 12.8327 86.3165 12.681 86.9319 12.681C87.4692 12.681 87.9372 12.7893 88.3359 13.006C88.7432 13.2227 89.0682 13.4957 89.3109 13.825V12.798H91.1439V20H89.3109V18.947C89.0769 19.285 88.7519 19.5667 88.3359 19.792C87.9285 20.0087 87.4562 20.117 86.9189 20.117C86.3122 20.117 85.7575 19.961 85.2549 19.649C84.7609 19.337 84.3665 18.8993 84.0719 18.336C83.7859 17.764 83.6429 17.1097 83.6429 16.373ZM89.3109 16.399C89.3109 15.957 89.2242 15.58 89.0509 15.268C88.8775 14.9473 88.6435 14.7047 88.3489 14.54C88.0542 14.3667 87.7379 14.28 87.3999 14.28C87.0619 14.28 86.7499 14.3623 86.4639 14.527C86.1779 14.6917 85.9439 14.9343 85.7619 15.255C85.5885 15.567 85.5019 15.9397 85.5019 16.373C85.5019 16.8063 85.5885 17.1877 85.7619 17.517C85.9439 17.8377 86.1779 18.0847 86.4639 18.258C86.7585 18.4313 87.0705 18.518 87.3999 18.518C87.7379 18.518 88.0542 18.4357 88.3489 18.271C88.6435 18.0977 88.8775 17.855 89.0509 17.543C89.2242 17.2223 89.3109 16.841 89.3109 16.399ZM101.865 12.694C102.749 12.694 103.46 12.967 103.997 13.513C104.543 14.0503 104.816 14.8043 104.816 15.775V20H102.996V16.022C102.996 15.4587 102.853 15.0297 102.567 14.735C102.281 14.4317 101.891 14.28 101.397 14.28C100.903 14.28 100.509 14.4317 100.214 14.735C99.9284 15.0297 99.7854 15.4587 99.7854 16.022V20H97.9654V16.022C97.9654 15.4587 97.8224 15.0297 97.5364 14.735C97.2504 14.4317 96.8604 14.28 96.3664 14.28C95.8637 14.28 95.4651 14.4317 95.1704 14.735C94.8844 15.0297 94.7414 15.4587 94.7414 16.022V20H92.9214V12.798H94.7414V13.669C94.9754 13.3657 95.2744 13.1273 95.6384 12.954C96.0111 12.7807 96.4184 12.694 96.8604 12.694C97.4237 12.694 97.9264 12.8153 98.3684 13.058C98.8104 13.292 99.1527 13.63 99.3954 14.072C99.6294 13.656 99.9674 13.3223 100.409 13.071C100.86 12.8197 101.345 12.694 101.865 12.694Z" fill="#E02D69"/>
<rect x="0.5" y="0.5" width="115" height="29" rx="7.5" stroke="#E02D69"/>
</svg>
