<svg width="101" height="30" viewBox="0 0 101 30" fill="none" xmlns="http://www.w3.org/2000/svg">
<path d="M24.7375 8.25H13.2625C12.7 8.25 12.25 8.7 12.25 9.20625V20.7375C12.25 21.2438 12.7 21.6937 13.2625 21.6937H24.7375C25.3 21.6937 25.75 21.2438 25.75 20.7375V9.20625C25.75 8.7 25.3 8.25 24.7375 8.25ZM16.2438 19.725H14.275V13.3125H16.2438V19.725ZM15.2875 12.4125C14.6687 12.4125 14.1063 11.9063 14.1063 11.2313C14.1063 10.5563 14.6125 10.05 15.2875 10.05C15.9062 10.05 16.4688 10.5563 16.4688 11.2313C16.4688 11.9063 15.9062 12.4125 15.2875 12.4125ZM23.7812 19.6687H21.8125V16.5188C21.8125 15.7875 21.8125 14.775 20.7438 14.775C19.675 14.775 19.5625 15.6188 19.5625 16.4062V19.6125H17.5938V13.3125H19.45V14.1562H19.5062C19.7875 13.65 20.4625 13.0875 21.4187 13.0875C23.4437 13.0875 23.8375 14.4375 23.8375 16.1813V19.6687H23.7812Z" fill="#007EBB"/>
<path d="M38.717 18.557H41.707V20H36.897V10.926H38.717V18.557ZM43.7868 11.94C43.4661 11.94 43.1975 11.8403 42.9808 11.641C42.7728 11.433 42.6688 11.1773 42.6688 10.874C42.6688 10.5707 42.7728 10.3193 42.9808 10.12C43.1975 9.912 43.4661 9.808 43.7868 9.808C44.1075 9.808 44.3718 9.912 44.5798 10.12C44.7965 10.3193 44.9048 10.5707 44.9048 10.874C44.9048 11.1773 44.7965 11.433 44.5798 11.641C44.3718 11.8403 44.1075 11.94 43.7868 11.94ZM44.6838 12.798V20H42.8638V12.798H44.6838ZM50.473 12.694C51.331 12.694 52.0243 12.967 52.553 13.513C53.0816 14.0503 53.346 14.8043 53.346 15.775V20H51.526V16.022C51.526 15.45 51.383 15.0123 51.097 14.709C50.811 14.397 50.421 14.241 49.927 14.241C49.4243 14.241 49.0256 14.397 48.731 14.709C48.445 15.0123 48.302 15.45 48.302 16.022V20H46.482V12.798H48.302V13.695C48.5446 13.383 48.8523 13.1403 49.225 12.967C49.6063 12.785 50.0223 12.694 50.473 12.694ZM59.3407 20L56.8967 16.932V20H55.0767V10.38H56.8967V15.853L59.3147 12.798H61.6807L58.5087 16.412L61.7067 20H59.3407ZM69.3635 16.243C69.3635 16.503 69.3462 16.737 69.3115 16.945H64.0465C64.0898 17.465 64.2718 17.8723 64.5925 18.167C64.9132 18.4617 65.3075 18.609 65.7755 18.609C66.4515 18.609 66.9325 18.3187 67.2185 17.738H69.1815C68.9735 18.4313 68.5748 19.0033 67.9855 19.454C67.3962 19.896 66.6725 20.117 65.8145 20.117C65.1212 20.117 64.4972 19.9653 63.9425 19.662C63.3965 19.35 62.9675 18.9123 62.6555 18.349C62.3522 17.7857 62.2005 17.1357 62.2005 16.399C62.2005 15.6537 62.3522 14.9993 62.6555 14.436C62.9588 13.8727 63.3835 13.4393 63.9295 13.136C64.4755 12.8327 65.1038 12.681 65.8145 12.681C66.4992 12.681 67.1102 12.8283 67.6475 13.123C68.1935 13.4177 68.6138 13.838 68.9085 14.384C69.2118 14.9213 69.3635 15.541 69.3635 16.243ZM67.4785 15.723C67.4698 15.255 67.3008 14.8823 66.9715 14.605C66.6422 14.319 66.2392 14.176 65.7625 14.176C65.3118 14.176 64.9305 14.3147 64.6185 14.592C64.3152 14.8607 64.1288 15.2377 64.0595 15.723H67.4785ZM70.2239 16.373C70.2239 15.645 70.3669 14.9993 70.6529 14.436C70.9476 13.8727 71.3463 13.4393 71.8489 13.136C72.3516 12.8327 72.9106 12.681 73.5259 12.681C73.9939 12.681 74.4403 12.785 74.8649 12.993C75.2896 13.1923 75.6276 13.461 75.8789 13.799V10.38H77.7249V20H75.8789V18.934C75.6536 19.2893 75.3373 19.5753 74.9299 19.792C74.5226 20.0087 74.0503 20.117 73.5129 20.117C72.9063 20.117 72.3516 19.961 71.8489 19.649C71.3463 19.337 70.9476 18.8993 70.6529 18.336C70.3669 17.764 70.2239 17.1097 70.2239 16.373ZM75.8919 16.399C75.8919 15.957 75.8053 15.58 75.6319 15.268C75.4586 14.9473 75.2246 14.7047 74.9299 14.54C74.6353 14.3667 74.3189 14.28 73.9809 14.28C73.6429 14.28 73.3309 14.3623 73.0449 14.527C72.7589 14.6917 72.5249 14.9343 72.3429 15.255C72.1696 15.567 72.0829 15.9397 72.0829 16.373C72.0829 16.8063 72.1696 17.1877 72.3429 17.517C72.5249 17.8377 72.7589 18.0847 73.0449 18.258C73.3396 18.4313 73.6516 18.518 73.9809 18.518C74.3189 18.518 74.6353 18.4357 74.9299 18.271C75.2246 18.0977 75.4586 17.855 75.6319 17.543C75.8053 17.2223 75.8919 16.841 75.8919 16.399ZM81.3225 10.926V20H79.5025V10.926H81.3225ZM87.1116 12.694C87.9696 12.694 88.663 12.967 89.1916 13.513C89.7203 14.0503 89.9846 14.8043 89.9846 15.775V20H88.1646V16.022C88.1646 15.45 88.0216 15.0123 87.7356 14.709C87.4496 14.397 87.0596 14.241 86.5656 14.241C86.063 14.241 85.6643 14.397 85.3696 14.709C85.0836 15.0123 84.9406 15.45 84.9406 16.022V20H83.1206V12.798H84.9406V13.695C85.1833 13.383 85.491 13.1403 85.8636 12.967C86.245 12.785 86.661 12.694 87.1116 12.694Z" fill="#007EBB"/>
<rect x="0.5" y="0.5" width="100" height="29" rx="7.5" stroke="#007EBB"/>
</svg>
