<svg width="92" height="30" viewBox="0 0 92 30" fill="none" xmlns="http://www.w3.org/2000/svg">
<path d="M16.705 20.0289C17.6551 20.0348 18.597 19.8521 19.476 19.4913C20.355 19.1304 21.1535 18.5986 21.8254 17.9268C22.4973 17.2549 23.029 16.4563 23.3899 15.5773C23.7507 14.6984 23.9335 13.7565 23.9275 12.8064C23.9275 12.6939 23.9275 12.587 23.9275 12.4745C24.42 12.1136 24.8463 11.6702 25.1875 11.1639C24.7237 11.3667 24.233 11.5012 23.7306 11.5632C24.2633 11.2459 24.6629 10.7463 24.8556 10.157C24.3592 10.4548 23.8149 10.6642 23.2469 10.7757C22.8643 10.3681 22.3581 10.098 21.8066 10.007C21.255 9.91608 20.6889 10.0094 20.1957 10.2727C19.7026 10.5359 19.3099 10.9543 19.0785 11.4632C18.8471 11.972 18.7899 12.5429 18.9156 13.0876C17.9065 13.0381 16.9192 12.7766 16.0178 12.3201C15.1165 11.8636 14.3214 11.2224 13.6844 10.4382C13.3631 10.9958 13.2658 11.6545 13.412 12.2812C13.5582 12.9078 13.9371 13.4554 14.4719 13.8132C14.0773 13.798 13.6919 13.6901 13.3469 13.4982V13.5264C13.3434 14.109 13.5397 14.6753 13.903 15.1308C14.2664 15.5863 14.7749 15.9034 15.3438 16.0295C14.9768 16.1282 14.5924 16.1436 14.2188 16.0745C14.3834 16.5714 14.6978 17.0052 15.1188 17.3164C15.5397 17.6276 16.0466 17.8009 16.57 17.8126C15.6752 18.5329 14.5631 18.9294 13.4144 18.9376C13.213 18.9318 13.012 18.9149 12.8125 18.887C13.9752 19.6277 15.3264 20.0183 16.705 20.012" fill="#00AAEC"/>
<path d="M43.072 10.926V12.395H40.654V20H38.834V12.395H36.416V10.926H43.072ZM54.3839 12.798L52.2779 20H50.3149L49.0019 14.969L47.6889 20H45.7129L43.5939 12.798H45.4399L46.7139 18.284L48.0919 12.798H50.0159L51.3679 18.271L52.6419 12.798H54.3839ZM56.2917 11.94C55.971 11.94 55.7023 11.8403 55.4857 11.641C55.2777 11.433 55.1737 11.1773 55.1737 10.874C55.1737 10.5707 55.2777 10.3193 55.4857 10.12C55.7023 9.912 55.971 9.808 56.2917 9.808C56.6123 9.808 56.8767 9.912 57.0847 10.12C57.3013 10.3193 57.4097 10.5707 57.4097 10.874C57.4097 11.1773 57.3013 11.433 57.0847 11.641C56.8767 11.8403 56.6123 11.94 56.2917 11.94ZM57.1887 12.798V20H55.3687V12.798H57.1887ZM61.1058 14.293V17.777C61.1058 18.0197 61.1622 18.1973 61.2748 18.31C61.3962 18.414 61.5955 18.466 61.8728 18.466H62.7178V20H61.5738C60.0398 20 59.2728 19.2547 59.2728 17.764V14.293H58.4148V12.798H59.2728V11.017H61.1058V12.798H62.7178V14.293H61.1058ZM66.1459 14.293V17.777C66.1459 18.0197 66.2022 18.1973 66.3149 18.31C66.4362 18.414 66.6355 18.466 66.9129 18.466H67.7579V20H66.6139C65.0799 20 64.3129 19.2547 64.3129 17.764V14.293H63.4549V12.798H64.3129V11.017H66.1459V12.798H67.7579V14.293H66.1459ZM75.7619 16.243C75.7619 16.503 75.7446 16.737 75.7099 16.945H70.4449C70.4883 17.465 70.6703 17.8723 70.9909 18.167C71.3116 18.4617 71.7059 18.609 72.1739 18.609C72.8499 18.609 73.3309 18.3187 73.6169 17.738H75.5799C75.3719 18.4313 74.9733 19.0033 74.3839 19.454C73.7946 19.896 73.0709 20.117 72.2129 20.117C71.5196 20.117 70.8956 19.9653 70.3409 19.662C69.7949 19.35 69.3659 18.9123 69.0539 18.349C68.7506 17.7857 68.5989 17.1357 68.5989 16.399C68.5989 15.6537 68.7506 14.9993 69.0539 14.436C69.3573 13.8727 69.7819 13.4393 70.3279 13.136C70.8739 12.8327 71.5023 12.681 72.2129 12.681C72.8976 12.681 73.5086 12.8283 74.0459 13.123C74.5919 13.4177 75.0123 13.838 75.3069 14.384C75.6103 14.9213 75.7619 15.541 75.7619 16.243ZM73.8769 15.723C73.8683 15.255 73.6993 14.8823 73.3699 14.605C73.0406 14.319 72.6376 14.176 72.1609 14.176C71.7103 14.176 71.3289 14.3147 71.0169 14.592C70.7136 14.8607 70.5273 15.2377 70.4579 15.723H73.8769ZM78.9104 13.916C79.1444 13.5347 79.4477 13.2357 79.8204 13.019C80.2017 12.8023 80.635 12.694 81.1204 12.694V14.605H80.6394C80.0674 14.605 79.634 14.7393 79.3394 15.008C79.0534 15.2767 78.9104 15.7447 78.9104 16.412V20H77.0904V12.798H78.9104V13.916Z" fill="#00AAEC"/>
<rect x="0.5" y="0.5" width="91" height="29" rx="7.5" stroke="#00AAEC"/>
</svg>
