<svg width="111" height="30" viewBox="0 0 111 30" fill="none" xmlns="http://www.w3.org/2000/svg">
<path d="M22.75 8.62504C22.75 8.52558 22.7105 8.4302 22.6402 8.35988C22.5698 8.28955 22.4745 8.25004 22.375 8.25004H20.5C19.5558 8.20301 18.6314 8.53158 17.9288 9.16397C17.2261 9.79637 16.8023 10.6812 16.75 11.625V13.65H14.875C14.7755 13.65 14.6802 13.6895 14.6098 13.7599C14.5395 13.8302 14.5 13.9256 14.5 14.025V15.975C14.5 16.0745 14.5395 16.1699 14.6098 16.2402C14.6802 16.3105 14.7755 16.35 14.875 16.35H16.75V21.375C16.75 21.4745 16.7895 21.5699 16.8598 21.6402C16.9302 21.7105 17.0255 21.75 17.125 21.75H19.375C19.4745 21.75 19.5698 21.7105 19.6402 21.6402C19.7105 21.5699 19.75 21.4745 19.75 21.375V16.35H21.715C21.7984 16.3512 21.8798 16.3246 21.9464 16.2743C22.0129 16.2241 22.0608 16.1531 22.0825 16.0725L22.6225 14.1225C22.6374 14.0671 22.6394 14.009 22.6284 13.9527C22.6173 13.8964 22.5935 13.8434 22.5587 13.7978C22.5239 13.7521 22.4791 13.7151 22.4278 13.6895C22.3764 13.6638 22.3199 13.6504 22.2625 13.65H19.75V11.625C19.7687 11.4394 19.8558 11.2674 19.9945 11.1426C20.1332 11.0177 20.3134 10.9491 20.5 10.95H22.375C22.4745 10.95 22.5698 10.9105 22.6402 10.8402C22.7105 10.7699 22.75 10.6745 22.75 10.575V8.62504Z" fill="#1877F2"/>
<path d="M42.5 10.926V12.395H38.717V14.722H41.616V16.165H38.717V20H36.897V10.926H42.5ZM43.3226 16.373C43.3226 15.645 43.4656 14.9993 43.7516 14.436C44.0462 13.8727 44.4406 13.4393 44.9346 13.136C45.4372 12.8327 45.9962 12.681 46.6116 12.681C47.1489 12.681 47.6169 12.7893 48.0156 13.006C48.4229 13.2227 48.7479 13.4957 48.9906 13.825V12.798H50.8236V20H48.9906V18.947C48.7566 19.285 48.4316 19.5667 48.0156 19.792C47.6082 20.0087 47.1359 20.117 46.5986 20.117C45.9919 20.117 45.4372 19.961 44.9346 19.649C44.4406 19.337 44.0462 18.8993 43.7516 18.336C43.4656 17.764 43.3226 17.1097 43.3226 16.373ZM48.9906 16.399C48.9906 15.957 48.9039 15.58 48.7306 15.268C48.5572 14.9473 48.3232 14.7047 48.0286 14.54C47.7339 14.3667 47.4176 14.28 47.0796 14.28C46.7416 14.28 46.4296 14.3623 46.1436 14.527C45.8576 14.6917 45.6236 14.9343 45.4416 15.255C45.2682 15.567 45.1816 15.9397 45.1816 16.373C45.1816 16.8063 45.2682 17.1877 45.4416 17.517C45.6236 17.8377 45.8576 18.0847 46.1436 18.258C46.4382 18.4313 46.7502 18.518 47.0796 18.518C47.4176 18.518 47.7339 18.4357 48.0286 18.271C48.3232 18.0977 48.5572 17.855 48.7306 17.543C48.9039 17.2223 48.9906 16.841 48.9906 16.399ZM52.1331 16.399C52.1331 15.6537 52.2848 15.0037 52.5881 14.449C52.8914 13.8857 53.3118 13.4523 53.8491 13.149C54.3864 12.837 55.0018 12.681 55.6951 12.681C56.5878 12.681 57.3244 12.9063 57.9051 13.357C58.4944 13.799 58.8888 14.423 59.0881 15.229H57.1251C57.0211 14.917 56.8434 14.6743 56.5921 14.501C56.3494 14.319 56.0461 14.228 55.6821 14.228C55.1621 14.228 54.7504 14.4187 54.4471 14.8C54.1438 15.1727 53.9921 15.7057 53.9921 16.399C53.9921 17.0837 54.1438 17.6167 54.4471 17.998C54.7504 18.3707 55.1621 18.557 55.6821 18.557C56.4188 18.557 56.8998 18.2277 57.1251 17.569H59.0881C58.8888 18.349 58.4944 18.9687 57.9051 19.428C57.3158 19.8873 56.5791 20.117 55.6951 20.117C55.0018 20.117 54.3864 19.9653 53.8491 19.662C53.3118 19.35 52.8914 18.9167 52.5881 18.362C52.2848 17.7987 52.1331 17.1443 52.1331 16.399ZM67.1164 16.243C67.1164 16.503 67.0991 16.737 67.0644 16.945H61.7994C61.8427 17.465 62.0247 17.8723 62.3454 18.167C62.6661 18.4617 63.0604 18.609 63.5284 18.609C64.2044 18.609 64.6854 18.3187 64.9714 17.738H66.9344C66.7264 18.4313 66.3277 19.0033 65.7384 19.454C65.1491 19.896 64.4254 20.117 63.5674 20.117C62.8741 20.117 62.2501 19.9653 61.6954 19.662C61.1494 19.35 60.7204 18.9123 60.4084 18.349C60.1051 17.7857 59.9534 17.1357 59.9534 16.399C59.9534 15.6537 60.1051 14.9993 60.4084 14.436C60.7117 13.8727 61.1364 13.4393 61.6824 13.136C62.2284 12.8327 62.8567 12.681 63.5674 12.681C64.2521 12.681 64.8631 12.8283 65.4004 13.123C65.9464 13.4177 66.3667 13.838 66.6614 14.384C66.9647 14.9213 67.1164 15.541 67.1164 16.243ZM65.2314 15.723C65.2227 15.255 65.0537 14.8823 64.7244 14.605C64.3951 14.319 63.9921 14.176 63.5154 14.176C63.0647 14.176 62.6834 14.3147 62.3714 14.592C62.0681 14.8607 61.8817 15.2377 61.8124 15.723H65.2314ZM70.2649 13.851C70.4989 13.5043 70.8195 13.2227 71.2269 13.006C71.6429 12.7893 72.1152 12.681 72.6439 12.681C73.2592 12.681 73.8139 12.8327 74.3079 13.136C74.8105 13.4393 75.2049 13.8727 75.4909 14.436C75.7855 14.9907 75.9329 15.6363 75.9329 16.373C75.9329 17.1097 75.7855 17.764 75.4909 18.336C75.2049 18.8993 74.8105 19.337 74.3079 19.649C73.8139 19.961 73.2592 20.117 72.6439 20.117C72.1065 20.117 71.6342 20.013 71.2269 19.805C70.8282 19.5883 70.5075 19.311 70.2649 18.973V20H68.4449V10.38H70.2649V13.851ZM74.0739 16.373C74.0739 15.9397 73.9829 15.567 73.8009 15.255C73.6275 14.9343 73.3935 14.6917 73.0989 14.527C72.8129 14.3623 72.5009 14.28 72.1629 14.28C71.8335 14.28 71.5215 14.3667 71.2269 14.54C70.9409 14.7047 70.7069 14.9473 70.5249 15.268C70.3515 15.5887 70.2649 15.9657 70.2649 16.399C70.2649 16.8323 70.3515 17.2093 70.5249 17.53C70.7069 17.8507 70.9409 18.0977 71.2269 18.271C71.5215 18.4357 71.8335 18.518 72.1629 18.518C72.5009 18.518 72.8129 18.4313 73.0989 18.258C73.3935 18.0847 73.6275 17.8377 73.8009 17.517C73.9829 17.1963 74.0739 16.815 74.0739 16.373ZM80.4534 20.117C79.7601 20.117 79.1361 19.9653 78.5814 19.662C78.0267 19.35 77.5891 18.9123 77.2684 18.349C76.9564 17.7857 76.8004 17.1357 76.8004 16.399C76.8004 15.6623 76.9607 15.0123 77.2814 14.449C77.6107 13.8857 78.0571 13.4523 78.6204 13.149C79.1837 12.837 79.8121 12.681 80.5054 12.681C81.1987 12.681 81.8271 12.837 82.3904 13.149C82.9537 13.4523 83.3957 13.8857 83.7164 14.449C84.0457 15.0123 84.2104 15.6623 84.2104 16.399C84.2104 17.1357 84.0414 17.7857 83.7034 18.349C83.3741 18.9123 82.9234 19.35 82.3514 19.662C81.7881 19.9653 81.1554 20.117 80.4534 20.117ZM80.4534 18.531C80.7827 18.531 81.0904 18.453 81.3764 18.297C81.6711 18.1323 81.9051 17.8897 82.0784 17.569C82.2517 17.2483 82.3384 16.8583 82.3384 16.399C82.3384 15.7143 82.1564 15.19 81.7924 14.826C81.4371 14.4533 80.9994 14.267 80.4794 14.267C79.9594 14.267 79.5217 14.4533 79.1664 14.826C78.8197 15.19 78.6464 15.7143 78.6464 16.399C78.6464 17.0837 78.8154 17.6123 79.1534 17.985C79.5001 18.349 79.9334 18.531 80.4534 18.531ZM88.7434 20.117C88.0501 20.117 87.4261 19.9653 86.8714 19.662C86.3168 19.35 85.8791 18.9123 85.5584 18.349C85.2464 17.7857 85.0904 17.1357 85.0904 16.399C85.0904 15.6623 85.2508 15.0123 85.5714 14.449C85.9008 13.8857 86.3471 13.4523 86.9104 13.149C87.4738 12.837 88.1021 12.681 88.7954 12.681C89.4888 12.681 90.1171 12.837 90.6804 13.149C91.2438 13.4523 91.6858 13.8857 92.0064 14.449C92.3358 15.0123 92.5004 15.6623 92.5004 16.399C92.5004 17.1357 92.3314 17.7857 91.9934 18.349C91.6641 18.9123 91.2134 19.35 90.6414 19.662C90.0781 19.9653 89.4454 20.117 88.7434 20.117ZM88.7434 18.531C89.0728 18.531 89.3804 18.453 89.6664 18.297C89.9611 18.1323 90.1951 17.8897 90.3684 17.569C90.5418 17.2483 90.6284 16.8583 90.6284 16.399C90.6284 15.7143 90.4464 15.19 90.0824 14.826C89.7271 14.4533 89.2894 14.267 88.7694 14.267C88.2494 14.267 87.8118 14.4533 87.4564 14.826C87.1098 15.19 86.9364 15.7143 86.9364 16.399C86.9364 17.0837 87.1054 17.6123 87.4434 17.985C87.7901 18.349 88.2234 18.531 88.7434 18.531ZM98.0995 20L95.6555 16.932V20H93.8355V10.38H95.6555V15.853L98.0735 12.798H100.439L97.2675 16.412L100.465 20H98.0995Z" fill="#1877F2"/>
<rect x="0.5" y="0.5" width="110" height="29" rx="7.5" stroke="#1877F2"/>
</svg>
