<svg width="22" height="19" viewBox="0 0 22 19" fill="none" xmlns="http://www.w3.org/2000/svg">
<path d="M9.61107 8.91071C10.022 9.1853 10.5052 9.33192 10.9994 9.33203C11.6624 9.33129 12.298 9.0676 12.7668 8.59881C13.2356 8.13004 13.4992 7.49446 13.5 6.83152L9.61107 8.91071ZM9.61107 8.91071C9.19995 8.636 8.87952 8.24555 8.6903 7.78874M9.61107 8.91071L8.6903 7.78874M8.6903 7.78874C8.50108 7.33193 8.45157 6.82926 8.54804 6.34431M8.6903 7.78874L8.54804 6.34431M8.54804 6.34431C8.6445 5.85935 8.8826 5.41389 9.23223 5.06426M8.54804 6.34431L9.23223 5.06426M9.23223 5.06426C9.58186 4.71463 10.0273 4.47653 10.5123 4.38007M9.23223 5.06426L10.5123 4.38007M10.5123 4.38007C10.9972 4.2836 11.4999 4.33311 11.9567 4.52233M10.5123 4.38007L11.9567 4.52233M11.9567 4.52233C12.4135 4.71155 12.804 5.03198 13.0787 5.44311M11.9567 4.52233L13.0787 5.44311M13.0787 5.44311C13.3533 5.85407 13.4999 6.33721 13.5 6.83147L13.0787 5.44311ZM11.0005 4.83203H11C10.6044 4.83203 10.2178 4.94933 9.88886 5.16909C9.55996 5.38885 9.30362 5.70121 9.15224 6.06667C9.00087 6.43212 8.96126 6.83425 9.03843 7.22221C9.1156 7.61017 9.30608 7.96654 9.58579 8.24624C9.86549 8.52595 10.2219 8.71643 10.6098 8.7936C10.9978 8.87077 11.3999 8.83117 11.7654 8.67979C12.1308 8.52841 12.4432 8.27207 12.6629 7.94317C12.8827 7.61427 13 7.22759 13 6.83203V6.83153C12.9995 6.30139 12.7886 5.79312 12.4138 5.41826C12.0389 5.04339 11.5306 4.83256 11.0005 4.83203ZM20.5 2.33203V1.83203H20H2H1.5V2.33203V11.332V11.832H2H20H20.5V11.332V2.33203ZM1 15.332V14.832H21V15.332H1ZM1 18.332V17.832H21V18.332H1ZM16.4444 6.00056C16.6089 5.89068 16.8022 5.83203 17 5.83203C17.2652 5.83203 17.5196 5.93739 17.7071 6.12493C17.8946 6.31246 18 6.56681 18 6.83203C18 7.02981 17.9414 7.22315 17.8315 7.3876C17.7216 7.55205 17.5654 7.68022 17.3827 7.75591C17.2 7.8316 16.9989 7.8514 16.8049 7.81282C16.6109 7.77423 16.4327 7.67899 16.2929 7.53914C16.153 7.39928 16.0578 7.2211 16.0192 7.02712C15.9806 6.83314 16.0004 6.63207 16.0761 6.44935C16.1518 6.26662 16.28 6.11044 16.4444 6.00056ZM4.44443 6.00056C4.60888 5.89068 4.80222 5.83203 5 5.83203C5.26522 5.83203 5.51957 5.93739 5.70711 6.12492C5.89464 6.31246 6 6.56681 6 6.83203C6 7.02981 5.94135 7.22315 5.83147 7.3876C5.72159 7.55205 5.56541 7.68022 5.38268 7.75591C5.19996 7.8316 4.99889 7.8514 4.80491 7.81282C4.61093 7.77423 4.43275 7.67899 4.29289 7.53914C4.15304 7.39928 4.0578 7.2211 4.01921 7.02712C3.98063 6.83314 4.00043 6.63207 4.07612 6.44935C4.15181 6.26662 4.27998 6.11044 4.44443 6.00056ZM2.0007 1.33203H19.9993C20.2644 1.33286 20.5185 1.43854 20.706 1.62604C20.8935 1.81351 20.9992 2.06753 21 2.33264C21 2.33286 21 2.33308 21 2.3333L21 11.3314C20.9996 11.5966 20.8941 11.851 20.7065 12.0385C20.5189 12.2261 20.2646 12.3317 19.9993 12.332H2.00061C1.7355 12.3312 1.48148 12.2255 1.29401 12.038C1.10651 11.8505 1.00082 11.5965 1 11.3313V2.33273C1.00082 2.06759 1.10651 1.81353 1.29401 1.62604C1.4815 1.43855 1.73556 1.33286 2.0007 1.33203Z" fill="#FA541C" stroke="#FA541C"/>
</svg>
