<svg width="18" height="15" viewBox="0 0 18 15" fill="none" xmlns="http://www.w3.org/2000/svg">
<path d="M15.5991 4.63464L15.7013 5H16.0807H17.5V5.5H16.5H16V6V11.2494C15.9997 11.5147 15.8941 11.769 15.7066 11.9566C15.519 12.1441 15.2647 12.2497 14.9994 12.25L14.5 12.2506V12.75V14.5H14V12.75V12.25H13.5H4.5H4V12.75V14.5H3.5V12.75V12.2506L3.00062 12.25C2.73534 12.2497 2.48102 12.1441 2.29344 11.9566C2.10592 11.769 2.0004 11.5148 2 11.2496V6V5.5H1.5H0.5V5H1.89862H2.27578L2.37939 4.63736L3.35379 1.22695C3.35385 1.22672 3.35392 1.22649 3.35399 1.22626C3.41454 1.01749 3.54103 0.833923 3.71458 0.70301C3.88811 0.572101 4.09936 0.500886 4.31672 0.5H13.6833C13.9006 0.50087 14.1118 0.572039 14.2854 0.702884C14.4586 0.833457 14.5849 1.01645 14.6457 1.22461L15.5991 4.63464ZM4.3158 1H3.93866L3.83504 1.36263L2.76352 5.11263L2.58139 5.75H3.24427H14.7557H15.4186L15.2365 5.11265L14.1651 1.36265L14.0615 1H13.6844H4.3158ZM15.5 9.75V9.25H15H14V8.75H15H15.5V8.25V6.75V6.25H15H3H2.5V6.75V8.25V8.75H3H4V9.25H3H2.5V9.75V11.25V11.75H3H15H15.5V11.25V9.75ZM7.25 9.25V8.75H10.75V9.25H7.25Z" fill="#FA541C" stroke="#FA541C"/>
</svg>
