<svg width="22" height="20" viewBox="0 0 22 20" fill="none" xmlns="http://www.w3.org/2000/svg">
<path d="M2 8.5H1.5V9V18V18.5H2H6.5H7V18V9V8.5H6.5H2ZM3.5 1H3V1.5V5.5H2.5V1.5C2.5 1.23478 2.60536 0.980429 2.79289 0.792893C2.98043 0.605357 3.23478 0.5 3.5 0.5H20C20.2652 0.5 20.5196 0.605356 20.7071 0.792894C20.8946 0.98043 21 1.23478 21 1.5V12C21 12.2652 20.8946 12.5196 20.7071 12.7071C20.5196 12.8946 20.2652 13 20 13H12.5H12V13.5V16.5V17H12.5H15.75V17.5H10V17H11H11.5V16.5V13.5V13H11H10V12.5H20H20.5V12V1.5V1H20H3.5ZM6.5 19H2C1.73478 19 1.48043 18.8946 1.29289 18.7071C1.10536 18.5196 1 18.2652 1 18V9C1 8.73478 1.10536 8.48043 1.29289 8.29289C1.48043 8.10536 1.73478 8 2 8H6.5C6.76522 8 7.01957 8.10536 7.20711 8.29289C7.39464 8.48043 7.5 8.73478 7.5 9V18C7.5 18.2652 7.39464 18.5196 7.20711 18.7071C7.01957 18.8946 6.76522 19 6.5 19Z" fill="#FA541C" stroke="#FA541C"/>
</svg>
