<svg width="22" height="23" viewBox="0 0 22 23" fill="none" xmlns="http://www.w3.org/2000/svg">
<mask id="path-1-inside-1_23649_7928" fill="white">
<path d="M6.49988 22.25H3.49988C3.10242 22.2488 2.72156 22.0904 2.44051 21.8094C2.15946 21.5283 2.00105 21.1475 1.99988 20.75V15.5C1.60242 15.4988 1.22156 15.3404 0.940512 15.0594C0.65946 14.7783 0.50105 14.3975 0.499883 14V9.5C0.49444 9.20303 0.548919 8.90801 0.660065 8.63256C0.771211 8.35712 0.936743 8.10691 1.14677 7.89689C1.3568 7.68686 1.60701 7.52133 1.88245 7.41018C2.15789 7.29904 2.45291 7.24456 2.74988 7.25H7.24988C7.54685 7.24456 7.84188 7.29904 8.11732 7.41018C8.39276 7.52133 8.64297 7.68686 8.853 7.89689C9.06302 8.10691 9.22855 8.35712 9.3397 8.63256C9.45085 8.90801 9.50532 9.20303 9.49988 9.5V14C9.49871 14.3975 9.3403 14.7783 9.05925 15.0594C8.7782 15.3404 8.39735 15.4988 7.99988 15.5V20.75C7.99871 21.1475 7.8403 21.5283 7.55925 21.8094C7.2782 22.0904 6.89735 22.2488 6.49988 22.25ZM2.74988 8.75C2.64982 8.74396 2.54961 8.75922 2.45588 8.79478C2.36215 8.83033 2.27703 8.88537 2.20614 8.95626C2.13525 9.02714 2.08022 9.11226 2.04466 9.20599C2.00911 9.29973 1.99384 9.39993 1.99988 9.5V14H3.49988V20.75H6.49988V14H7.99988V9.5C8.00592 9.39993 7.99066 9.29973 7.9551 9.20599C7.91955 9.11226 7.86451 9.02714 7.79363 8.95626C7.72274 8.88537 7.63762 8.83033 7.54389 8.79478C7.45016 8.75922 7.34995 8.74396 7.24988 8.75H2.74988Z"/>
<path d="M5.00001 6.5C4.40666 6.5 3.82664 6.32405 3.3333 5.99441C2.83995 5.66477 2.45543 5.19623 2.22837 4.64805C2.0013 4.09987 1.94189 3.49667 2.05765 2.91473C2.17341 2.33279 2.45913 1.79824 2.87869 1.37868C3.29824 0.959123 3.83279 0.673401 4.41474 0.557646C4.99668 0.44189 5.59988 0.5013 6.14806 0.728363C6.69624 0.955426 7.16477 1.33994 7.49442 1.83329C7.82406 2.32664 8.00001 2.90666 8.00001 3.5C7.99911 4.29538 7.68276 5.05792 7.12034 5.62034C6.55792 6.18275 5.79538 6.49911 5.00001 6.5ZM5.00001 2C4.70333 2 4.41332 2.08798 4.16665 2.2528C3.91998 2.41762 3.72772 2.65189 3.61419 2.92598C3.50066 3.20007 3.47095 3.50167 3.52883 3.79264C3.58671 4.08361 3.72957 4.35088 3.93935 4.56066C4.14912 4.77044 4.4164 4.9133 4.70737 4.97118C4.99834 5.02906 5.29994 4.99935 5.57403 4.88582C5.84812 4.77229 6.08239 4.58003 6.24721 4.33336C6.41203 4.08668 6.50001 3.79667 6.50001 3.5C6.49961 3.1023 6.34145 2.721 6.06023 2.43978C5.77901 2.15856 5.39771 2.0004 5.00001 2Z"/>
<path d="M20.5747 2.19189C20.0106 1.61872 19.2492 1.28225 18.4456 1.25108C17.642 1.2199 16.8568 1.49637 16.25 2.02412C15.6432 1.49637 14.858 1.2199 14.0544 1.25108C13.2508 1.28225 12.4894 1.61872 11.9253 2.19189C11.3322 2.79734 11 3.61112 11 4.45865C11 5.30619 11.3322 6.11997 11.9253 6.72542L16.2485 11.105L16.25 11.1032L16.2515 11.1047L20.5747 6.72542C21.1678 6.11997 21.5 5.30619 21.5 4.45865C21.5 3.61112 21.1678 2.79734 20.5747 2.19189ZM19.5065 5.67114L16.2515 8.96912L16.25 8.96754L16.2485 8.96904L12.9935 5.67107C12.6758 5.34736 12.4979 4.91193 12.4979 4.45839C12.4979 4.00485 12.6758 3.56942 12.9935 3.24572C13.3104 2.93761 13.735 2.76524 14.177 2.76524C14.6191 2.76524 15.0437 2.93761 15.3606 3.24572L16.2463 4.15127L16.25 4.14759L16.2537 4.15134L17.1394 3.24579C17.4564 2.93769 17.881 2.76532 18.323 2.76532C18.765 2.76532 19.1896 2.93769 19.5065 3.24579C19.8242 3.5695 20.0021 4.00493 20.0021 4.45847C20.0021 4.912 19.8242 5.34743 19.5065 5.67114Z"/>
</mask>
<path d="M6.49988 22.25H3.49988C3.10242 22.2488 2.72156 22.0904 2.44051 21.8094C2.15946 21.5283 2.00105 21.1475 1.99988 20.75V15.5C1.60242 15.4988 1.22156 15.3404 0.940512 15.0594C0.65946 14.7783 0.50105 14.3975 0.499883 14V9.5C0.49444 9.20303 0.548919 8.90801 0.660065 8.63256C0.771211 8.35712 0.936743 8.10691 1.14677 7.89689C1.3568 7.68686 1.60701 7.52133 1.88245 7.41018C2.15789 7.29904 2.45291 7.24456 2.74988 7.25H7.24988C7.54685 7.24456 7.84188 7.29904 8.11732 7.41018C8.39276 7.52133 8.64297 7.68686 8.853 7.89689C9.06302 8.10691 9.22855 8.35712 9.3397 8.63256C9.45085 8.90801 9.50532 9.20303 9.49988 9.5V14C9.49871 14.3975 9.3403 14.7783 9.05925 15.0594C8.7782 15.3404 8.39735 15.4988 7.99988 15.5V20.75C7.99871 21.1475 7.8403 21.5283 7.55925 21.8094C7.2782 22.0904 6.89735 22.2488 6.49988 22.25ZM2.74988 8.75C2.64982 8.74396 2.54961 8.75922 2.45588 8.79478C2.36215 8.83033 2.27703 8.88537 2.20614 8.95626C2.13525 9.02714 2.08022 9.11226 2.04466 9.20599C2.00911 9.29973 1.99384 9.39993 1.99988 9.5V14H3.49988V20.75H6.49988V14H7.99988V9.5C8.00592 9.39993 7.99066 9.29973 7.9551 9.20599C7.91955 9.11226 7.86451 9.02714 7.79363 8.95626C7.72274 8.88537 7.63762 8.83033 7.54389 8.79478C7.45016 8.75922 7.34995 8.74396 7.24988 8.75H2.74988Z" fill="#FA541C"/>
<path d="M5.00001 6.5C4.40666 6.5 3.82664 6.32405 3.3333 5.99441C2.83995 5.66477 2.45543 5.19623 2.22837 4.64805C2.0013 4.09987 1.94189 3.49667 2.05765 2.91473C2.17341 2.33279 2.45913 1.79824 2.87869 1.37868C3.29824 0.959123 3.83279 0.673401 4.41474 0.557646C4.99668 0.44189 5.59988 0.5013 6.14806 0.728363C6.69624 0.955426 7.16477 1.33994 7.49442 1.83329C7.82406 2.32664 8.00001 2.90666 8.00001 3.5C7.99911 4.29538 7.68276 5.05792 7.12034 5.62034C6.55792 6.18275 5.79538 6.49911 5.00001 6.5ZM5.00001 2C4.70333 2 4.41332 2.08798 4.16665 2.2528C3.91998 2.41762 3.72772 2.65189 3.61419 2.92598C3.50066 3.20007 3.47095 3.50167 3.52883 3.79264C3.58671 4.08361 3.72957 4.35088 3.93935 4.56066C4.14912 4.77044 4.4164 4.9133 4.70737 4.97118C4.99834 5.02906 5.29994 4.99935 5.57403 4.88582C5.84812 4.77229 6.08239 4.58003 6.24721 4.33336C6.41203 4.08668 6.50001 3.79667 6.50001 3.5C6.49961 3.1023 6.34145 2.721 6.06023 2.43978C5.77901 2.15856 5.39771 2.0004 5.00001 2Z" fill="#FA541C"/>
<path d="M20.5747 2.19189C20.0106 1.61872 19.2492 1.28225 18.4456 1.25108C17.642 1.2199 16.8568 1.49637 16.25 2.02412C15.6432 1.49637 14.858 1.2199 14.0544 1.25108C13.2508 1.28225 12.4894 1.61872 11.9253 2.19189C11.3322 2.79734 11 3.61112 11 4.45865C11 5.30619 11.3322 6.11997 11.9253 6.72542L16.2485 11.105L16.25 11.1032L16.2515 11.1047L20.5747 6.72542C21.1678 6.11997 21.5 5.30619 21.5 4.45865C21.5 3.61112 21.1678 2.79734 20.5747 2.19189ZM19.5065 5.67114L16.2515 8.96912L16.25 8.96754L16.2485 8.96904L12.9935 5.67107C12.6758 5.34736 12.4979 4.91193 12.4979 4.45839C12.4979 4.00485 12.6758 3.56942 12.9935 3.24572C13.3104 2.93761 13.735 2.76524 14.177 2.76524C14.6191 2.76524 15.0437 2.93761 15.3606 3.24572L16.2463 4.15127L16.25 4.14759L16.2537 4.15134L17.1394 3.24579C17.4564 2.93769 17.881 2.76532 18.323 2.76532C18.765 2.76532 19.1896 2.93769 19.5065 3.24579C19.8242 3.5695 20.0021 4.00493 20.0021 4.45847C20.0021 4.912 19.8242 5.34743 19.5065 5.67114Z" fill="#FA541C"/>
<path d="M6.49988 22.25V23.25L6.50282 23.25L6.49988 22.25ZM3.49988 22.25L3.49695 23.25H3.49988V22.25ZM1.99988 20.75H0.999878L0.999887 20.7529L1.99988 20.75ZM1.99988 15.5H2.99988V14.5029L2.00282 14.5L1.99988 15.5ZM0.499883 14H-0.500121L-0.500113 14.0029L0.499883 14ZM0.499883 9.5H1.49988V9.49084L1.49971 9.48168L0.499883 9.5ZM2.74988 7.25L2.73156 8.24983L2.74072 8.25H2.74988V7.25ZM7.24988 7.25V8.25H7.25905L7.26821 8.24983L7.24988 7.25ZM9.49988 9.5L8.50005 9.48168L8.49988 9.49084V9.5H9.49988ZM9.49988 14L10.4999 14.0029V14H9.49988ZM7.99988 15.5L7.99695 14.5L6.99988 14.5029V15.5H7.99988ZM7.99988 20.75L8.99988 20.7529V20.75H7.99988ZM2.74988 8.75L2.68964 9.74818L2.71973 9.75H2.74988V8.75ZM1.99988 9.5H2.99988V9.46985L2.99807 9.43976L1.99988 9.5ZM1.99988 14H0.999883V15H1.99988V14ZM3.49988 14H4.49988V13H3.49988V14ZM3.49988 20.75H2.49988V21.75H3.49988V20.75ZM6.49988 20.75V21.75H7.49988V20.75H6.49988ZM6.49988 14V13H5.49988V14H6.49988ZM7.99988 14V15H8.99988V14H7.99988ZM7.99988 9.5L7.0017 9.43976L6.99988 9.46985V9.5H7.99988ZM7.24988 8.75V9.75H7.28003L7.31012 9.74818L7.24988 8.75ZM5.00001 6.5V7.5L5.00113 7.5L5.00001 6.5ZM8.00001 3.5L9.00001 3.50112V3.5H8.00001ZM5.00001 2L5.00101 1H5.00001V2ZM6.50001 3.5H7.50001L7.50001 3.499L6.50001 3.5ZM20.5747 2.19189L21.2891 1.49211L21.2875 1.49046L20.5747 2.19189ZM16.25 2.02412L15.5938 2.77866L16.25 3.34942L16.9063 2.77866L16.25 2.02412ZM11.9253 2.19189L11.2125 1.49046L11.2109 1.49211L11.9253 2.19189ZM11.9253 6.72542L11.2109 7.4252L11.2136 7.42793L11.9253 6.72542ZM16.2485 11.105L15.5368 11.8076L16.3108 12.5916L17.0164 11.7456L16.2485 11.105ZM16.25 11.1032L16.9387 10.3782L16.1653 9.64363L15.4821 10.4627L16.25 11.1032ZM16.2515 11.1047L15.5628 11.8297L16.2741 12.5052L16.9632 11.8072L16.2515 11.1047ZM20.5747 6.72542L21.2864 7.42796L21.2891 7.4252L20.5747 6.72542ZM21.5 4.45865H20.5H21.5ZM19.5065 5.67114L20.2182 6.3736L20.2202 6.37155L19.5065 5.67114ZM16.2515 8.96912L15.5273 9.6587L16.2386 10.4057L16.9632 9.67157L16.2515 8.96912ZM16.25 8.96754L16.9742 8.27796L16.2678 7.53603L15.5431 8.26021L16.25 8.96754ZM16.2485 8.96904L15.5368 9.6715L16.2436 10.3877L16.9554 9.67637L16.2485 8.96904ZM12.9935 5.67107L12.2798 6.37148L12.2818 6.37352L12.9935 5.67107ZM12.4979 4.45839H13.4979H12.4979ZM12.9935 3.24572L12.2965 2.52869L12.288 2.5369L12.2798 2.54531L12.9935 3.24572ZM14.177 2.76524V3.76524V2.76524ZM15.3606 3.24572L16.0755 2.54647L16.0667 2.53747L16.0576 2.52869L15.3606 3.24572ZM16.2463 4.15127L15.5315 4.85051L16.2384 5.57329L16.9534 4.85842L16.2463 4.15127ZM16.25 4.14759L16.9643 3.44772L16.2573 2.72619L15.5429 3.44044L16.25 4.14759ZM16.2537 4.15134L15.5394 4.85121L16.2543 5.58081L16.9686 4.85059L16.2537 4.15134ZM17.1394 3.24579L16.4424 2.52877L16.4334 2.53754L16.4246 2.54654L17.1394 3.24579ZM18.323 2.76532V3.76532V2.76532ZM19.5065 3.24579L20.2202 2.54538L20.212 2.53698L20.2036 2.52877L19.5065 3.24579ZM20.0021 4.45847H19.0021H20.0021ZM6.49988 21.25H3.49988V23.25H6.49988V21.25ZM3.50282 21.25C3.36955 21.2496 3.24185 21.1965 3.14762 21.1023L1.73341 22.5165C2.20128 22.9843 2.83528 23.2481 3.49695 23.25L3.50282 21.25ZM3.14762 21.1023C3.05338 21.008 3.00027 20.8803 2.99988 20.7471L0.999887 20.7529C1.00183 21.4146 1.26554 22.0486 1.73341 22.5165L3.14762 21.1023ZM2.99988 20.75V15.5H0.999883V20.75H2.99988ZM2.00282 14.5C1.86955 14.4996 1.74185 14.4465 1.64762 14.3523L0.233405 15.7665C0.701274 16.2343 1.33528 16.4981 1.99695 16.5L2.00282 14.5ZM1.64762 14.3523C1.55338 14.258 1.50027 14.1303 1.49988 13.9971L-0.500113 14.0029C-0.49817 14.6646 -0.234464 15.2986 0.233405 15.7665L1.64762 14.3523ZM1.49988 14V9.5H-0.500117V14H1.49988ZM1.49971 9.48168C1.49673 9.31909 1.52656 9.15757 1.58741 9.00677L-0.267282 8.25836C-0.428723 8.65845 -0.507855 9.08697 -0.499949 9.51832L1.49971 9.48168ZM1.58741 9.00677C1.64826 8.85597 1.73889 8.71898 1.85388 8.60399L0.439662 7.18978C0.134597 7.49485 -0.105841 7.85828 -0.267282 8.25836L1.58741 9.00677ZM1.85388 8.60399C1.96886 8.48901 2.10585 8.39838 2.25665 8.33753L1.50825 6.48283C1.10816 6.64428 0.744728 6.88471 0.439662 7.18978L1.85388 8.60399ZM2.25665 8.33753C2.40745 8.27668 2.56897 8.24685 2.73156 8.24983L2.76821 6.25017C2.33685 6.24226 1.90833 6.32139 1.50825 6.48283L2.25665 8.33753ZM2.74988 8.25H7.24988V6.25H2.74988V8.25ZM7.26821 8.24983C7.4308 8.24685 7.59232 8.27668 7.74312 8.33753L8.49152 6.48283C8.09144 6.32139 7.66291 6.24226 7.23156 6.25017L7.26821 8.24983ZM7.74312 8.33753C7.89392 8.39838 8.0309 8.48901 8.14589 8.60399L9.5601 7.18978C9.25504 6.88471 8.89161 6.64428 8.49152 6.48283L7.74312 8.33753ZM8.14589 8.60399C8.26088 8.71898 8.3515 8.85597 8.41235 9.00677L10.267 8.25836C10.1056 7.85828 9.86517 7.49485 9.5601 7.18978L8.14589 8.60399ZM8.41235 9.00677C8.4732 9.15757 8.50303 9.31909 8.50005 9.48168L10.4997 9.51832C10.5076 9.08697 10.4285 8.65845 10.267 8.25836L8.41235 9.00677ZM8.49988 9.5V14H10.4999V9.5H8.49988ZM8.49989 13.9971C8.49949 14.1303 8.44638 14.258 8.35215 14.3523L9.76636 15.7665C10.2342 15.2986 10.4979 14.6646 10.4999 14.0029L8.49989 13.9971ZM8.35215 14.3523C8.25791 14.4465 8.13021 14.4996 7.99695 14.5L8.00282 16.5C8.66448 16.4981 9.29849 16.2343 9.76636 15.7665L8.35215 14.3523ZM6.99988 15.5V20.75H8.99988V15.5H6.99988ZM6.99989 20.7471C6.9995 20.8803 6.94638 21.008 6.85215 21.1023L8.26636 22.5165C8.73423 22.0486 8.99793 21.4146 8.99988 20.7529L6.99989 20.7471ZM6.85215 21.1023C6.75791 21.1965 6.63022 21.2496 6.49695 21.25L6.50282 23.25C7.16448 23.2481 7.79849 22.9843 8.26636 22.5165L6.85215 21.1023ZM2.81012 7.75182C2.56884 7.73725 2.32722 7.77406 2.10121 7.85979L2.81055 9.72977C2.772 9.74439 2.73079 9.75067 2.68964 9.74818L2.81012 7.75182ZM2.10121 7.85979C1.8752 7.94552 1.66996 8.07823 1.49903 8.24915L2.91325 9.66336C2.88409 9.69252 2.84909 9.71515 2.81055 9.72977L2.10121 7.85979ZM1.49903 8.24915C1.32811 8.42007 1.1954 8.62532 1.10967 8.85133L2.97965 9.56066C2.96503 9.59921 2.9424 9.63421 2.91325 9.66336L1.49903 8.24915ZM1.10967 8.85133C1.02394 9.07733 0.987137 9.31896 1.0017 9.56024L2.99807 9.43976C3.00055 9.48091 2.99427 9.52212 2.97965 9.56066L1.10967 8.85133ZM0.999883 9.5V14H2.99988V9.5H0.999883ZM1.99988 15H3.49988V13H1.99988V15ZM2.49988 14V20.75H4.49988V14H2.49988ZM3.49988 21.75H6.49988V19.75H3.49988V21.75ZM7.49988 20.75V14H5.49988V20.75H7.49988ZM6.49988 15H7.99988V13H6.49988V15ZM8.99988 14V9.5H6.99988V14H8.99988ZM8.99807 9.56024C9.01263 9.31896 8.97583 9.07733 8.8901 8.85133L7.02011 9.56066C7.00549 9.52212 6.99922 9.48091 7.0017 9.43976L8.99807 9.56024ZM8.8901 8.85133C8.80437 8.62532 8.67166 8.42008 8.50073 8.24915L7.08652 9.66336C7.05736 9.63421 7.03473 9.59921 7.02011 9.56066L8.8901 8.85133ZM8.50073 8.24915C8.32981 8.07822 8.12456 7.94552 7.89856 7.85979L7.18922 9.72977C7.15068 9.71515 7.11567 9.69252 7.08652 9.66336L8.50073 8.24915ZM7.89856 7.85979C7.67255 7.77406 7.43092 7.73725 7.18964 7.75182L7.31012 9.74818C7.26897 9.75067 7.22776 9.74439 7.18922 9.72977L7.89856 7.85979ZM7.24988 7.75H2.74988V9.75H7.24988V7.75ZM5.00001 5.5C4.60444 5.5 4.21776 5.3827 3.88887 5.16294L2.77773 6.82588C3.43552 7.26541 4.20888 7.5 5.00001 7.5V5.5ZM3.88887 5.16294C3.55997 4.94318 3.30362 4.63082 3.15225 4.26537L1.30449 5.03074C1.60724 5.76164 2.11993 6.38635 2.77773 6.82588L3.88887 5.16294ZM3.15225 4.26537C3.00087 3.89992 2.96127 3.49778 3.03844 3.10982L1.07687 2.71964C0.922524 3.49556 1.00174 4.29983 1.30449 5.03074L3.15225 4.26537ZM3.03844 3.10982C3.11561 2.72186 3.30609 2.36549 3.58579 2.08579L2.17158 0.671574C1.61217 1.23098 1.23121 1.94372 1.07687 2.71964L3.03844 3.10982ZM3.58579 2.08579C3.8655 1.80608 4.22186 1.6156 4.60983 1.53843L4.21965 -0.42314C3.44372 -0.268799 2.73099 0.112164 2.17158 0.671574L3.58579 2.08579ZM4.60983 1.53843C4.99779 1.46126 5.39992 1.50087 5.76537 1.65224L6.53074 -0.195517C5.79984 -0.498267 4.99557 -0.577481 4.21965 -0.42314L4.60983 1.53843ZM5.76537 1.65224C6.13083 1.80362 6.44318 2.05996 6.66295 2.38886L8.32588 1.27772C7.88636 0.619924 7.26164 0.107234 6.53074 -0.195517L5.76537 1.65224ZM6.66295 2.38886C6.88271 2.71776 7.00001 3.10444 7.00001 3.5H9.00001C9.00001 2.70888 8.76541 1.93552 8.32588 1.27772L6.66295 2.38886ZM7.00001 3.49888C6.99941 4.02943 6.78839 4.53807 6.41323 4.91323L7.82745 6.32744C8.57712 5.57776 8.99882 4.56133 9.00001 3.50112L7.00001 3.49888ZM6.41323 4.91323C6.03808 5.28838 5.52943 5.49941 4.99888 5.5L5.00113 7.5C6.06133 7.49881 7.07777 7.07712 7.82745 6.32744L6.41323 4.91323ZM5.00001 1C4.50555 1 4.0222 1.14662 3.61108 1.42133L4.72222 3.08427C4.80445 3.02933 4.90112 3 5.00001 3V1ZM3.61108 1.42133C3.19996 1.69603 2.87953 2.08648 2.69031 2.54329L4.53807 3.30866C4.57591 3.2173 4.64 3.13921 4.72222 3.08427L3.61108 1.42133ZM2.69031 2.54329C2.50109 3.00011 2.45158 3.50277 2.54804 3.98773L4.50961 3.59755C4.49032 3.50056 4.50022 3.40002 4.53807 3.30866L2.69031 2.54329ZM2.54804 3.98773C2.64451 4.47268 2.88261 4.91814 3.23224 5.26777L4.64645 3.85355C4.57653 3.78363 4.52891 3.69454 4.50961 3.59755L2.54804 3.98773ZM3.23224 5.26777C3.58187 5.6174 4.02733 5.8555 4.51228 5.95197L4.90246 3.99039C4.80547 3.9711 4.71638 3.92348 4.64645 3.85355L3.23224 5.26777ZM4.51228 5.95197C4.99723 6.04843 5.4999 5.99892 5.95671 5.8097L5.19135 3.96194C5.09998 3.99979 4.99945 4.00969 4.90246 3.99039L4.51228 5.95197ZM5.95671 5.8097C6.41353 5.62048 6.80398 5.30005 7.07868 4.88893L5.41574 3.77779C5.3608 3.86001 5.28271 3.9241 5.19135 3.96194L5.95671 5.8097ZM7.07868 4.88893C7.35338 4.4778 7.50001 3.99446 7.50001 3.5H5.50001C5.50001 3.59889 5.47068 3.69556 5.41574 3.77779L7.07868 4.88893ZM7.50001 3.499C7.49934 2.83643 7.23584 2.20118 6.76733 1.73267L5.35312 3.14689C5.44705 3.24081 5.49987 3.36817 5.50001 3.501L7.50001 3.499ZM6.76733 1.73267C6.29882 1.26416 5.66358 1.00066 5.00101 1L4.99901 3C5.13184 3.00013 5.25919 3.05296 5.35312 3.14689L6.76733 1.73267ZM21.2875 1.49046C20.5448 0.735846 19.5423 0.29287 18.4844 0.251827L18.4069 2.25032C18.9561 2.27163 19.4765 2.50159 19.862 2.89333L21.2875 1.49046ZM18.4844 0.251827C17.4264 0.210784 16.3926 0.574766 15.5938 1.26957L16.9063 2.77866C17.321 2.41797 17.8576 2.22902 18.4069 2.25032L18.4844 0.251827ZM16.9063 1.26957C16.1074 0.574766 15.0736 0.210784 14.0156 0.251827L14.0932 2.25032C14.6424 2.22902 15.179 2.41797 15.5938 2.77866L16.9063 1.26957ZM14.0156 0.251827C12.9577 0.29287 11.9552 0.735846 11.2126 1.49046L12.638 2.89333C13.0235 2.50159 13.544 2.27163 14.0932 2.25032L14.0156 0.251827ZM11.2109 1.49211C10.4347 2.28447 10 3.34947 10 4.45865H12C12 3.87276 12.2296 3.31021 12.6396 2.89167L11.2109 1.49211ZM10 4.45865C10 5.56784 10.4347 6.63284 11.2109 7.4252L12.6396 6.02564C12.2296 5.6071 12 5.04455 12 4.45865H10ZM11.2136 7.42793L15.5368 11.8076L16.9602 10.4025L12.637 6.02291L11.2136 7.42793ZM17.0164 11.7456L17.0179 11.7438L15.4821 10.4627L15.4806 10.4645L17.0164 11.7456ZM15.5613 11.8283L15.5628 11.8297L16.9402 10.3796L16.9387 10.3782L15.5613 11.8283ZM16.9632 11.8072L21.2864 7.42796L19.8631 6.02288L15.5399 10.4021L16.9632 11.8072ZM21.2891 7.4252C22.0653 6.63284 22.5 5.56784 22.5 4.45865H20.5C20.5 5.04455 20.2704 5.6071 19.8604 6.02564L21.2891 7.4252ZM22.5 4.45865C22.5 3.34947 22.0653 2.28447 21.2891 1.49211L19.8604 2.89167C20.2704 3.31021 20.5 3.87276 20.5 4.45865H22.5ZM18.7948 4.96869L15.5398 8.26666L16.9632 9.67157L20.2182 6.3736L18.7948 4.96869ZM16.9757 8.27954L16.9742 8.27796L15.5258 9.65712L15.5273 9.6587L16.9757 8.27954ZM15.5431 8.26021L15.5416 8.26171L16.9554 9.67637L16.9569 9.67487L15.5431 8.26021ZM16.9602 8.26659L13.7052 4.96861L12.2818 6.37352L15.5368 9.6715L16.9602 8.26659ZM13.7073 4.97065C13.5731 4.83391 13.4979 4.64998 13.4979 4.45839H11.4979C11.4979 5.17388 11.7786 5.86081 12.2798 6.37148L13.7073 4.97065ZM13.4979 4.45839C13.4979 4.26681 13.5731 4.08287 13.7073 3.94613L12.2798 2.54531C11.7786 3.05598 11.4979 3.7429 11.4979 4.45839H13.4979ZM13.6906 3.96274C13.8208 3.83609 13.9954 3.76524 14.177 3.76524V1.76524C13.4747 1.76524 12.8001 2.03913 12.2965 2.52869L13.6906 3.96274ZM14.177 3.76524C14.3587 3.76524 14.5333 3.83609 14.6635 3.96274L16.0576 2.52869C15.554 2.03913 14.8794 1.76524 14.177 1.76524V3.76524ZM14.6457 3.94496L15.5315 4.85051L16.9612 3.45202L16.0755 2.54647L14.6457 3.94496ZM16.9534 4.85842L16.9571 4.85474L15.5429 3.44044L15.5393 3.44411L16.9534 4.85842ZM15.5357 4.84746L15.5394 4.85121L16.968 3.45147L16.9643 3.44772L15.5357 4.84746ZM16.9686 4.85059L17.8543 3.94504L16.4246 2.54654L15.5388 3.45209L16.9686 4.85059ZM17.8365 3.96281C17.9668 3.83617 18.1413 3.76532 18.323 3.76532V1.76532C17.6206 1.76532 16.946 2.0392 16.4424 2.52877L17.8365 3.96281ZM18.323 3.76532C18.5047 3.76532 18.6792 3.83617 18.8095 3.96281L20.2036 2.52877C19.7 2.0392 19.0253 1.76532 18.323 1.76532V3.76532ZM18.7928 3.9462C18.927 4.08294 19.0021 4.26688 19.0021 4.45847H21.0021C21.0021 3.74298 20.7214 3.05605 20.2202 2.54538L18.7928 3.9462ZM19.0021 4.45847C19.0021 4.65005 18.927 4.83399 18.7928 4.97073L20.2202 6.37155C20.7214 5.86088 21.0021 5.17396 21.0021 4.45847H19.0021Z" fill="#FA541C" mask="url(#path-1-inside-1_23649_7928)"/>
</svg>
