<svg width="22" height="22" viewBox="0 0 22 22" fill="none" xmlns="http://www.w3.org/2000/svg">
<path d="M1.5 19.25V21H1V19.2503C1.00037 18.9851 1.10588 18.7309 1.2934 18.5434C1.48098 18.3558 1.7353 18.2503 2.00057 18.25H4.99943C5.2647 18.2503 5.51902 18.3558 5.7066 18.5434C5.8941 18.7309 5.9996 18.9851 6 19.2502C6 19.2503 6 19.2505 6 19.2506L6 21H5.5V19.25V18.75H5H2H1.5V19.25ZM16.5 19.25V21H16V19.2506C16.0003 18.9853 16.1058 18.731 16.2934 18.5434C16.481 18.3558 16.7353 18.2503 17.0006 18.25H19.9994C20.2647 18.2503 20.519 18.3558 20.7066 18.5434C20.8942 18.731 20.9997 18.9853 21 19.2506V21H20.5V19.25V18.75H20H17H16.5V19.25ZM13.5 19.2506V21H13V19.25V18.75H12.5H9.5H9V19.25V21H8.5L8.5 19.2506C8.5 19.2505 8.5 19.2503 8.5 19.2502C8.5004 18.9851 8.6059 18.7309 8.7934 18.5434C8.98098 18.3558 9.2353 18.2503 9.50057 18.25H12.4994C12.7647 18.2503 13.019 18.3558 13.2066 18.5434C13.3942 18.731 13.4997 18.9853 13.5 19.2506ZM3.5 1.5H3V2V8V8.5H3.5H18.5H19V8V2V1.5H18.5H3.5ZM12 15.5C12 16.0523 11.5523 16.5 11 16.5C10.4477 16.5 10 16.0523 10 15.5C10 14.9477 10.4477 14.5 11 14.5C11.5523 14.5 12 14.9477 12 15.5ZM4.5 15.5C4.5 16.0523 4.05228 16.5 3.5 16.5C2.94772 16.5 2.5 16.0523 2.5 15.5C2.5 14.9477 2.94772 14.5 3.5 14.5C4.05228 14.5 4.5 14.9477 4.5 15.5ZM19.5 15.5C19.5 16.0523 19.0523 16.5 18.5 16.5C17.9477 16.5 17.5 16.0523 17.5 15.5C17.5 14.9477 17.9477 14.5 18.5 14.5C19.0523 14.5 19.5 14.9477 19.5 15.5ZM15.75 12.5C15.75 13.0523 15.3023 13.5 14.75 13.5C14.1977 13.5 13.75 13.0523 13.75 12.5C13.75 11.9477 14.1977 11.5 14.75 11.5C15.3023 11.5 15.75 11.9477 15.75 12.5ZM8.25 12.5C8.25 13.0523 7.80228 13.5 7.25 13.5C6.69772 13.5 6.25 13.0523 6.25 12.5C6.25 11.9477 6.69772 11.5 7.25 11.5C7.80228 11.5 8.25 11.9477 8.25 12.5ZM18.4994 9H3.50057C3.2353 8.9997 2.98098 8.89418 2.7934 8.7066C2.60588 8.51909 2.50038 8.26488 2.5 7.9997V2.0003C2.50038 1.73512 2.60589 1.48091 2.7934 1.2934C2.98092 1.10588 3.23513 1.00037 3.50032 1H18.4997C18.7649 1.00037 19.0191 1.10588 19.2066 1.2934C19.3942 1.48098 19.4997 1.7353 19.5 2.00057V7.99943C19.4997 8.2647 19.3942 8.51902 19.2066 8.7066C19.019 8.89418 18.7647 8.9997 18.4994 9Z" fill="#FA541C" stroke="#FA541C"/>
</svg>
