<svg width="22" height="22" viewBox="0 0 22 22" fill="none" xmlns="http://www.w3.org/2000/svg">
<path d="M11.9423 9.41347L11.25 9.12501V9.87501V14V14.2676L11.4727 14.416L13.1209 15.5148L11.1213 15.0149L11 14.9846L10.8787 15.0149L8.87916 15.5148L10.5274 14.416L10.75 14.2676V14V9.87501V9.12501L10.0577 9.41347L6.25001 11V10.559L10.4736 8.44722L10.75 8.30902V8.00001V5.75001C10.75 5.6837 10.7763 5.62011 10.8232 5.57323C10.8701 5.52635 10.9337 5.50001 11 5.50001C11.0663 5.50001 11.1299 5.52635 11.1768 5.57323C11.2237 5.62011 11.25 5.6837 11.25 5.75001V8.00001V8.30902L11.5264 8.44722L15.75 10.559V11L11.9423 9.41347ZM11.0006 1.5H11C9.12108 1.5 7.28435 2.05717 5.72209 3.10104C4.15982 4.14492 2.94218 5.62861 2.22315 7.36451C1.50412 9.10041 1.31598 11.0105 1.68254 12.8534C2.0491 14.6962 2.95389 16.3889 4.28249 17.7175C5.61109 19.0461 7.30383 19.9509 9.14665 20.3175C10.9895 20.684 12.8996 20.4959 14.6355 19.7769C16.3714 19.0578 17.8551 17.8402 18.899 16.2779C19.9428 14.7157 20.5 12.8789 20.5 11V10.9994C20.4971 8.48091 19.4954 6.06636 17.7145 4.28549C15.9336 2.50463 13.5191 1.50288 11.0006 1.5ZM10.9994 21C9.02182 20.9999 7.08864 20.4134 5.4443 19.3147C3.79981 18.2159 2.51809 16.6541 1.76121 14.8268C1.00433 12.9996 0.8063 10.9889 1.19215 9.0491C1.578 7.10929 2.53041 5.32746 3.92894 3.92894C5.32746 2.53041 7.10929 1.578 9.0491 1.19215C10.9889 0.8063 12.9996 1.00433 14.8268 1.76121C16.6541 2.51809 18.2159 3.79981 19.3147 5.4443C20.4134 7.08864 20.9999 9.02182 21 10.9994C20.997 13.6508 19.9424 16.1928 18.0676 18.0676C16.1928 19.9424 13.6508 20.997 10.9994 21Z" fill="#FA541C" stroke="#FA541C"/>
</svg>
