<svg width="106" height="32" viewBox="0 0 106 32" fill="none" xmlns="http://www.w3.org/2000/svg">
<g clip-path="url(#clip0_22229_7827)">
<mask id="mask0_22229_7827" style="mask-type:alpha" maskUnits="userSpaceOnUse" x="0" y="0" width="106" height="32">
<rect width="106" height="32" fill="#919EAB"/>
</mask>
<g mask="url(#mask0_22229_7827)">
<path fill-rule="evenodd" clip-rule="evenodd" d="M33.0533 22.1181C33.1014 22.236 33.1495 22.3539 33.1976 22.4686C33.5748 23.5356 33.6908 24.5442 33.4603 25.553C33.1408 27.6865 31.7189 29.5308 29.6871 30.3386C28.9616 30.656 28.1492 30.8 27.3365 30.8C27.1043 30.8 26.8138 30.7715 26.5815 30.7421C25.6239 30.6269 24.6375 30.3101 23.6793 29.7624C22.5184 29.0991 21.3574 28.1481 20.0806 26.7643C18.8037 28.1481 17.6718 29.0991 16.4819 29.7624C15.5239 30.3101 14.5373 30.6269 13.5793 30.7421C13.3468 30.7712 13.0568 30.8 12.8246 30.8C12.0122 30.8 11.2285 30.656 10.4738 30.3386C8.4709 29.5308 7.02006 27.7153 6.70083 25.553C6.55529 24.5148 6.67155 23.5057 7.04905 22.4392C7.19402 22.0646 7.33899 21.7187 7.48395 21.4013C7.58717 21.1709 7.69045 20.9461 7.79116 20.727C7.91705 20.453 8.03893 20.1877 8.15168 19.9311L8.18096 19.8738C10.1836 15.5496 12.3601 11.1677 14.595 6.84377L14.6822 6.6704C14.9198 6.22155 15.1519 5.76985 15.3784 5.31539C15.6683 4.79614 15.9878 4.24837 16.4233 3.72969C17.3807 2.63445 18.6865 2 20.138 2C21.5598 2 22.895 2.63445 23.8237 3.78758C24.2518 4.26619 24.5316 4.76852 24.8003 5.25085L24.8686 5.37328C25.0945 5.82802 25.3266 6.27973 25.5647 6.72829L25.6517 6.90166C27.9158 11.2256 30.0631 15.6072 32.066 19.9317L32.095 19.9605C32.2084 20.2184 32.331 20.4856 32.4578 20.7618C32.5576 20.9792 32.66 21.2022 32.7624 21.4307C32.8593 21.6428 32.9563 21.8805 33.0533 22.1181ZM55.6021 9.23649C55.6021 10.2744 54.7601 11.1102 53.7152 11.1102C52.6702 11.1102 51.8288 10.2744 51.8288 9.23649C51.8288 8.19856 52.6415 7.3628 53.7152 7.3628C54.7897 7.3916 55.6021 8.22765 55.6021 9.23649ZM47.8232 13.0131V13.4744C47.8232 13.4744 46.9238 12.3207 45.0082 12.3207C41.845 12.3207 39.3776 14.7137 39.3776 18.0288C39.3776 21.3154 41.816 23.7368 45.0082 23.7368C46.9528 23.7368 47.8232 22.5549 47.8232 22.5549V23.0448C47.8232 23.2755 47.9978 23.448 48.2297 23.448H50.5802V12.6082H48.2297C47.9978 12.609 47.8232 12.8112 47.8232 13.0131ZM45.4741 21.1427C46.5188 21.1427 47.3897 20.5949 47.8246 19.9605V16.0973C47.4187 15.492 46.4901 14.9154 45.4741 14.9154C43.6168 14.9154 42.1944 16.0685 42.1944 18.0289C42.1944 19.9896 43.6168 21.1427 45.4741 21.1427ZM52.3233 12.6091H55.1093V23.4489H52.3233V12.6091ZM91.1268 13.4743C91.1268 13.4743 92.0267 12.3206 93.9423 12.3206C97.0766 12.3206 99.5434 14.7432 99.5434 18.0298C99.5434 21.3163 97.0766 23.7372 93.9128 23.7372C91.9977 23.7372 91.0978 22.5553 91.0978 22.5553V23.0452C91.0978 23.2471 90.9241 23.4489 90.6919 23.4489H88.3408V7.39154H91.1268V13.4743ZM93.4779 21.1136C92.4036 21.1136 91.5623 20.5664 91.1268 19.9317V16.0685C91.5623 15.492 92.4909 14.8866 93.4779 14.8866C95.3352 14.8866 96.7573 16.0397 96.7573 18.0001C96.7573 19.9605 95.3355 21.1136 93.4779 21.1136ZM86.8889 23.4776V17.0202C86.8889 15.2039 86.5111 14.1662 85.5247 13.359C84.712 12.6672 83.6961 12.3207 82.4769 12.3207C81.4032 12.3207 80.3296 12.6381 79.5169 13.4744V13.0131C79.5169 12.8112 79.3427 12.6093 79.1104 12.6093H76.9054V23.4491H79.6909V15.8959C80.2432 15.2614 81.1142 14.8289 81.9556 14.8289C83.5218 14.8289 84.1023 15.55 84.1023 17.337V23.4776H86.8889ZM70.1431 12.3206C68.2281 12.3206 67.3281 13.4743 67.3281 13.4743V7.39154H64.5421V23.4489H66.8927C67.1249 23.4489 67.2991 23.2471 67.2991 23.0452V22.5553C67.2991 22.5553 68.1991 23.7372 70.1142 23.7372C73.2779 23.7372 75.7447 21.3163 75.7447 18.0298C75.7737 14.7429 73.3069 12.3206 70.1431 12.3206ZM67.3281 19.9317C67.7636 20.5664 68.605 21.1136 69.6787 21.1136C71.5366 21.1136 72.9584 19.9605 72.9584 18.0001C72.9584 16.0397 71.5366 14.8866 69.6787 14.8866C68.6923 14.8866 67.7636 15.492 67.3281 16.0685V19.9317ZM62.133 12.3206C62.9744 12.3206 63.4099 12.4651 63.4099 12.4651V15.0306C63.4099 15.0306 61.0881 14.2521 59.6373 15.8957V23.4775H56.8507V12.6091H59.2018C59.434 12.6091 59.6077 12.811 59.6077 13.0129V13.4743C60.1307 12.8686 61.2627 12.3206 62.133 12.3206ZM20.1087 23.9676C18.5413 22.0072 17.5253 20.1624 17.1774 18.606C17.0325 17.9428 17.0032 17.3662 17.0904 16.8473C17.1481 16.3859 17.3227 15.9821 17.5549 15.6362C18.1064 14.8584 19.0351 14.3679 20.109 14.3679C21.1832 14.3679 22.1409 14.8293 22.6633 15.6362C22.8956 15.9821 23.0695 16.3862 23.1281 16.8473C23.2148 17.3665 23.1858 17.9716 23.0408 18.606C22.6914 20.1336 21.6755 21.9787 20.1087 23.9676ZM29.0475 28.6959C30.4693 28.1193 31.4852 26.8216 31.6882 25.3226C31.8045 24.5733 31.7175 23.8521 31.4858 23.1034C31.4253 22.9027 31.3367 22.7023 31.2395 22.4828C31.197 22.3866 31.1528 22.2867 31.1086 22.1815C30.9928 21.9511 30.8843 21.7067 30.7757 21.4623C30.6666 21.2166 30.5575 20.9708 30.4409 20.7392V20.7104C28.4047 16.3468 26.2856 12.0218 24.0849 7.73771L23.9976 7.56434C23.884 7.35245 23.7702 7.13349 23.6563 6.91433C23.5381 6.68668 23.4197 6.45881 23.3012 6.23841C23.0689 5.77791 22.808 5.34534 22.4885 4.96951C21.879 4.27832 21.0666 3.90307 20.1667 3.90307C19.2667 3.90307 18.4543 4.27832 17.8449 4.96951C17.5253 5.34448 17.2644 5.77704 17.0322 6.23841C16.9196 6.4484 16.8069 6.66518 16.6942 6.88209C16.5747 7.112 16.4551 7.34206 16.3354 7.56434L16.2485 7.73771C14.0136 12.0041 11.8661 16.3859 9.86376 20.6816L9.83448 20.7389C9.60195 21.2288 9.37029 21.7193 9.16704 22.1806C9.12253 22.2868 9.07797 22.3875 9.03508 22.4845C8.93825 22.7034 8.84991 22.9031 8.78983 23.1031C8.49931 23.9103 8.44162 24.6309 8.5286 25.3514C8.73155 26.8504 9.74749 28.1481 11.1693 28.7247C11.8368 28.9839 12.5918 29.0994 13.3752 29.0127C14.1006 28.9266 14.8257 28.6959 15.5805 28.2633C16.6254 27.6868 17.6993 26.7928 18.8892 25.4666C17.0029 23.1316 15.813 20.9693 15.3778 19.0671C15.1455 18.202 15.1168 17.3662 15.2328 16.6163C15.3488 15.8957 15.6103 15.2325 16.0165 14.6559C16.9162 13.3876 18.4256 12.6091 20.1084 12.6091C21.7912 12.6091 23.3006 13.3582 24.2009 14.6559C24.6071 15.2325 24.8686 15.8957 24.9843 16.6163C25.0718 17.3662 25.0425 18.1732 24.8393 19.0671C24.4038 20.9693 23.2429 23.1031 21.3276 25.4378C22.5468 26.7643 23.5914 27.6574 24.6363 28.2345C25.3905 28.6665 26.1165 28.8972 26.8419 28.9839C27.596 29.0706 28.351 28.9839 29.0475 28.6959Z" fill="#FF5A5F"/>
</g>
</g>
<defs>
<clipPath id="clip0_22229_7827">
<rect width="106" height="32" fill="white"/>
</clipPath>
</defs>
</svg>
