<svg width="106" height="32" viewBox="0 0 106 32" fill="none" xmlns="http://www.w3.org/2000/svg">
<g clip-path="url(#clip0_22229_7819)">
<mask id="mask0_22229_7819" style="mask-type:alpha" maskUnits="userSpaceOnUse" x="0" y="0" width="106" height="32">
<rect width="106" height="32" fill="#919EAB"/>
</mask>
<g mask="url(#mask0_22229_7819)">
<path d="M28.6452 3H10.2771C8.99715 3 7.97314 4.024 7.97314 5.304V26.296C7.97314 27.576 8.99715 28.6 10.2771 28.6H28.6452C29.9252 28.6 30.9492 27.576 30.9492 26.296V5.304C30.9492 4.024 29.9252 3 28.6452 3ZM29.6692 26.296C29.6692 26.872 29.2212 27.32 28.6452 27.32H10.2771C9.70115 27.32 9.25315 26.872 9.25315 26.296V5.304C9.25315 4.728 9.70115 4.28 10.2771 4.28H28.6452C29.2212 4.28 29.6692 4.728 29.6692 5.304V26.296ZM13.7332 24.76L16.6132 22.2L13.7332 19.64V24.76ZM24.1012 14.392C23.5892 13.88 22.6292 13.24 21.0292 13.24C19.3012 13.24 17.5092 13.688 16.2292 14.136V6.84H13.7332V17.912L15.5252 17.08C15.5252 17.08 18.4692 15.736 21.0292 15.736C22.3092 15.736 22.6292 16.44 22.6292 17.08V24.76H25.1892V17.08C25.1892 16.888 25.1892 15.48 24.1012 14.392ZM20.7092 11H23.2692C24.4212 9.656 24.9972 8.312 25.1892 6.84H22.6292C22.3732 8.312 21.7332 9.656 20.7092 11ZM91.4293 17.016V11.32H93.9893V16.952C93.9893 18.232 94.4373 18.872 95.4613 18.872C96.4853 18.872 96.8693 18.296 96.8693 16.952V11.32H99.3653V17.016C99.3653 19.512 98.1493 20.984 95.3973 20.984C92.6453 20.984 91.4293 19.512 91.4293 17.016ZM80.6772 11.384H83.2372V14.84L85.8613 11.384H88.8053L85.6053 15.096L89.0613 20.856H86.1813L83.9412 17.08L83.2372 17.912V20.856H80.6772V11.384ZM68.5172 16.056C68.5172 12.6 70.8852 11.128 73.1892 11.128C75.4932 11.128 77.8612 12.6 77.8612 16.056C77.8612 19.512 75.4932 20.984 73.1892 20.984C70.8852 20.984 68.5172 19.576 68.5172 16.056ZM75.2372 16.056C75.2372 14.328 74.4692 13.24 73.1252 13.24C71.7812 13.24 71.0132 14.328 71.0132 16.056C71.0132 17.784 71.7812 18.936 73.1252 18.936C74.4692 18.936 75.2372 17.848 75.2372 16.056ZM58.2132 11.384H61.9252C64.3572 11.384 65.8292 12.216 65.8292 14.456C65.8292 15.928 65.1892 16.824 63.9732 17.208L65.9572 20.856H63.2692L61.4132 17.592H60.7092V20.856H58.2132V11.384ZM61.8612 15.608C62.8852 15.608 63.3972 15.288 63.3972 14.52C63.3972 13.752 62.9492 13.432 61.8612 13.432H60.7732V15.608H61.8612ZM48.4212 11.384H55.2052V13.496H50.9812V15.032H53.9892V17.016H50.9812V18.744H55.3972V20.792H48.4212V11.384ZM36.8372 11.384H39.3972V14.904H42.5332V11.384H45.0932V20.856H42.5332V17.016H39.3972V20.856H36.8372V11.384Z" fill="#430098"/>
</g>
</g>
<defs>
<clipPath id="clip0_22229_7819">
<rect width="106" height="32" fill="white"/>
</clipPath>
</defs>
</svg>
