<svg width="106" height="32" viewBox="0 0 106 32" fill="none" xmlns="http://www.w3.org/2000/svg">
<g clip-path="url(#clip0_22229_7802)">
<mask id="mask0_22229_7802" style="mask-type:alpha" maskUnits="userSpaceOnUse" x="0" y="0" width="106" height="32">
<rect width="106" height="32" fill="#919EAB"/>
</mask>
<g mask="url(#mask0_22229_7802)">
<path d="M40.3607 13.0418C40.3607 10.5001 42.2139 8.72532 45.5817 8.72532C47.6366 8.72532 49.3181 9.38142 50.2291 10.0241C50.3595 10.1159 50.5921 10.3385 50.4526 10.7526C50.2739 11.1986 49.9461 11.8693 49.7109 12.3049C49.5741 12.5588 49.2245 12.5254 49.0454 12.4346C48.3965 12.1058 47.3322 11.5495 46.3545 11.447C46.1069 11.42 45.8578 11.4092 45.6088 11.4147C44.7478 11.4339 44.0284 11.7329 43.775 12.3899C43.7254 12.5142 43.6977 12.6461 43.6932 12.7799C43.6695 13.6456 44.8743 13.9587 46.3339 14.2094C49.0473 14.6743 51.1002 15.4698 51.1002 18.2626C51.1002 20.6344 49.2152 22.7778 45.522 22.7121C43.0873 22.6629 41.36 21.8402 40.4345 21.0419C40.4029 21.0148 40.0506 20.656 40.2394 20.2244C40.4556 19.6688 40.8204 19.0321 41.1067 18.694C41.2659 18.4769 41.686 18.4424 41.9043 18.5777C42.6673 19.0518 43.9229 19.8121 45.3702 19.8625C45.4845 19.8664 45.5977 19.8671 45.7088 19.8642C47.0107 19.8326 47.7984 19.339 47.7819 18.5074C47.7679 17.7748 46.7356 17.3469 45.0918 17.0371C42.4702 16.5432 40.3611 15.6791 40.3611 13.0418H40.3607ZM64.1781 16.6609C62.3293 16.6851 60.6343 17.1904 60.5854 18.6352C60.5849 19.7817 61.5149 20.3448 62.8202 20.2711C64.0724 20.1505 65.0273 19.6074 65.4481 18.8868C65.6037 18.6198 65.6273 17.6204 65.6179 17.1933C65.6155 17.1024 65.4357 16.9304 65.357 16.8973C64.9642 16.7318 64.6734 16.6806 64.1779 16.6606L64.1781 16.6609ZM58.0265 10.8392C58.891 10.0656 60.6051 8.86151 63.3369 8.92498C66.9419 8.99994 68.8464 10.69 69.0238 14.7329C69.0968 16.4002 68.9757 21.0507 68.9469 22.2093C68.9426 22.3756 68.8864 22.4905 68.6624 22.4948C68.0687 22.5186 66.6971 22.5092 66.067 22.5009C65.7489 22.4855 65.7121 22.3277 65.7079 22.1625C65.7052 22.0545 65.6959 21.734 65.6892 21.4728C65.6856 21.3342 65.5555 21.3382 65.5222 21.3737C64.6765 22.2766 63.2916 22.7126 61.8189 22.7126C59.5804 22.7126 57.3488 21.3958 57.3557 18.788C57.3625 16.1173 59.2562 14.8 61.3365 14.4894C62.6686 14.2911 64.1702 14.4674 65.3072 14.9192C65.38 14.9484 65.5285 14.9062 65.5297 14.8031C65.5344 14.4628 65.5179 13.8142 65.4525 13.5068C65.2856 12.7236 64.6323 12.0935 63.2597 11.9236C62.977 11.8888 62.6925 11.8773 62.4075 11.9C61.3164 11.9857 60.0034 12.8365 59.4596 13.155C59.3317 13.2298 59.1313 13.1751 59.0665 13.0916C58.7492 12.6816 57.9516 11.4826 57.8888 11.291C57.826 11.1 57.9145 10.9391 58.0262 10.8386L58.0265 10.8392ZM70.2125 15.8108C70.191 12.0861 72.7863 8.94385 77.0004 8.91623C79.6299 8.89908 81.5403 10.0912 81.8771 10.6535C81.9456 10.7855 81.9104 10.8958 81.8631 11.0288C81.6404 11.4988 81.0782 12.4068 80.6775 12.9214C80.5068 13.1406 80.3215 12.9528 80.1063 12.8096C79.5088 12.4116 78.3737 11.925 77.2565 11.925C75.2297 11.9254 73.7204 13.3151 73.7372 15.8719C73.753 18.3254 75.1987 19.6738 77.2635 19.7227C78.343 19.7498 79.3888 19.1294 79.9514 18.6211C80.1281 18.4669 80.3109 18.5441 80.5128 18.7019C80.909 19.1069 81.4773 19.7321 81.7924 20.1625C81.9988 20.4016 81.8444 20.6356 81.7701 20.7296C80.9152 21.8114 79.2641 22.7219 77.079 22.7342C72.5036 22.7663 70.2339 19.5493 70.2128 15.8113L70.2125 15.8108ZM92.0528 22.5663C92.2675 22.5502 94.5593 22.2339 95.2628 22.0728C95.4374 22.033 95.4995 21.8862 95.4019 21.7407C95.0091 21.1517 93.9763 19.479 92.8946 17.9815C91.8998 16.6047 90.8512 15.3937 90.5121 14.9278C90.4294 14.8146 90.4339 14.7031 90.5239 14.6153C91.1691 13.984 93.8676 11.3382 94.8822 10.2456C95.275 9.82053 95.0391 9.63768 94.7055 9.53836C94.061 9.34625 93.0187 9.1068 92.4259 8.98176C92.1759 8.92892 91.8749 8.94745 91.6564 9.17215C90.642 10.1181 87.546 13.2254 86.6218 14.1542C86.4554 14.3218 86.3585 14.2846 86.3577 14.0451C86.3501 12.2543 86.3148 4.58737 86.2508 3.32629C86.2463 3.15956 86.0458 3.03298 85.9328 3.02697C85.3517 2.99661 83.8835 2.98786 83.305 3.02183C83.1429 3.04018 82.988 3.20536 82.9739 3.34499C82.8405 5.36147 83.0305 20.164 83.1098 22.2347C83.1154 22.3845 83.2269 22.5006 83.3691 22.509C83.9463 22.5425 85.3739 22.5402 86.0405 22.5277C86.3685 22.5277 86.4086 22.2972 86.4086 22.2972L86.458 18.3251C86.458 18.3251 86.4918 18.1484 86.5465 18.0901C86.7815 17.8371 87.4316 17.1403 87.7088 16.871C87.7754 16.8064 87.8803 16.811 87.9483 16.9024C88.2776 17.3467 89.2167 18.791 90.0872 20.0808C90.8871 21.2658 91.6337 22.3174 91.6859 22.3917C91.8063 22.5632 91.9469 22.5701 92.053 22.5668V22.5663H92.0528ZM53.0757 22.5526C53.2772 22.5593 54.8064 22.5575 55.4839 22.5567C55.7121 22.5611 55.8306 22.3884 55.8381 22.2359C55.9821 19.3326 55.9205 5.50985 55.8296 3.32715C55.822 3.13847 55.7412 3.06762 55.6124 3.05047C55.0309 2.9726 53.3784 2.99078 52.8487 3.12937C52.7451 3.1563 52.6841 3.23504 52.6808 3.33624C52.5511 8.96237 52.6386 21.9334 52.6661 22.179C52.6933 22.425 52.822 22.544 53.076 22.5526H53.0757Z" fill="#443642"/>
<path d="M12.1498 16.7799C11.2074 16.7871 10.4091 16.2255 10.1147 15.349C10.1038 15.3159 10.0936 15.2826 10.0842 15.249C9.76346 14.1265 10.3854 12.9522 11.5002 12.5762L29.3803 6.58592C29.5926 6.5245 29.8123 6.49242 30.0333 6.49055C31.0007 6.483 31.821 7.05694 32.1225 7.95198L32.1493 8.03843C32.4838 9.20757 31.6527 10.2512 30.657 10.5856C30.6563 10.5862 30.4752 10.6474 12.876 16.6562C12.6421 16.736 12.3969 16.7777 12.1498 16.7799Z" fill="#70CADB"/>
<path d="M15.13 25.5734C14.1803 25.5803 13.3792 25.0266 13.0883 24.1626C13.0773 24.1298 13.067 24.0966 13.0574 24.0633C12.7322 22.9274 13.3535 21.7408 14.472 21.3643L32.3528 15.3191C32.5839 15.2419 32.8225 15.2025 33.0625 15.2003C34.0148 15.1931 34.8515 15.7749 35.1467 16.6486L35.1742 16.7396C35.3469 17.3435 35.2448 18.0222 34.9014 18.5579C34.6455 18.9562 33.8383 19.3068 33.8383 19.3068L15.8895 25.4439C15.6447 25.5268 15.3884 25.5706 15.13 25.5738V25.5734Z" fill="#E01765"/>
<path d="M30.0149 25.6115C29.5514 25.616 29.0984 25.4736 28.7208 25.2049C28.3432 24.9361 28.0603 24.5547 27.9128 24.1153L21.9453 6.38955L21.9155 6.29006C21.5921 5.15969 22.2139 3.9806 23.3283 3.60496C23.5513 3.53 23.7819 3.49089 24.0139 3.48883C24.3587 3.48626 24.6923 3.56396 25.0066 3.71919C25.2654 3.8472 25.4964 4.02512 25.6862 4.24273C25.8761 4.46033 26.021 4.71331 26.1128 4.98713L32.0797 22.7113L32.097 22.7683C32.4322 23.9419 31.8118 25.1217 30.6974 25.4973C30.4772 25.5709 30.2469 25.6094 30.0149 25.6115Z" fill="#E8A723"/>
<path d="M21.1444 28.5972C20.6807 28.6016 20.2275 28.4591 19.8497 28.1901C19.4719 27.9211 19.189 27.5394 19.0415 27.0997L13.0756 9.37467C12.9831 9.10122 12.9455 8.81222 12.9649 8.52421C12.9843 8.23621 13.0603 7.95486 13.1886 7.69627C13.3169 7.43768 13.4949 7.20693 13.7125 7.01724C13.93 6.82754 14.1829 6.68261 14.4565 6.59076C14.677 6.51707 14.9076 6.4784 15.1401 6.47618C15.6036 6.4716 16.0567 6.61391 16.4344 6.8827C16.8121 7.15149 17.095 7.53296 17.2425 7.97242L23.2086 25.6982C23.3011 25.9718 23.3387 26.2609 23.3192 26.5491C23.2998 26.8372 23.2236 27.1187 23.0952 27.3773C22.9668 27.636 22.7886 27.8668 22.5708 28.0564C22.353 28.2461 22.0999 28.3909 21.8261 28.4826C21.6061 28.5563 21.3758 28.595 21.1437 28.597H21.1444V28.5972Z" fill="#3EB890"/>
<path d="M27.073 21.6198L31.234 20.1972L29.8738 16.1577L25.708 17.5654L27.073 21.6198Z" fill="#CC2027"/>
<path d="M18.2164 24.6479L22.377 23.2254L21.0065 19.155L16.8418 20.5633L18.2164 24.6479Z" fill="#361238"/>
<path d="M24.1103 12.821L28.2715 11.4003L26.9273 7.40796L22.7583 8.80471L24.1103 12.821Z" fill="#65863A"/>
<path d="M15.2527 15.8451L19.414 14.4243L18.0533 10.3811L13.8843 11.7777L15.2527 15.8451Z" fill="#1A937D"/>
</g>
</g>
<defs>
<clipPath id="clip0_22229_7802">
<rect width="106" height="32" fill="white"/>
</clipPath>
</defs>
</svg>
