<svg width="106" height="32" viewBox="0 0 106 32" fill="none" xmlns="http://www.w3.org/2000/svg">
<g clip-path="url(#clip0_22229_7823)">
<mask id="mask0_22229_7823" style="mask-type:alpha" maskUnits="userSpaceOnUse" x="0" y="0" width="106" height="32">
<rect width="106" height="32" fill="#919EAB"/>
</mask>
<g mask="url(#mask0_22229_7823)">
<path fill-rule="evenodd" clip-rule="evenodd" d="M32.4163 8.93806C32.6877 9.0917 33.1082 9.2088 33.5225 9.24586C33.7577 9.26671 34.2488 9.25333 34.4866 9.21935C35.2995 9.10303 35.9722 8.76408 36.6021 8.1531C37.1955 7.57738 37.5339 7.00424 37.6367 6.39995C37.6809 6.13924 37.6657 5.77096 37.6013 5.55709C37.4703 5.12086 37.1312 4.63907 36.7577 4.35906C36.3628 4.06284 35.8962 3.95655 35.2509 4.01574C34.201 4.112 33.2377 4.59584 32.4243 5.43484C31.9883 5.88445 31.7324 6.3266 31.6363 6.79629C31.589 7.02637 31.5843 7.48756 31.6267 7.73C31.6807 8.04192 31.7875 8.31241 31.933 8.51032C32.0345 8.6475 32.2664 8.85313 32.4163 8.93806ZM80.8494 26.4145C81.8691 27.3716 83.1624 27.8853 84.8254 27.9945C85.0753 28.0107 86.1187 27.9888 86.3849 27.961C88.4493 27.7507 90.1606 26.9799 91.6586 25.585C92.6286 24.6822 93.4989 23.4865 94.0287 22.3284C94.6211 21.0346 94.9274 19.6739 94.9695 18.1493C95.0155 16.478 94.6227 15.0141 93.8292 13.8997C93.5002 13.4373 93.0559 12.966 92.6984 12.6992C92.105 12.257 91.396 11.9464 90.6258 11.7912C90.0802 11.6813 89.6152 11.645 88.9303 11.6592C87.3206 11.6918 85.9187 12.0264 84.5902 12.6945C83.4242 13.2813 82.4767 14.0253 81.4785 15.1395C81.0117 15.6604 80.7181 16.0359 80.3899 16.5323C79.5765 17.761 79.1017 19.055 78.9598 20.4314C78.9055 20.9535 78.9068 21.6981 78.9624 22.2211L78.973 22.3214L78.5667 22.4949C76.5711 23.3468 74.873 23.8092 73.1403 23.9727C72.7265 24.0113 71.8477 24.0267 71.6063 23.9999C70.9761 23.9284 70.4711 23.704 70.0627 23.3128C69.9356 23.191 69.7309 22.9561 69.7526 22.9561C69.7877 22.9561 70.3357 22.8475 70.6316 22.7821C72.7934 22.3044 74.6949 21.3746 76.2372 20.0422C77.5507 18.9075 78.3602 17.8348 78.7169 16.7565C78.8768 16.2729 78.9244 15.9466 78.9094 15.437C78.8955 14.9521 78.813 14.5048 78.6639 14.1023C78.2069 12.868 77.1808 12.1615 75.5401 11.9513C74.6755 11.8406 73.5039 11.889 72.5083 12.0768C70.0715 12.537 67.9038 13.8774 66.086 16.0469C65.4642 16.7894 64.9963 17.499 64.6045 18.2932C64.0299 19.4577 63.7573 20.5469 63.7263 21.8062C63.7164 22.1958 63.7387 22.8282 63.7671 22.9473C63.7735 22.9769 63.7433 23.0037 63.6081 23.0902C63.375 23.2394 63.1411 23.3588 62.9713 23.4155C62.8327 23.4618 62.8157 23.4633 62.5562 23.4541C62.2491 23.443 62.0953 23.4093 61.9186 23.3161C61.6784 23.1882 61.581 22.9862 61.5355 22.5209C61.4779 21.9336 61.5497 21.4801 62.0398 19.3265C62.4301 17.6125 62.5727 16.7475 62.6193 15.8199C62.6839 14.5267 62.4135 13.6146 61.763 12.9323C61.3406 12.4886 60.7356 12.2297 59.9488 12.1551C59.6764 12.1294 59.1326 12.1427 58.8121 12.1831C57.4808 12.3509 56.2593 12.9501 55.1034 14.0022C54.816 14.2637 54.3386 14.7529 54.0931 15.0378C53.9654 15.1858 53.7816 15.367 53.5787 15.5446L53.2626 15.8212L53.251 15.4491C53.2262 14.6744 53.1109 14.1249 52.8662 13.6167C52.7423 13.3546 52.5743 13.1155 52.3694 12.9099C51.8251 12.3646 51.029 12.1106 49.9693 12.1438C48.8315 12.1795 47.6884 12.5051 46.6579 13.0867C46.4511 13.2036 45.9835 13.5129 45.7801 13.6679C45.0538 14.2207 44.402 14.8968 43.9375 15.5783C43.8706 15.6766 43.8156 15.7471 43.8156 15.7353C43.8156 15.7234 43.8298 15.6349 43.8466 15.5386C43.8939 15.2689 43.889 14.6175 43.8373 14.2842C43.7421 13.6717 43.5374 13.1428 43.2025 12.6436C42.8776 12.1595 42.485 11.8764 41.9843 11.7654C41.9084 11.7485 41.7649 11.7369 41.6235 11.7361C41.425 11.7348 41.3697 11.741 41.2643 11.7757C41.0236 11.855 40.7401 12.0205 40.3744 12.2941C39.8921 12.6554 39.5455 12.9617 38.3842 14.0524C37.4344 14.9446 36.6427 15.6794 36.4863 15.8145C36.4302 15.8632 36.3834 15.9079 36.3824 15.9141C36.3814 15.9229 37.2578 16.9284 37.3646 17.0411C37.3837 17.0617 37.4315 17.0347 37.6468 16.8821C38.1679 16.5127 38.5434 16.284 38.7225 16.2258C38.98 16.1424 39.1847 16.3097 39.21 16.6244C39.2211 16.7621 39.1873 17.3355 39.141 17.7985C39.0839 18.3704 38.9872 19.0372 38.799 20.1616C38.7013 20.7448 38.5956 21.4201 38.5646 21.6621C38.5333 21.904 38.5044 22.1199 38.5 22.142C38.4853 22.2174 37.6137 22.884 37.2113 23.1277C36.989 23.2626 36.707 23.3957 36.5714 23.4309C36.3367 23.4919 35.9908 23.4525 35.7494 23.3383C35.6476 23.2899 35.5804 23.2399 35.4781 23.1375C35.2056 22.8647 35.079 22.4951 35.0531 21.8981C35.0428 21.6603 35.0456 21.6348 35.1526 20.9705C35.4755 18.9747 35.7696 17.3206 36.0573 15.8871C36.2123 15.1148 36.2397 14.9526 36.254 14.7133C36.3044 13.8781 36.1345 13.1495 35.7598 12.5885C35.3483 11.9731 34.7523 11.6993 33.8924 11.7307C33.6623 11.7394 33.5814 11.7497 33.4486 11.7883C32.7613 11.9888 31.9425 12.5712 30.5352 13.8606C30.1933 14.1738 29.8753 14.4644 29.8288 14.5066L29.744 14.5828L29.7322 14.4345C29.6089 12.896 29.0431 12.0022 27.972 11.6537C27.1842 11.3974 25.9472 11.4548 25.0364 11.7899C24.6208 11.943 24.1475 12.2125 23.7924 12.4987C23.5797 12.6701 23.2199 13.0386 23.038 13.2715C22.536 13.9142 22.1527 14.6543 21.826 15.6125C21.7718 15.7721 21.7294 15.9118 21.7322 15.9226C21.7353 15.9352 21.8054 15.9172 21.9196 15.8742C22.3264 15.7214 22.6836 15.6544 23.0907 15.6544C23.4383 15.6544 23.5851 15.682 23.8035 15.789C24.0736 15.9213 24.2465 16.1409 24.3391 16.4695C24.3659 16.5665 24.3716 16.6515 24.3711 16.9727C24.3703 17.3047 24.3644 17.3852 24.3292 17.5466C24.1886 18.1931 23.7924 19.0375 23.1385 20.0865C22.345 21.3586 21.7666 21.9876 21.3618 22.0185C21.2721 22.0249 21.2416 22.0185 21.1421 21.9696C20.7723 21.7882 20.4249 21.0665 20.1124 19.8296C19.8498 18.7899 19.6813 17.8896 19.2833 15.3927C19.1305 14.4356 19.0853 14.2006 18.9853 13.8485C18.5666 12.3749 17.7938 11.68 16.6301 11.7312C16.1678 11.7513 15.7733 11.9065 15.1504 12.3139C14.5676 12.6948 14.0626 13.104 13.1916 13.901C12.5555 14.4813 11.9165 15.0584 11.2745 15.6323C10.9907 15.885 10.9566 15.9213 10.9786 15.9468C11.1274 16.137 11.2753 16.328 11.4221 16.5197C11.6904 16.8679 11.8486 17.0589 11.8625 17.0512C11.8742 17.0442 11.975 16.9755 12.0861 16.898C12.4841 16.6208 12.9486 16.3233 13.1096 16.2425C13.2637 16.1661 13.2797 16.1612 13.3789 16.1712C13.6237 16.1957 13.9127 16.4214 14.1432 16.7683C14.4433 17.2192 14.7871 18.0513 15.0486 18.9585C15.3309 19.9879 15.6105 21.018 15.8876 22.0489C16.4071 23.9739 16.6806 24.9548 16.7353 25.095C17.3843 26.7519 18.1329 27.6599 19.0344 27.8838C19.2386 27.9348 19.6428 27.9376 19.9144 27.8897C21.3691 27.6349 23.0183 26.3903 24.9403 24.0977C25.9219 22.926 27.0653 21.3643 27.8138 20.1709C28.4933 19.0877 29.0821 17.9131 29.3504 17.1057L29.3987 16.96L29.7275 16.7258C30.1134 16.4512 30.2711 16.3496 30.4701 16.2479C30.6045 16.1792 30.6262 16.1735 30.751 16.1751C31.1961 16.1813 31.4548 16.5514 31.46 17.1886C31.4615 17.3834 31.4556 17.4182 31.3602 17.7906C31.239 18.2636 31.0405 18.9914 30.751 20.0278C30.3481 21.4693 30.1744 22.1696 30.0043 23.0374C29.7453 24.3595 29.7125 25.2126 29.8934 25.9114C29.9873 26.2743 30.0906 26.5121 30.2767 26.7931C30.744 27.4988 31.4621 27.8442 32.4633 27.8442C33.1426 27.8442 33.9105 27.7124 34.6125 27.4754C35.8825 27.0466 37.079 26.2951 38.3979 25.0978C38.4899 25.0142 38.568 24.9493 38.5716 24.9532C38.5925 25.0116 38.611 25.0708 38.6269 25.1308C38.7768 25.6548 39.035 26.1461 39.3343 26.4768C39.7747 26.9635 40.4144 27.3202 41.2082 27.5209C41.744 27.6565 42.2232 27.7142 42.9572 27.7304C43.4478 27.7415 43.4607 27.7412 43.4478 27.7078C43.355 27.4671 43.2593 27.0098 43.2131 26.5864C43.1267 25.7968 43.126 24.5978 43.2115 23.756C43.3694 22.2007 43.8241 20.6764 44.5568 19.2462C45.2154 17.9602 45.8422 17.1978 46.4291 16.9675C46.546 16.9217 46.5997 16.9119 46.7667 16.9055C46.9044 16.9001 47.0058 16.9063 47.0975 16.9256C47.5501 17.0213 47.8052 17.3111 47.915 17.8541C47.9489 18.0204 47.9435 18.6427 47.9057 18.9762C47.8383 19.5692 47.7362 20.0893 47.5248 20.9167C47.296 21.8116 47.1908 22.4228 47.1378 23.1633C47.0608 24.238 47.1247 24.9612 47.356 25.6308C47.7395 26.7421 48.6193 27.3626 50.1732 27.6185C50.6025 27.6892 50.9957 27.7199 51.6191 27.7312C52.1792 27.7417 52.1947 27.7412 52.1838 27.7078C52.1779 27.689 52.1363 27.5683 52.0915 27.4401C51.9959 27.1652 51.9142 26.7774 51.8706 26.3888C51.832 26.0452 51.8269 24.9854 51.862 24.6096C52.0305 22.8125 52.6516 21.0637 53.7837 19.2009C54.6043 17.8505 55.3329 17.0898 55.9612 16.9274C56.113 16.8882 56.4187 16.898 56.5387 16.9464C56.8767 17.0818 57.0664 17.3757 57.1435 17.8845C57.1781 18.1143 57.1781 18.6085 57.1427 18.9456C57.0835 19.5141 56.9214 20.3958 56.7361 21.1556C56.389 22.5839 56.3045 23.0019 56.2063 23.7832C56.0419 25.0896 56.1246 25.9991 56.4683 26.6683C56.7674 27.2509 57.2931 27.6257 58.0173 27.7718C58.5376 27.8774 59.2817 27.8632 59.9765 27.7345C61.4174 27.4684 62.8723 26.7169 64.2742 25.5148L64.5301 25.2955L64.6148 25.4422C64.7425 25.6549 64.8827 25.8599 65.0349 26.056C65.1863 26.2485 65.6577 26.7061 65.8562 26.8538C66.6495 27.444 67.6301 27.7873 68.8371 27.8985C69.3796 27.9484 70.2656 27.9368 71.0203 27.8699C73.3796 27.6619 75.7161 26.9434 77.9862 25.7276C78.3323 25.5426 79.1472 25.0765 79.4173 24.9092C79.5398 24.8333 79.6458 24.7715 79.6525 24.7715C79.6597 24.7715 79.7006 24.8418 79.7432 24.9282C79.9965 25.4373 80.4346 26.0254 80.8494 26.4145ZM88.9719 22.1508C88.152 23.5107 87.1923 24.2612 86.1055 24.3924C85.7377 24.4364 85.4097 24.4063 85.1877 24.3075C84.892 24.1762 84.6191 23.8787 84.4087 23.46C84.1078 22.8606 83.99 22.2234 84.0383 21.4564C84.1288 20.0229 84.5338 18.749 85.3027 17.4809C85.8964 16.5024 86.5304 15.8714 87.2968 15.498C87.7 15.3011 88.1156 15.1917 88.5881 15.1582C89.0047 15.1284 89.2034 15.1801 89.4221 15.3744C89.6281 15.5579 89.7816 15.8294 89.9321 16.2785C90.0975 16.7714 90.1714 17.2141 90.1874 17.8086C90.2267 19.2735 89.8114 20.7585 88.9719 22.1508ZM69.3324 21.2381C71.0047 20.5726 72.5162 19.3944 73.4092 18.0604C73.6873 17.6448 73.863 17.2508 73.9183 16.9185C73.945 16.761 73.9318 16.463 73.8912 16.2942C73.8591 16.1596 73.7767 15.9912 73.7012 15.9058C73.626 15.8209 73.489 15.7362 73.3541 15.6922C73.2192 15.6477 72.8393 15.6387 72.6638 15.6757C71.9176 15.833 71.1828 16.4015 70.4436 17.3949C69.6405 18.4735 69.2016 19.4911 69.1003 20.51C69.074 20.7725 69.0755 21.321 69.1027 21.321C69.114 21.3212 69.2174 21.2837 69.3324 21.2381Z" fill="#1AB7EA"/>
</g>
</g>
<defs>
<clipPath id="clip0_22229_7823">
<rect width="106" height="32" fill="white"/>
</clipPath>
</defs>
</svg>
