<svg width="18" height="18" viewBox="0 0 18 18" fill="none" xmlns="http://www.w3.org/2000/svg">
<path d="M10.125 15.75H7.875C7.57663 15.75 7.29048 15.6315 7.0795 15.4205C6.86853 15.2095 6.75 14.9234 6.75 14.625V10.3556L2.58188 6.1875C2.37061 5.97749 2.25126 5.69226 2.25 5.39438V3.375C2.25 3.07663 2.36853 2.79048 2.5795 2.5795C2.79048 2.36853 3.07663 2.25 3.375 2.25H14.625C14.9234 2.25 15.2095 2.36853 15.4205 2.5795C15.6315 2.79048 15.75 3.07663 15.75 3.375V5.39438C15.7487 5.69226 15.6294 5.97749 15.4181 6.1875L11.25 10.3556V14.625C11.25 14.9234 11.1315 15.2095 10.9205 15.4205C10.7095 15.6315 10.4234 15.75 10.125 15.75ZM3.375 3.375V5.39438L7.875 9.89437V14.625H10.125V9.89437L14.625 5.39438V3.375H3.375Z" fill="white"/>
</svg>
