<svg width="25" height="24" viewBox="0 0 25 24" fill="none" xmlns="http://www.w3.org/2000/svg">
<path d="M17.5833 18H14.5833V21H17.5833V18Z" fill="#919EAB"/>
<path d="M22.8333 18H19.8333V21H22.8333V18Z" fill="#919EAB"/>
<path d="M17.5833 12.75H14.5833V15.75H17.5833V12.75Z" fill="#919EAB"/>
<path d="M22.8333 12.75H19.8333V15.75H22.8333V12.75Z" fill="#919EAB"/>
<path d="M13.0833 18H3.33325V7.5H21.3333V11.25H22.8333V7.5C22.8328 7.10232 22.6746 6.72105 22.3934 6.43984C22.1122 6.15864 21.7309 6.00046 21.3333 6H16.8333V3C16.8328 2.60232 16.6746 2.22105 16.3934 1.93984C16.1122 1.65864 15.7309 1.50046 15.3333 1.5H9.33325C8.93555 1.5004 8.55425 1.65856 8.27303 1.93978C7.99181 2.221 7.83365 2.6023 7.83325 3V6H3.33325C2.93555 6.0004 2.55425 6.15856 2.27303 6.43978C1.99181 6.721 1.83365 7.1023 1.83325 7.5V18C1.83371 18.3977 1.99189 18.7789 2.2731 19.0602C2.5543 19.3414 2.93557 19.4995 3.33325 19.5H13.0833V18ZM9.33325 3H15.3333V6H9.33325V3Z" fill="#919EAB"/>
</svg>
