<svg width="25" height="24" viewBox="0 0 25 24" fill="none" xmlns="http://www.w3.org/2000/svg">
<path d="M12.6668 13.5C11.9251 13.5 11.2001 13.2801 10.5834 12.868C9.96669 12.456 9.48604 11.8703 9.20221 11.1851C8.91838 10.4998 8.84412 9.74584 8.98881 9.01841C9.13351 8.29098 9.49066 7.6228 10.0151 7.09835C10.5396 6.5739 11.2077 6.21675 11.9352 6.07205C12.6626 5.92736 13.4166 6.00162 14.1018 6.28545C14.787 6.56928 15.3727 7.04993 15.7848 7.66661C16.1968 8.2833 16.4168 9.00832 16.4168 9.75C16.4156 10.7442 16.0202 11.6974 15.3172 12.4004C14.6141 13.1034 13.661 13.4989 12.6668 13.5ZM12.6668 7.5C12.2218 7.5 11.7867 7.63196 11.4167 7.87919C11.0467 8.12643 10.7583 8.47783 10.588 8.88896C10.4177 9.3001 10.3732 9.75249 10.46 10.189C10.5468 10.6254 10.7611 11.0263 11.0758 11.341C11.3904 11.6557 11.7913 11.8699 12.2278 11.9568C12.6643 12.0436 13.1167 11.999 13.5278 11.8287C13.9389 11.6584 14.2903 11.37 14.5376 11C14.7848 10.63 14.9168 10.195 14.9168 9.75C14.9161 9.15346 14.6788 8.58155 14.257 8.15973C13.8352 7.73792 13.2633 7.50065 12.6668 7.5Z" fill="#919EAB"/>
<path d="M12.6668 22.5L6.34013 15.0385C6.30421 14.9957 6.07898 14.6999 6.07898 14.6999C4.99816 13.2763 4.41422 11.5374 4.41676 9.75C4.41676 7.56196 5.28595 5.46354 6.83313 3.91637C8.3803 2.36919 10.4787 1.5 12.6668 1.5C14.8548 1.5 16.9532 2.36919 18.5004 3.91637C20.0476 5.46354 20.9168 7.56196 20.9168 9.75C20.9194 11.5367 20.3359 13.2749 19.2557 14.698L19.2545 14.6999C19.2545 14.6999 19.0295 14.9956 18.996 15.0354L12.6668 22.5ZM7.27613 13.7963C7.27688 13.7968 7.45118 14.0274 7.49108 14.077L12.6668 20.1809L17.8493 14.0684C17.8822 14.027 18.058 13.7948 18.0584 13.7942C18.9413 12.631 19.4185 11.2103 19.4168 9.75C19.4168 7.95979 18.7056 6.2429 17.4397 4.97703C16.1739 3.71116 14.457 3 12.6668 3C10.8765 3 9.15966 3.71116 7.89379 4.97703C6.62791 6.2429 5.91676 7.95979 5.91676 9.75C5.9151 11.2111 6.39262 12.6325 7.27613 13.7963Z" fill="#919EAB"/>
</svg>
