<svg width="24" height="24" viewBox="0 0 24 24" fill="none" xmlns="http://www.w3.org/2000/svg">
<path d="M21.7499 20.6896L16.0859 15.0255C17.4469 13.3915 18.1256 11.2958 17.9808 9.17412C17.8359 7.05248 16.8787 5.06836 15.3082 3.63451C13.7378 2.20065 11.675 1.42746 9.54894 1.47577C7.42292 1.52408 5.39736 2.39018 3.89365 3.89389C2.38993 5.39761 1.52384 7.42316 1.47552 9.54918C1.42721 11.6752 2.20041 13.738 3.63426 15.3085C5.06812 16.8789 7.05224 17.8362 9.17387 17.981C11.2955 18.1258 13.3913 17.4471 15.0253 16.0861L20.6894 21.7502L21.7499 20.6896ZM2.99993 9.75018C2.99993 8.41515 3.39581 7.11011 4.13751 6.00008C4.87921 4.89005 5.93342 4.02488 7.16682 3.51399C8.40022 3.0031 9.75742 2.86943 11.0668 3.12988C12.3762 3.39033 13.5789 4.0332 14.5229 4.97721C15.4669 5.92121 16.1098 7.12395 16.3702 8.43332C16.6307 9.74269 16.497 11.0999 15.9861 12.3333C15.4752 13.5667 14.6101 14.6209 13.5 15.3626C12.39 16.1043 11.085 16.5002 9.74993 16.5002C7.96033 16.4982 6.2446 15.7864 4.97916 14.521C3.71371 13.2555 3.00192 11.5398 2.99993 9.75018Z" fill="#919EAB"/>
</svg>
