<svg width="48" height="48" viewBox="0 0 48 48" fill="none" xmlns="http://www.w3.org/2000/svg">
<path d="M38.9537 41.8065L37.1615 36.4289C36.5351 34.5515 34.9372 33.1657 32.9893 32.8111L27.8154 31.8697V31.4686C28.7158 30.9461 29.4993 30.247 30.1233 29.4194H31.6864C32.9669 29.4194 34.0089 28.3773 34.0089 27.0968V17.8065C34.0089 12.257 29.4938 7.74194 23.9444 7.74194C18.395 7.74194 13.8799 12.257 13.8799 17.8065V23.2258C13.8799 24.7185 14.9413 25.9672 16.3488 26.2583C16.7831 28.4834 18.1736 30.3662 20.0735 31.4686V31.8697L14.8988 32.8111C12.9517 33.1657 11.3529 34.5515 10.7274 36.4289L10.4177 37.3587L7.78082 34.7218C7.47888 34.4199 7.47888 33.9283 7.78082 33.6263L10.8389 30.569L5.09901 24.8292L1.64301 28.2852C0.619526 29.3086 0.0559129 30.6697 0.0559129 32.1174C0.0559129 33.5652 0.619526 34.9254 1.64301 35.9489L12.1062 46.4121C13.1297 47.4356 14.4908 48 15.9385 48C17.3862 48 18.7465 47.4356 19.746 46.4354L23.5171 42.9801L22.3411 41.8065H38.9537ZM32.4606 27.0968C32.4606 27.5241 32.1129 27.871 31.6864 27.871H31.0353C31.2598 27.3592 31.4301 26.8196 31.54 26.2583C31.8714 26.1894 32.1764 26.0578 32.4606 25.8921V27.0968ZM31.6864 24.559V21.8926C32.147 22.1613 32.4606 22.6552 32.4606 23.2258C32.4606 23.7964 32.147 24.2903 31.6864 24.559ZM16.2025 24.559C15.7418 24.2903 15.4283 23.7964 15.4283 23.2258C15.4283 22.6552 15.7418 22.1613 16.2025 21.8926V24.559ZM16.2025 19.3548V20.239C15.9269 20.311 15.6683 20.4194 15.4283 20.5595V17.8065C15.4283 13.111 19.2489 9.29032 23.9444 9.29032C28.6399 9.29032 32.4606 13.111 32.4606 17.8065V20.5595C32.2206 20.4194 31.962 20.3102 31.6864 20.239V19.3548H30.9122C28.6229 19.3548 26.4706 18.463 24.851 16.8441L23.9444 15.9375L23.0378 16.8441C21.4182 18.463 19.266 19.3548 16.9767 19.3548H16.2025ZM17.7509 24.7742V20.8738C20.0758 20.6988 22.2435 19.7396 23.9444 18.1223C25.6453 19.7396 27.8131 20.6996 30.138 20.8738V24.7742C30.138 25.903 29.8298 26.959 29.3003 27.871H23.9444V29.4194H28.0275C26.9359 30.3801 25.5091 30.9677 23.9444 30.9677C20.5295 30.9677 17.7509 28.1892 17.7509 24.7742ZM26.267 32.1592V32.1956L23.9444 34.5182L21.6218 32.1956V32.1592C22.3558 32.3899 23.1354 32.5161 23.9444 32.5161C24.7535 32.5161 25.5331 32.3899 26.267 32.1592ZM12.1953 36.9182C12.642 35.5773 13.7839 34.5871 15.1751 34.3332L20.5868 33.3499L23.9444 36.7076L27.3013 33.3507L32.7122 34.3339C34.1034 34.5879 35.2453 35.5773 35.692 36.919L36.8061 40.2581H20.7927L17.7772 37.2426L14.4265 40.2736C14.1346 40.567 13.6244 40.567 13.3318 40.2736L11.6409 38.5827L12.1953 36.9182ZM5.09824 27.0186L8.64869 30.569L7.80791 31.4098L4.25746 27.8594L5.09824 27.0186ZM18.6737 45.319C17.9429 46.0483 16.9705 46.4516 15.9369 46.4516C14.9034 46.4516 13.931 46.0483 13.1994 45.3174L2.73617 34.855C2.00533 34.1241 1.60275 33.1517 1.60275 32.1182C1.60275 31.0839 2.00533 30.1115 2.73617 29.3806L3.16198 28.9548L6.71243 32.5053L6.68456 32.5332C5.77952 33.439 5.77952 34.9123 6.68456 35.8181L12.2363 41.3698C12.6753 41.808 13.2582 42.0503 13.8791 42.0503C14.5 42.0503 15.083 41.8088 15.4933 41.3969L15.5514 41.345L19.1181 44.9117L18.6737 45.319ZM20.2608 43.8635L16.7018 40.3045L17.7246 39.3801L21.2773 42.9329L20.2608 43.8635Z" fill="#212B36"/>
<path d="M45.6219 0H34.7832C33.5027 0 32.4606 1.04206 32.4606 2.32258V8.51613C32.4606 9.79665 33.5027 10.8387 34.7832 10.8387H36.8511L36.0506 15.5079L43.5215 10.8387H45.6219C46.9024 10.8387 47.9445 9.79665 47.9445 8.51613V2.32258C47.9445 1.04206 46.9024 0 45.6219 0ZM46.3961 8.51613C46.3961 8.94271 46.0485 9.29032 45.6219 9.29032H43.0771L38.1602 12.3631L38.6875 9.29032H34.7832C34.3566 9.29032 34.009 8.94271 34.009 8.51613V2.32258C34.009 1.896 34.3566 1.54839 34.7832 1.54839H45.6219C46.0485 1.54839 46.3961 1.896 46.3961 2.32258V8.51613Z" fill="#212B36"/>
<path d="M44.8477 3.09677H35.5574V4.64516H44.8477V3.09677Z" fill="#212B36"/>
<path d="M41.751 6.19355H35.5574V7.74194H41.751V6.19355Z" fill="#212B36"/>
<path d="M44.8477 6.19355H43.2993V7.74194H44.8477V6.19355Z" fill="#212B36"/>
<path d="M23.9445 2.32258C13.8289 2.32258 5.1153 9.31974 2.85001 19.08L1.38292 16.6343L0.0551758 17.431L2.77647 21.9654L7.31092 19.2441L6.51427 17.9164L4.41621 19.1752C6.61027 10.2465 14.6394 3.87097 23.9445 3.87097C25.9783 3.87097 27.985 4.1729 29.9089 4.76903L30.3672 3.29032C28.2947 2.64774 26.1339 2.32258 23.9445 2.32258Z" fill="#212B36"/>
<path d="M47.5681 17.1421L43.0337 14.4208L40.3132 18.9561L41.6409 19.7527L42.9958 17.4944C43.7088 19.5808 44.0734 21.7633 44.0734 23.9999C44.0734 28.6041 42.4786 33.1052 39.5839 36.6735L40.7862 37.649C43.9047 33.8059 45.6218 28.9579 45.6218 23.9999C45.6218 21.6317 45.2401 19.3192 44.4961 17.105L46.7715 18.4699L47.5681 17.1421Z" fill="#212B36"/>
</svg>
