<svg width="48" height="48" viewBox="0 0 48 48" fill="none" xmlns="http://www.w3.org/2000/svg">
<path d="M32.0581 30.7834C30.9208 30.7834 29.9956 29.9826 29.9956 28.9983C29.9956 28.0139 30.9208 27.2131 32.0581 27.2131C33.1953 27.2131 34.1206 28.0139 34.1206 28.9983C34.1206 29.516 34.5404 29.9358 35.0581 29.9358C35.5757 29.9358 35.9956 29.516 35.9956 28.9983C35.9956 27.2803 34.7155 25.8358 32.9956 25.4438V24.9562C32.9956 24.4385 32.5758 24.0187 32.0581 24.0187C31.5404 24.0187 31.1206 24.4385 31.1206 24.9562V25.4438C29.4006 25.8358 28.1206 27.2803 28.1206 28.9983C28.1206 31.0164 29.8869 32.6584 32.0581 32.6584C33.1953 32.6584 34.1206 33.4592 34.1206 34.4436C34.1206 35.4279 33.1953 36.2287 32.0581 36.2287C30.9208 36.2287 29.9956 35.4279 29.9956 34.4436C29.9956 33.9259 29.5758 33.5061 29.0581 33.5061C28.5404 33.5061 28.1206 33.9259 28.1206 34.4436C28.1206 36.1615 29.4006 37.606 31.1206 37.9981V38.4031C31.1206 38.9208 31.5404 39.3406 32.0581 39.3406C32.5758 39.3406 32.9956 38.9208 32.9956 38.4031V37.9981C34.7155 37.606 35.9956 36.1615 35.9956 34.4436C35.9956 32.4253 34.2292 30.7834 32.0581 30.7834Z" fill="#212B36"/>
<path d="M42.3264 25.2072C41.1017 23.2989 39.3764 21.7719 37.3368 20.7914C36.87 20.567 36.3099 20.7635 36.0856 21.2302C35.8613 21.6969 36.0577 22.2569 36.5244 22.4813C40.0785 24.1898 42.3749 27.8403 42.3749 31.7814C42.3749 33.4677 41.9593 35.1401 41.173 36.618C40.9298 37.075 41.1031 37.6428 41.5603 37.886C41.7005 37.9606 41.8513 37.996 41.9998 37.996C42.3352 37.996 42.6597 37.8155 42.8282 37.4987C43.7583 35.7508 44.2499 33.7737 44.2499 31.7814C44.2499 29.4414 43.5848 27.168 42.3264 25.2072Z" fill="#212B36"/>
<path d="M33.5318 19.5939L33.4687 19.5938C32.951 19.5938 32.5312 20.0135 32.5312 20.5313C32.5312 21.0491 32.951 21.4688 33.4687 21.4688L33.523 21.4689C33.5245 21.4689 33.5259 21.4689 33.5275 21.4689C34.0432 21.4689 34.4624 21.0521 34.4649 20.5358C34.4672 20.018 34.0495 19.5964 33.5318 19.5939Z" fill="#212B36"/>
<path d="M27.6006 41.0812C24.0466 39.3726 21.7502 35.7221 21.7502 31.7811C21.7502 30.0948 22.1659 28.4224 22.9521 26.9445C23.1953 26.4875 23.022 25.9197 22.5649 25.6765C22.1079 25.4333 21.54 25.6067 21.2969 26.0638C20.3668 27.8118 19.8752 29.7888 19.8752 31.7811C19.8752 34.1211 20.5403 36.3944 21.7987 38.3553C23.0234 40.2636 24.7488 41.7906 26.7883 42.7712C26.9193 42.8342 27.0576 42.8639 27.1938 42.8639C27.543 42.8639 27.878 42.668 28.0395 42.3324C28.2636 41.8657 28.0673 41.3056 27.6006 41.0812Z" fill="#212B36"/>
<path d="M30.6563 42.0937L30.6021 42.0935C30.0819 42.0926 29.6627 42.5088 29.6603 43.0266C29.6579 43.5444 30.0758 43.9661 30.5935 43.9685L30.6563 43.9687C31.174 43.9687 31.5938 43.5489 31.5938 43.0312C31.5938 42.5135 31.174 42.0937 30.6563 42.0937Z" fill="#212B36"/>
<path d="M36.3195 16.422C36.2054 16.1501 36.0657 15.8939 35.903 15.6562H38.3437C40.7215 15.6562 42.6562 13.7216 42.6562 11.3437C42.6562 8.96586 40.7215 7.03124 38.3437 7.03124H30.8362C31.3135 6.3373 31.5937 5.49777 31.5937 4.59374C31.5937 2.21587 29.6591 0.28125 27.2812 0.28125H4.31249C1.93462 0.28125 0 2.21587 0 4.59374C0 6.97161 1.93462 8.90623 4.31249 8.90623H11.82C11.3427 9.60017 11.0625 10.4397 11.0625 11.3437C11.0625 12.2478 11.3426 13.0873 11.82 13.7812H9.37498C6.99711 13.7812 5.06249 15.7158 5.06249 18.0937C5.06249 19.4594 5.7013 20.678 6.69514 21.4687C5.7013 22.2594 5.06249 23.4781 5.06249 24.8437C5.06249 26.2094 5.7013 27.428 6.69514 28.2187C5.7013 29.0094 5.06249 30.228 5.06249 31.5937C5.06249 32.9593 5.7013 34.178 6.69514 34.9687C5.7013 35.7594 5.06249 36.978 5.06249 38.3437C5.06249 40.7215 6.99711 42.6562 9.37498 42.6562H20.4234C23.334 45.7693 27.4745 47.7188 32.0625 47.7188C40.8505 47.7188 48 40.5692 48 31.7813C48 24.4672 43.0472 18.289 36.3195 16.422ZM38.3437 8.90623C39.6878 8.90623 40.7812 9.99973 40.7812 11.3437C40.7812 12.6877 39.6878 13.7812 38.3437 13.7812H15.375C14.0309 13.7812 12.9375 12.6877 12.9375 11.3437C12.9375 9.99973 14.0309 8.90623 15.375 8.90623H38.3437ZM4.31249 7.03124C2.9684 7.03124 1.875 5.93774 1.875 4.59374C1.875 3.24974 2.9684 2.15625 4.31249 2.15625H27.2812C28.6253 2.15625 29.7187 3.24974 29.7187 4.59374C29.7187 5.93774 28.6253 7.03124 27.2812 7.03124H4.31249ZM9.37498 15.6562H32.3437C32.7213 15.6562 33.0829 15.744 33.4073 15.9011C32.9638 15.8639 32.5155 15.8438 32.0625 15.8438C27.6614 15.8438 23.6715 17.6372 20.7845 20.5312H9.37498C8.03098 20.5312 6.93749 19.4377 6.93749 18.0937C6.93749 16.7497 8.03098 15.6562 9.37498 15.6562ZM9.37498 22.4062H19.1826C18.1184 23.8643 17.2955 25.5089 16.773 27.2812H9.37498C8.03089 27.2812 6.93749 26.1878 6.93749 24.8437C6.93749 23.4997 8.03089 22.4062 9.37498 22.4062ZM9.37498 29.1562H16.3425C16.2003 30.0105 16.1251 30.8872 16.1251 31.7813C16.1251 32.545 16.1803 33.2959 16.2846 34.0312H9.37498C8.03089 34.0312 6.93749 32.9378 6.93749 31.5937C6.93749 30.2496 8.03089 29.1562 9.37498 29.1562ZM9.37498 40.7812C8.03089 40.7812 6.93749 39.6878 6.93749 38.3437C6.93749 36.9996 8.03089 35.9062 9.37498 35.9062H16.6674C17.1405 37.6699 17.9089 39.3136 18.9167 40.7812H9.37498ZM32.0625 45.8438C24.3085 45.8438 18.0001 39.5353 18.0001 31.7813C18.0001 24.0272 24.3085 17.7188 32.0625 17.7188C39.8166 17.7188 46.125 24.0272 46.125 31.7813C46.125 39.5353 39.8166 45.8438 32.0625 45.8438Z" fill="#212B36"/>
</svg>
