<svg width="48" height="48" viewBox="0 0 48 48" fill="none" xmlns="http://www.w3.org/2000/svg">
<path d="M34.3125 12.75H28.2307C27.713 12.75 27.2932 13.1697 27.2932 13.6875C27.2932 14.2053 27.713 14.625 28.2307 14.625H33.375V33.375H14.625V14.625H19.7932C20.3108 14.625 20.7307 14.2053 20.7307 13.6875C20.7307 13.1697 20.3108 12.75 19.7932 12.75H13.6875C13.1698 12.75 12.75 13.1697 12.75 13.6875V34.3125C12.75 34.8302 13.1698 35.25 13.6875 35.25H34.3125C34.8302 35.25 35.25 34.8302 35.25 34.3125V13.6875C35.25 13.1697 34.8302 12.75 34.3125 12.75Z" fill="#212B36"/>
<path d="M16.875 17.8125V21.9375C16.875 22.4553 17.2948 22.875 17.8125 22.875H21.9375C22.4552 22.875 22.875 22.4553 22.875 21.9375V17.8125C22.875 17.2947 22.4552 16.875 21.9375 16.875H17.8125C17.2948 16.875 16.875 17.2947 16.875 17.8125ZM18.75 18.75H21V21H18.75V18.75Z" fill="#212B36"/>
<path d="M26.0625 18.75H30.1875C30.7052 18.75 31.125 18.3303 31.125 17.8125C31.125 17.2947 30.7052 16.875 30.1875 16.875H26.0625C25.5448 16.875 25.125 17.2947 25.125 17.8125C25.125 18.3303 25.5448 18.75 26.0625 18.75Z" fill="#212B36"/>
<path d="M26.0625 22.875H30.1875C30.7052 22.875 31.125 22.4553 31.125 21.9375C31.125 21.4197 30.7052 21 30.1875 21H26.0625C25.5448 21 25.125 21.4197 25.125 21.9375C25.125 22.4553 25.5448 22.875 26.0625 22.875Z" fill="#212B36"/>
<path d="M26.0625 31.125H30.1875C30.7052 31.125 31.125 30.7052 31.125 30.1875V26.0625C31.125 25.5448 30.7052 25.125 30.1875 25.125C29.6698 25.125 29.25 25.5448 29.25 26.0625V29.25H26.0625C25.5448 29.25 25.125 29.6698 25.125 30.1875C25.125 30.7052 25.5448 31.125 26.0625 31.125Z" fill="#212B36"/>
<path d="M26.0625 27C26.3091 27 26.5509 26.8997 26.7252 26.7252C26.8997 26.5509 27 26.3091 27 26.0625C27 25.8159 26.8997 25.5741 26.7252 25.3997C26.5509 25.2253 26.3091 25.125 26.0625 25.125C25.8159 25.125 25.5741 25.2252 25.3997 25.3997C25.2253 25.5742 25.125 25.8159 25.125 26.0625C25.125 26.3091 25.2252 26.5509 25.3997 26.7252C25.5741 26.8997 25.8159 27 26.0625 27Z" fill="#212B36"/>
<path d="M21.9375 29.25H17.8125C17.2948 29.25 16.875 29.6698 16.875 30.1875C16.875 30.7052 17.2948 31.125 17.8125 31.125H21.9375C22.4552 31.125 22.875 30.7052 22.875 30.1875C22.875 29.6698 22.4552 29.25 21.9375 29.25Z" fill="#212B36"/>
<path d="M21.9375 25.125H17.8125C17.2948 25.125 16.875 25.5448 16.875 26.0625C16.875 26.5802 17.2948 27 17.8125 27H21.9375C22.4552 27 22.875 26.5802 22.875 26.0625C22.875 25.5448 22.4552 25.125 21.9375 25.125Z" fill="#212B36"/>
<path d="M47.0625 24.9375C47.5802 24.9375 48 24.5177 48 24C48 23.4822 47.5802 23.0625 47.0625 23.0625H39.75V19.6875H43.3125C43.8302 19.6875 44.25 19.2678 44.25 18.75C44.25 18.2322 43.8302 17.8125 43.3125 17.8125H39.75V14.4375H47.0625C47.5802 14.4375 48 14.0178 48 13.5C48 12.9822 47.5802 12.5625 47.0625 12.5625H39.6941C39.3671 10.3702 37.6297 8.63288 35.4375 8.30587V0.9375C35.4375 0.419719 35.0177 0 34.5 0C33.9823 0 33.5625 0.419719 33.5625 0.9375V8.25H30.1875V4.6875C30.1875 4.16972 29.7677 3.75 29.25 3.75C28.7323 3.75 28.3125 4.16972 28.3125 4.6875V8.25H24.9375V0.9375C24.9375 0.419719 24.5177 0 24 0C23.4823 0 23.0625 0.419719 23.0625 0.9375V8.25H19.6875V4.6875C19.6875 4.16972 19.2677 3.75 18.75 3.75C18.2323 3.75 17.8125 4.16972 17.8125 4.6875V8.25H14.4375V0.9375C14.4375 0.419719 14.0177 0 13.5 0C12.9823 0 12.5625 0.419719 12.5625 0.9375V8.30587C10.3702 8.63288 8.63288 10.3702 8.30587 12.5625H0.9375C0.419813 12.5625 0 12.9822 0 13.5C0 14.0178 0.419813 14.4375 0.9375 14.4375H8.25V17.8125H4.6875C4.16981 17.8125 3.75 18.2322 3.75 18.75C3.75 19.2678 4.16981 19.6875 4.6875 19.6875H8.25V23.0625H0.9375C0.419813 23.0625 0 23.4822 0 24C0 24.5177 0.419813 24.9375 0.9375 24.9375H8.25V28.3125H4.6875C4.16981 28.3125 3.75 28.7323 3.75 29.25C3.75 29.7677 4.16981 30.1875 4.6875 30.1875H8.25V33.5625H0.9375C0.419813 33.5625 0 33.9823 0 34.5C0 35.0177 0.419813 35.4375 0.9375 35.4375H8.30587C8.63288 37.6297 10.3702 39.3671 12.5625 39.6941V47.0625C12.5625 47.5802 12.9823 48 13.5 48C14.0177 48 14.4375 47.5802 14.4375 47.0625V39.75H17.8125V43.3125C17.8125 43.8302 18.2323 44.25 18.75 44.25C19.2677 44.25 19.6875 43.8302 19.6875 43.3125V39.75H23.0625V47.0625C23.0625 47.5802 23.4823 48 24 48C24.5177 48 24.9375 47.5802 24.9375 47.0625V39.75H28.3125V43.3125C28.3125 43.8302 28.7323 44.25 29.25 44.25C29.7677 44.25 30.1875 43.8302 30.1875 43.3125V39.75H33.5625V47.0625C33.5625 47.5802 33.9823 48 34.5 48C35.0177 48 35.4375 47.5802 35.4375 47.0625V39.6941C37.6297 39.3671 39.3671 37.6297 39.6941 35.4375H47.0625C47.5802 35.4375 48 35.0177 48 34.5C48 33.9823 47.5802 33.5625 47.0625 33.5625H39.75V30.1875H43.3125C43.8302 30.1875 44.25 29.7677 44.25 29.25C44.25 28.7323 43.8302 28.3125 43.3125 28.3125H39.75V24.9375H47.0625ZM37.875 34.6875C37.875 36.4451 36.4451 37.875 34.6875 37.875H13.3125C11.5549 37.875 10.125 36.4451 10.125 34.6875V13.3125C10.125 11.5549 11.5549 10.125 13.3125 10.125H34.6875C36.4451 10.125 37.875 11.5549 37.875 13.3125V34.6875Z" fill="#212B36"/>
<path d="M24.0122 14.625C24.2588 14.625 24.5006 14.5247 24.675 14.3503C24.8493 14.1759 24.9497 13.9341 24.9497 13.6875C24.9497 13.4409 24.8494 13.1991 24.675 13.0247C24.5006 12.8503 24.2588 12.75 24.0122 12.75C23.7647 12.75 23.5238 12.8503 23.3494 13.0247C23.1741 13.1991 23.0747 13.4409 23.0747 13.6875C23.0747 13.9341 23.1741 14.1759 23.3494 14.3503C23.5238 14.5247 23.7647 14.625 24.0122 14.625Z" fill="#212B36"/>
</svg>
